<svg xmlns="http://www.w3.org/2000/svg" width="23" height="23" viewBox="0 0 23 23"><path d="M211.4,209.2a2.2,2.2,0,1,1-2.2-2.2A2.2,2.2,0,0,1,211.4,209.2Zm0,0" transform="translate(-197.701 -197.701)"/><path d="M146.046,137.008a2.187,2.187,0,0,0-1.253-1.253,3.654,3.654,0,0,0-1.226-.227c-.7-.032-.905-.039-2.668-.039s-1.972.007-2.668.038a3.656,3.656,0,0,0-1.226.227,2.188,2.188,0,0,0-1.253,1.253,3.655,3.655,0,0,0-.227,1.226c-.032.7-.039.905-.039,2.668s.007,1.972.039,2.668a3.654,3.654,0,0,0,.227,1.226A2.187,2.187,0,0,0,137,146.05a3.649,3.649,0,0,0,1.226.227c.7.032.9.038,2.668.038s1.972-.007,2.668-.038a3.649,3.649,0,0,0,1.226-.227,2.187,2.187,0,0,0,1.253-1.253,3.657,3.657,0,0,0,.227-1.226c.032-.7.038-.905.038-2.668s-.007-1.972-.038-2.668A3.649,3.649,0,0,0,146.046,137.008Zm-5.148,7.285a3.391,3.391,0,1,1,3.391-3.391A3.391,3.391,0,0,1,140.9,144.293Zm3.525-6.123a.792.792,0,1,1,.792-.792A.792.792,0,0,1,144.423,138.17Zm0,0" transform="translate(-129.398 -129.402)"/><path d="M11.5,0A11.5,11.5,0,1,0,23,11.5,11.5,11.5,0,0,0,11.5,0Zm6.564,14.222a4.845,4.845,0,0,1-.307,1.6,3.377,3.377,0,0,1-1.931,1.931,4.848,4.848,0,0,1-1.6.307c-.7.032-.929.04-2.723.04s-2.018-.008-2.723-.04a4.848,4.848,0,0,1-1.6-.307,3.376,3.376,0,0,1-1.931-1.931,4.844,4.844,0,0,1-.307-1.6c-.032-.7-.04-.929-.04-2.723s.008-2.018.04-2.723a4.845,4.845,0,0,1,.307-1.6A3.379,3.379,0,0,1,7.174,5.243a4.849,4.849,0,0,1,1.6-.307c.7-.032.929-.04,2.723-.04s2.018.008,2.723.04a4.85,4.85,0,0,1,1.6.307,3.377,3.377,0,0,1,1.931,1.931,4.844,4.844,0,0,1,.307,1.6c.032.7.04.929.04,2.723S18.1,13.518,18.064,14.222Zm0,0"/></svg>