<svg xmlns="http://www.w3.org/2000/svg" width="30.708" height="22.543" viewBox="0 0 30.708 22.543"><defs><style>.a{fill:#e4e4e4;}</style></defs><g transform="translate(23.556 9.619)"><g transform="translate(0 0)"><path class="a" d="M396.288,228.977a8.777,8.777,0,0,0-3.087-.528.45.45,0,0,0,0,.9,7.768,7.768,0,0,1,2.685.434.45.45,0,0,0,.4-.8Z" transform="translate(-392.751 -228.449)"/></g></g><g transform="translate(0 0)"><path class="a" d="M29.336,84.618l-1.858-.531a.189.189,0,0,1-.136-.181v-.62a3.381,3.381,0,0,0,.43-.353,3.309,3.309,0,0,0,1.013-2.394v-.856l.18-.359a2.87,2.87,0,0,0,.3-1.277V75.73a.45.45,0,0,0-.45-.45H24.487a2.858,2.858,0,0,0-2.855,2.855v.027a2.386,2.386,0,0,0,.251,1.062l.23.461v.735a3.51,3.51,0,0,0,1.443,2.838v.65c0,.1,0,.142-.371.248l-.907.259-2.622-.954a.449.449,0,0,0-.123-.344l-.838-.88V80.758c.089-.073.176-.148.261-.227a5.28,5.28,0,0,0,1.663-3.838v-1.18a5.2,5.2,0,0,0,.481-2.187v-4.81a.45.45,0,0,0-.45-.45H13.917a4.3,4.3,0,0,0-4.3,4.3v.962a5.2,5.2,0,0,0,.481,2.187v1.015a5.5,5.5,0,0,0,1.924,4.2v1.513l-.838.88a.449.449,0,0,0-.123.344L8.3,84.467a2.359,2.359,0,0,0-.556.291l-.435-.217a3.436,3.436,0,0,0,1.723-1.394.45.45,0,0,0,0-.4,7.991,7.991,0,0,1-.4-2.793c-.01-.318-.02-.618-.039-.886A3.913,3.913,0,0,0,4.779,75.28,3.913,3.913,0,0,0,.963,79.065c-.019.268-.029.568-.039.886a7.992,7.992,0,0,1-.4,2.792.45.45,0,0,0,0,.4A3.435,3.435,0,0,0,2.253,84.54l-1.207.6A1.883,1.883,0,0,0,0,86.836V90.16a.45.45,0,0,0,.9,0V86.836a.988.988,0,0,1,.549-.888l1.5-.752.523.5a1.892,1.892,0,0,0,2.608,0l.523-.5.49.245A2.369,2.369,0,0,0,6.734,86.7V90.16a.45.45,0,0,0,.9,0V86.7a1.479,1.479,0,0,1,.97-1.385l2.918-1.061,1.215,1.822a.927.927,0,0,0,.683.41q.047,0,.093,0a.927.927,0,0,0,.657-.273l.741-.741V90.16a.45.45,0,0,0,.9,0V85.474l.741.741a.927.927,0,0,0,.657.273q.046,0,.093,0a.927.927,0,0,0,.683-.41L19.2,84.251l2.918,1.061a1.479,1.479,0,0,1,.97,1.385V90.16a.45.45,0,0,0,.9,0V86.7a2.378,2.378,0,0,0-.665-1.646l.111-.032a2.467,2.467,0,0,0,.419-.151L25,86.017V90.16a.45.45,0,0,0,.9,0V86.017l1.141-1.141a1.07,1.07,0,0,0,.191.076l1.858.531a1,1,0,0,1,.72.955V90.16a.45.45,0,0,0,.9,0V86.438A1.9,1.9,0,0,0,29.336,84.618Zm-26.45-.795A3.234,3.234,0,0,1,1.442,82.9,4.959,4.959,0,0,0,1.7,81.82a3.354,3.354,0,0,0,1.187,1.465Zm2.577,1.217a.993.993,0,0,1-1.368,0l-.418-.4a.931.931,0,0,0,.109-.439v-.479a3.345,3.345,0,0,0,1.986,0V84.2a.931.931,0,0,0,.109.439Zm-.684-2.065A2.439,2.439,0,0,1,2.343,80.54a.447.447,0,0,0-.524-.443l0-.116c.01-.309.02-.6.037-.852a3.34,3.34,0,0,1,.909-2.1,2.795,2.795,0,0,1,4.017,0,3.34,3.34,0,0,1,.909,2.1c.018.251.027.543.038.852l0,.08a4.042,4.042,0,0,0-2.222-1.624A5.646,5.646,0,0,0,3.8,78.167a.45.45,0,0,0-.311.137l-.812.842a.45.45,0,0,0,.648.624L4,79.07a3.639,3.639,0,0,1,3.18,1.848A2.43,2.43,0,0,1,4.779,82.976Zm1.892.849v-.536a3.327,3.327,0,0,0,1.188-1.466A4.952,4.952,0,0,0,8.115,82.9,3.249,3.249,0,0,1,6.671,83.825ZM11,76.528V75.411a.45.45,0,0,0-.045-.2,4.315,4.315,0,0,1-.436-1.89v-.962a3.4,3.4,0,0,1,3.4-3.4H20.2v4.36a4.315,4.315,0,0,1-.436,1.89.45.45,0,0,0-.045.2v1.281a4.319,4.319,0,0,1-1.379,3.182,4.476,4.476,0,0,1-.345.292l-.008.006a4.325,4.325,0,0,1-2.919.871A4.455,4.455,0,0,1,11,76.528Zm2.533,9.051a.028.028,0,0,1-.025.009.029.029,0,0,1-.023-.014l-1.4-2.1.45-.473,2.122,1.451Zm1.827-1.736-2.436-1.665v-.84a5.065,5.065,0,0,0,2.087.6q.178.012.354.011a5.211,5.211,0,0,0,2.431-.6v.822Zm1.875,1.731a.029.029,0,0,1-.023.014.028.028,0,0,1-.025-.009l-1.126-1.126L18.184,83l.45.473Zm8.214-.38-1.021-1.021a1.234,1.234,0,0,0,.028-.267v-.19a3.154,3.154,0,0,0,.891.157l.1,0a3.342,3.342,0,0,0,.992-.15v.181a1.075,1.075,0,0,0,.033.262Zm1.7-2.906a2.418,2.418,0,0,1-1.772.687,2.518,2.518,0,0,1-2.361-2.556v-.841a.449.449,0,0,0-.048-.2l-.278-.556a1.482,1.482,0,0,1-.156-.659v-.027a1.957,1.957,0,0,1,1.955-1.955h3.879v1.868a1.965,1.965,0,0,1-.206.874l-.227.454a.45.45,0,0,0-.048.2v.962A2.417,2.417,0,0,1,27.145,82.288Z" transform="translate(0 -68.066)"/></g><g transform="translate(27.885 18.758)"><g transform="translate(0 0)"><path class="a" d="M465.373,380.814a.45.45,0,0,0-.45.45v2.886a.45.45,0,1,0,.9,0v-2.886A.45.45,0,0,0,465.373,380.814Z" transform="translate(-464.923 -380.814)"/></g></g><g transform="translate(1.924 19.352)"><path class="a" d="M32.527,390.728a.45.45,0,0,0-.45.45v2.291a.45.45,0,0,0,.9,0v-2.291A.45.45,0,0,0,32.527,390.728Z" transform="translate(-32.077 -390.728)"/></g><g transform="translate(11.543 4.087)"><g transform="translate(0 0)"><path class="a" d="M199.962,137.538c-1.7-1.7-5.261-1.376-6.713-1.157a.923.923,0,0,0-.789.92v1.036a.45.45,0,0,0,.9,0V137.3a.03.03,0,0,1,.024-.03,14.213,14.213,0,0,1,2.922-.143,4.643,4.643,0,0,1,3.02,1.047.45.45,0,1,0,.636-.636Z" transform="translate(-192.46 -136.203)"/></g></g><g transform="translate(9.619 19.72)"><g transform="translate(0 0)"><path class="a" d="M160.834,396.853a.45.45,0,0,0-.45.45v1.924a.45.45,0,0,0,.9,0V397.3A.45.45,0,0,0,160.834,396.853Z" transform="translate(-160.384 -396.853)"/></g></g><g transform="translate(20.201 19.72)"><g transform="translate(0 0)"><path class="a" d="M337.256,396.853a.45.45,0,0,0-.45.45v1.924a.45.45,0,0,0,.9,0V397.3A.45.45,0,0,0,337.256,396.853Z" transform="translate(-336.806 -396.853)"/></g></g></svg>