<svg xmlns="http://www.w3.org/2000/svg" width="23" height="23" viewBox="0 0 23 23"><path d="M11.5,0A11.5,11.5,0,1,0,23,11.5,11.5,11.5,0,0,0,11.5,0Zm5.251,8.966q.008.17.008.341a7.459,7.459,0,0,1-7.51,7.51h0A7.471,7.471,0,0,1,5.2,15.632a5.369,5.369,0,0,0,.63.036,5.3,5.3,0,0,0,3.278-1.13,2.643,2.643,0,0,1-2.466-1.833,2.631,2.631,0,0,0,1.192-.045,2.64,2.64,0,0,1-2.118-2.587c0-.012,0-.023,0-.034a2.621,2.621,0,0,0,1.2.33A2.642,2.642,0,0,1,6.1,6.845,7.494,7.494,0,0,0,11.538,9.6a2.641,2.641,0,0,1,4.5-2.407,5.294,5.294,0,0,0,1.676-.641,2.65,2.65,0,0,1-1.161,1.46A5.264,5.264,0,0,0,18.067,7.6a5.364,5.364,0,0,1-1.317,1.367Zm0,0"/></svg>