<svg xmlns="http://www.w3.org/2000/svg" width="21.84" height="21.84" viewBox="0 0 21.84 21.84"><g transform="translate(-145.4 122.309)"><path d="M174.03-94.889l3.216,1.883-3.216,1.883Z" transform="translate(-19.04 -18.235)"/><path d="M169.154-103.829h-8.723a2.3,2.3,0,0,0-2.291,2.3v4.864a2.3,2.3,0,0,0,2.291,2.3h8.723a2.3,2.3,0,0,0,2.291-2.3v-4.864A2.3,2.3,0,0,0,169.154-103.829Zm-1.742,5.135-4.1,2.4a.3.3,0,0,1-.147.04.278.278,0,0,1-.147-.04.3.3,0,0,1-.151-.258v-4.8a.3.3,0,0,1,.151-.258.3.3,0,0,1,.295,0l4.1,2.4a.3.3,0,0,1,.147.255A.3.3,0,0,1,167.412-98.694Z" transform="translate(-8.473 -12.29)"/><path d="M156.32-122.309a10.922,10.922,0,0,0-10.92,10.92,10.922,10.922,0,0,0,10.92,10.92,10.922,10.922,0,0,0,10.92-10.92A10.922,10.922,0,0,0,156.32-122.309Zm7.242,13.352a2.887,2.887,0,0,1-2.881,2.891h-8.723a2.887,2.887,0,0,1-2.881-2.891v-4.864a2.887,2.887,0,0,1,2.881-2.891h8.723a2.887,2.887,0,0,1,2.881,2.891Z" transform="translate(0 0)"/></g></svg>