<svg xmlns="http://www.w3.org/2000/svg" xmlns:xlink="http://www.w3.org/1999/xlink" width="527.849" height="437.993" viewBox="0 0 527.849 437.993"><defs><style>.a{fill:none;}.b{fill:#9cd499;}.c{fill:#74b570;}.d{fill:#93b1c2;}.e,.m{fill:#bdccd4;}.f{fill:#fff;}.g,.i{fill:#9ec8ff;}.g{opacity:0.7;}.h{opacity:0.8;}.j{fill:#f37168;}.k{fill:#d6e7f0;}.l{fill:#f2f2f2;}.m{opacity:0.5;}.n{fill:#d54a41;}.o{fill:#303c60;}.p{fill:#58556e;}.q{fill:#7ec1d6;}.r{fill:#f09959;}.s{fill:#9bd6e8;}.t{fill:#e38540;}.u{fill:#3e6bab;}.v{fill:#7a4e34;}.w{fill:#63acc2;}.x{fill:#2e5b9a;}.y{fill:#edc055;}.z{fill:#f5ce5c;}.aa{fill:#fca96a;}.ab{fill:#f2e5de;}.ac{fill:#3a384d;}.ad{clip-path:url(#a);}</style><clipPath id="a"><path class="a" d="M2609.637,332.043c22.636,0,52.377-8.516,61.564-11.323a2.124,2.124,0,0,1,2.825,1.868v62.964c0,48.653-63.4,88.094-63.4,88.094s-63.4-39.441-63.4-88.094V325.508a2.112,2.112,0,0,1,2.689-1.9C2558.65,325.7,2587.007,332.043,2609.637,332.043Z" transform="translate(-2547.218 -320.618)"/></clipPath></defs><g transform="translate(-2457.324 -320.618)"><g transform="translate(2809.281 337.333)"><path class="b" d="M3624.2,614.37c38.392-45.358,46.8-64.645,45.862-120.238s40.993-133.92,18.679-116.71-53.68,74.622-40.289,118.948,10.235,58.907,5.527,71.1-30.419,43.214-30.419,43.214Z" transform="translate(-3617.064 -375.002)"/><path class="c" d="M3696.47,585.329c.127-.186.251-.371.376-.556,1.85-4.469,11.217-27.538,12.009-38.312.88-11.959-9.509-39.636-3.285-63.293s6.556-44.578,8.224-60.826c2.2-21.452,19.422-41.745,29.963-45.49a1.791,1.791,0,0,0-.339-.476l-2.82.06a17.15,17.15,0,0,0-3,1.938c-22.313,17.21-53.68,74.622-40.288,118.948s10.235,58.907,5.527,71.1c-1.27,3.29-4.069,7.95-7.479,13Z" transform="translate(-3665.914 -375.953)"/><path class="b" d="M3602.414,737.062c26.718-63.787,30.793-87.365,31.354-144.421s131.332-149.59,122.261-129.658-34.212,68.77-70.014,93.617-45.474,50.656-48.48,80.045-27.907,92.6-27.907,92.6l-6.426,10.794Z" transform="translate(-3602.414 -434.028)"/><g transform="translate(10.705 32.093)"><path class="c" d="M3638.164,724.236a.923.923,0,0,1-.876-1.212c.067-.2,6.71-20.319,11.162-37.12s8.212-46.724,8.305-57.348c.085-9.712,5.639-40.753,29.991-67.4,12.111-13.255,21.033-21.266,33.381-32.354,12.2-10.952,27.376-24.582,52.3-49.117a.922.922,0,0,1,1.293,1.314c-24.954,24.565-40.15,38.211-52.36,49.175-12.309,11.053-21.2,19.039-33.252,32.226-23.96,26.223-29.425,56.661-29.508,66.176-.094,10.715-3.88,40.874-8.367,57.8-4.466,16.856-11.126,37.025-11.193,37.227A.923.923,0,0,1,3638.164,724.236Z" transform="translate(-3637.241 -479.417)"/></g><path class="b" d="M3695.326,1011.568c8.848-45.368,7.613-22.713-6.476-86.7-16.125-73.233,69.9-129.242,80.74-102.27s18.834,109.4,13.28,106.25-37.223-81.869-38.559-78.805-54.754,24.8-55.058,51.832,15.344,71.416,15.344,71.416l-4.055,39.273Z" transform="translate(-3660.892 -680.254)"/><g transform="translate(25.029 134.535)"><path class="c" d="M3698.573,1010.214a.925.925,0,0,1-.174-.017l-5.216-1a.922.922,0,0,1-.731-1.082c1.022-5.242,1.927-9.653,2.655-13.2,3.937-19.184,3.937-19.184-.587-36.323-2.052-7.773-4.862-18.419-8.647-35.608a85.737,85.737,0,0,1,.422-38.881,99.333,99.333,0,0,1,14.795-32.732c12.125-17.735,30.015-32.3,45.579-37.106,10.925-3.374,18.835-1.221,21.7,5.907,4.611,11.469,9.284,34.509,12.5,61.632,1.348,11.379,2.255,22.159,2.554,30.354.495,13.606-.824,14.759-1.387,15.251a1.421,1.421,0,0,1-1.7.159c-3.1-1.759-11.921-21.188-24.046-48.445-5.9-13.267-11.988-26.949-13.953-29.932a64.752,64.752,0,0,1-7.4,4.4c-15.129,8.393-46.612,25.858-46.84,46.213-.3,26.558,15.136,70.656,15.292,71.1a.92.92,0,0,1,.048.4l-3.948,38.078a.922.922,0,0,1-.917.827Zm-4.134-2.652,3.32.636,3.823-36.874c-1.132-3.263-15.621-45.569-15.329-71.536.241-21.427,32.356-39.243,47.79-47.8,3.546-1.967,6.9-3.825,7.366-4.429a1.033,1.033,0,0,1,.93-.6h.04c.76,0,1.334.161,5.839,9.782,2.653,5.665,6.1,13.425,9.759,21.64,4.638,10.425,9.894,22.241,14.23,31.345,5.614,11.784,7.865,15.156,8.764,16.025.326-.8.981-3.707.6-13.845-.311-8.184-1.222-18.9-2.566-30.184-3.2-26.835-7.812-49.584-12.343-60.855-2.463-6.127-9.552-7.889-19.446-4.833-27.122,8.375-71.474,52.354-59.539,106.561,3.777,17.152,6.582,27.777,8.629,35.534,4.635,17.556,4.635,17.556.61,37.164C3696.193,998.8,3695.383,1002.744,3694.439,1007.562Z" transform="translate(-3683.844 -812.709)"/></g><g transform="translate(7.955 168.881)"><path class="c" d="M3628.308,1125.051l.613-.591a151.729,151.729,0,0,1,1.029-16.791A83.714,83.714,0,0,0,3628.308,1125.051Z" transform="translate(-3628.294 -1051.356)"/><path class="c" d="M3703.979,957.774a49.338,49.338,0,0,0-4.092,11.646c9.137-22.509,50.284-39.863,53.151-43.156l.534-.846C3739.2,919.969,3713.747,938.566,3703.979,957.774Z" transform="translate(-3677.882 -924.454)"/></g><g transform="translate(32.709 144.23)"><path class="c" d="M3798.323,947.457a.922.922,0,0,1-.91-.783l-3.8-24.848q-.363-2.372-.733-4.817c-3.527-23.226-7.917-52.131-14.55-65.393-1.068-2.136-6.324-5.366-14.211-5.514-10.73-.2-31.977,5.338-53.561,44.716a.922.922,0,0,1-1.617-.887c22.051-40.228,44.072-45.883,55.212-45.673,8.744.164,14.519,3.919,15.826,6.533,6.763,13.522,10.993,41.371,14.724,65.941q.37,2.441.732,4.815l3.8,24.848a.922.922,0,0,1-.772,1.051A.945.945,0,0,1,3798.323,947.457Z" transform="translate(-3708.831 -844.252)"/></g><g transform="translate(103.754 156.107)"><path class="c" d="M3940.9,934.481a.922.922,0,0,1-.9-1.11c.049-.235,4.853-23.81.84-49.412a.922.922,0,0,1,1.822-.286c4.066,25.946-.808,49.836-.857,50.074A.923.923,0,0,1,3940.9,934.481Z" transform="translate(-3939.976 -882.894)"/></g><g transform="translate(97.704 150.259)"><path class="c" d="M3921.215,905.895a.924.924,0,0,1-.9-1.112c.045-.216,4.536-21.806,4.391-39.985a.922.922,0,0,1,1.845-.015c.146,18.382-4.384,40.162-4.43,40.38A.923.923,0,0,1,3921.215,905.895Z" transform="translate(-3920.292 -863.868)"/></g><g transform="translate(93.004 61.062)"><path class="c" d="M3905.924,595.884a.922.922,0,0,1-.15-1.832c.208-.034,20.919-3.66,37.052-20.107a.922.922,0,1,1,1.316,1.291c-16.567,16.891-37.851,20.6-38.064,20.635A.914.914,0,0,1,3905.924,595.884Z" transform="translate(-3905.003 -573.668)"/></g><g transform="translate(72.875 92.49)"><path class="c" d="M3842.632,685.938c-1.353,0-2.134-.057-2.271-.068a.922.922,0,0,1,.146-1.838c.157.012,15.946,1.125,37.745-8.043a.922.922,0,1,1,.715,1.7C3861.331,685.107,3847.807,685.938,3842.632,685.938Z" transform="translate(-3839.512 -675.917)"/></g><g transform="translate(54.889 115.542)"><path class="c" d="M3789.331,757.706a23.926,23.926,0,0,1-7.734-.985.922.922,0,1,1,.643-1.729c.1.035,10.158,3.529,30.092-4.014a.922.922,0,1,1,.653,1.725C3802.4,756.706,3794.542,757.706,3789.331,757.706Z" transform="translate(-3780.996 -750.918)"/></g></g><g transform="translate(2457.324 517.922)"><path class="b" d="M2767.022,1147.8c-.67-2.035-47.46-61.666-45.251-110.7,1.547-34.334-8.682-71.555-8.682-71.555s33.234,24.91,34.256,79.37c.629,33.519-.427,43.211,1.707,52.43s21.349,52.5,21.349,52.5Z" transform="translate(-2634.477 -964.624)"/><g transform="translate(77.691 0)"><path class="c" d="M2768.323,1148.691a.917.917,0,0,1-.477-.133l-3.379-2.044a.92.92,0,0,1-.385-.463c-.146-.294-1.068-1.617-2.135-3.147a335.419,335.419,0,0,1-25.822-42.765c-12.342-24.876-18.18-46.8-17.353-65.156,1.522-33.788-8.548-70.9-8.65-71.27a.922.922,0,0,1,1.442-.982c.345.258,8.537,6.476,16.966,19.5,7.763,11.994,17.127,32.241,17.659,60.591.213,11.339.233,19.88.249,26.742.031,13.387.045,19.5,1.435,25.5,2.09,9.029,21.1,51.9,21.293,52.336a.922.922,0,0,1-.843,1.3Zm-4.255-2.678.009.026C2764.074,1146.03,2764.072,1146.021,2764.068,1146.013Zm1.579-.941.651.394c-4.254-9.66-18.377-42.021-20.222-49.99-1.437-6.2-1.451-12.38-1.482-25.909-.016-6.856-.036-15.388-.249-26.711-.523-27.872-9.706-47.767-17.316-59.549a87.392,87.392,0,0,0-14.407-17.264c2.31,9.35,9.283,40.354,7.992,69.023-1.272,28.25,13.143,64.177,42.845,106.784C2764.828,1143.81,2765.4,1144.633,2765.647,1145.072Z" transform="translate(-2710.09 -962.545)"/></g><path class="b" d="M2601.947,1236.1c1.765,3.2,3.309,8.733,4.616,15.009h3.1c-10.727-52.674-33.176-83.581-67.613-107.015-42.646-29.019-45.5-37.719-45.5-37.719s14.552,65.5,39.621,85.567S2595.73,1224.813,2601.947,1236.1Z" transform="translate(-2484.493 -1062.167)"/><path class="b" d="M2556.49,1514.976c4.2.171,8.138,2.654,11.64,6.155h7.217c-7.931-13.6-18.288-24.819-30.8-24.907-31.562-.221-37.846,7.938-59.527,7.3a133.752,133.752,0,0,1-27.7-3.746s10.7,19.43,39.434,24.253C2517.071,1527.438,2541.291,1514.358,2556.49,1514.976Z" transform="translate(-2457.324 -1332.188)"/><g transform="translate(26.708 66.749)"><path class="c" d="M2643.63,1308.4a.922.922,0,0,1-.9-.719c-4.99-22.052-13.264-41.354-23.929-55.819-13.574-18.411-27.124-28.384-40.227-38.028-12.426-9.146-24.163-17.784-34.2-32.687a.922.922,0,1,1,1.53-1.03c9.86,14.637,21.471,23.184,33.765,32.232,13.214,9.726,26.878,19.782,40.618,38.419,10.969,14.878,19.126,33.89,24.243,56.506a.923.923,0,0,1-.7,1.1A.932.932,0,0,1,2643.63,1308.4Z" transform="translate(-2544.218 -1179.714)"/></g><g transform="translate(14.679 164.732)"><path class="c" d="M2613.588,1532.923a.922.922,0,0,1-.81-.481c-9.879-18.093-19.562-27.95-30.472-31.02-9.625-2.709-18.958.219-28.839,3.319-2.8.88-5.7,1.789-8.606,2.56-25.458,6.76-38.622,2.165-39.17,1.967a.922.922,0,0,1,.629-1.734c.128.046,13.236,4.578,38.067-2.015,2.865-.761,5.744-1.664,8.528-2.538,10.15-3.185,19.737-6.193,29.891-3.335,11.42,3.214,21.458,13.354,31.591,31.912a.922.922,0,0,1-.808,1.364Z" transform="translate(-2505.083 -1498.501)"/></g><g transform="translate(37.918 99.851)"><path class="c" d="M2619.519,1300.1a.919.919,0,0,1-.463-.125,94.2,94.2,0,0,0-37.5-10.72.922.922,0,1,1,.112-1.841,96.175,96.175,0,0,1,38.318,10.968.922.922,0,0,1-.466,1.719Z" transform="translate(-2580.689 -1287.408)"/></g><g transform="translate(48.306 116.644)"><path class="c" d="M2671.372,1369.02a.919.919,0,0,1-.726-.354c-13.1-16.721-26.448-19.684-55.4-24.791a.922.922,0,1,1,.321-1.816c29.432,5.192,43.014,8.214,56.529,25.47a.922.922,0,0,1-.726,1.49Z" transform="translate(-2614.487 -1342.045)"/></g></g><g transform="translate(2803.942 589.147)"><path class="b" d="M3585.891,1321.877c35.793-70.809,73.553-99.118,124-109.871s56.382-17.729,56.382-17.729-38.223,55.142-69.017,64.252-67.565,7.927-77.586,16.028-28.422,43.959-28.422,43.959l-6.2,4.851Z" transform="translate(-3585.045 -1194.277)"/><path class="b" d="M3641.995,1522.678c-.306-1.32,15.04-73.021,46.573-74.359s38.1,6.594,59.749,5.186a133.77,133.77,0,0,0,27.551-4.724s-10.01,19.8-38.551,25.633c-20.18,4.127-44.847-8.088-60.015-6.932s-25.852,32.421-25.852,32.421l-4.123,16.393Z" transform="translate(-3624.487 -1370.13)"/><g transform="translate(1.879 14.917)"><path class="c" d="M3592.081,1352.105a.912.912,0,0,1-.379-.083.921.921,0,0,1-.46-1.219,190.334,190.334,0,0,1,15.431-26.4c9.246-13.391,24.467-31.918,44.474-44.129,19.764-12.062,36.215-16.211,52.125-20.222,14.8-3.732,28.781-7.257,43.441-17.084a.922.922,0,1,1,1.027,1.532c-14.926,10-29.057,13.568-44.017,17.34-15.776,3.978-32.089,8.092-51.615,20.008-19.718,12.035-34.754,30.336-43.895,43.57a188.447,188.447,0,0,0-15.29,26.148A.923.923,0,0,1,3592.081,1352.105Z" transform="translate(-3591.16 -1242.808)"/></g><g transform="translate(20.762 78.739)"><path class="c" d="M3653.516,1503.634a.923.923,0,0,1-.857-1.261c10.821-27.4,21.754-42.963,34.407-48.965,11.328-5.373,22.209-2.377,33.73.794,2.813.774,5.723,1.575,8.613,2.234,25.121,5.727,37.987.718,38.114.667a.922.922,0,1,1,.69,1.71c-.541.218-13.533,5.275-39.214-.579-2.93-.668-5.86-1.474-8.692-2.254-11.181-3.077-21.743-5.984-32.451-.906-12.2,5.789-22.843,21.034-33.482,47.976A.922.922,0,0,1,3653.516,1503.634Z" transform="translate(-3652.594 -1450.454)"/></g><g transform="translate(94.94 36.563)"><path class="c" d="M3934.048,1319.843a.921.921,0,0,1-.3-.049,94.2,94.2,0,0,0-38.771-4.245.922.922,0,0,1-.258-1.826,96.153,96.153,0,0,1,39.621,4.325.922.922,0,0,1-.3,1.8Z" transform="translate(-3893.93 -1313.233)"/></g><g transform="translate(56.862 47.638)"><path class="c" d="M3770.968,1358.546a.922.922,0,0,1-.458-1.723c19.032-10.869,32.749-8.536,61.961-2.22a.922.922,0,0,1-.39,1.8c-28.734-6.212-42.214-8.514-60.658,2.019A.918.918,0,0,1,3770.968,1358.546Z" transform="translate(-3770.045 -1349.268)"/></g></g><g transform="translate(2562.432 340.923)"><path class="d" d="M2976.8,407.4h168.05a20.72,20.72,0,0,0-20.72-20.721H2997.522A20.721,20.721,0,0,0,2976.8,407.4Z" transform="translate(-2922.242 -386.682)"/><rect class="e" width="273.936" height="368.5" transform="translate(0 10.73)"/><rect class="f" width="250.573" height="337.071" transform="translate(11.682 26.445)"/><g transform="translate(31.876 95.686)"><path class="g" d="M3.062,0H211.048a3.062,3.062,0,0,1,3.062,3.062v0a3.062,3.062,0,0,1-3.062,3.062H3.062A3.062,3.062,0,0,1,0,3.062v0A3.062,3.062,0,0,1,3.062,0Z"/><path class="g" d="M3.062,0H211.048a3.062,3.062,0,0,1,3.062,3.062v0a3.062,3.062,0,0,1-3.062,3.062H3.062A3.062,3.062,0,0,1,0,3.062v0A3.062,3.062,0,0,1,3.062,0Z" transform="translate(0 11.884)"/><path class="g" d="M3070,833.335H2905.981a2.982,2.982,0,1,1,0-5.963H3070a2.982,2.982,0,0,1,0,5.963Z" transform="translate(-2902.999 -787.607)"/><path class="g" d="M3070,868.1H2905.981a2.982,2.982,0,1,1,0-5.963H3070a2.982,2.982,0,0,1,0,5.963Z" transform="translate(-2902.999 -811.688)"/><path class="g" d="M3070,968.638H2905.981a2.982,2.982,0,1,1,0-5.963H3070a2.982,2.982,0,0,1,0,5.963Z" transform="translate(-2902.999 -881.323)"/><path class="g" d="M3070,1003.405H2905.981a2.982,2.982,0,1,1,0-5.963H3070a2.982,2.982,0,0,1,0,5.963Z" transform="translate(-2902.999 -905.404)"/><path class="g" d="M3070,1127.9H2905.981a2.982,2.982,0,1,1,0-5.964H3070a2.982,2.982,0,0,1,0,5.964Z" transform="translate(-2902.999 -991.632)"/><path class="g" d="M3070,1162.664H2905.981a2.982,2.982,0,1,1,0-5.963H3070a2.982,2.982,0,0,1,0,5.963Z" transform="translate(-2902.999 -1015.713)"/><path class="g" d="M3070,1252.257H2905.981a2.982,2.982,0,1,1,0-5.963H3070a2.982,2.982,0,0,1,0,5.963Z" transform="translate(-2902.999 -1077.768)"/><path class="g" d="M3070,1287.025H2905.981a2.982,2.982,0,1,1,0-5.964H3070a2.982,2.982,0,0,1,0,5.964Z" transform="translate(-2902.999 -1101.849)"/><path class="g" d="M3235.36,1461.408H3071.342a2.982,2.982,0,1,1,0-5.964H3235.36a2.982,2.982,0,1,1,0,5.964Z" transform="translate(-3017.534 -1222.634)"/><path class="g" d="M3235.36,1509.86H3071.342a2.982,2.982,0,1,1,0-5.964H3235.36a2.982,2.982,0,1,1,0,5.964Z" transform="translate(-3017.534 -1256.194)"/></g><g transform="translate(209.877 128.829)"><g class="h" transform="translate(0 2.67)"><path class="i" d="M3499.167,839.068h-9.529a7.52,7.52,0,0,1-7.511-7.511v-9.529a7.52,7.52,0,0,1,7.511-7.512h9.529a7.521,7.521,0,0,1,7.512,7.512v9.529A7.521,7.521,0,0,1,3499.167,839.068Zm-9.529-20.25a3.212,3.212,0,0,0-3.208,3.209v9.529a3.212,3.212,0,0,0,3.208,3.208h9.529a3.213,3.213,0,0,0,3.209-3.208v-9.529a3.213,3.213,0,0,0-3.209-3.209Z" transform="translate(-3482.127 -814.515)"/></g><g class="h" transform="translate(0 43.17)"><path class="i" d="M3499.167,970.834h-9.529a7.52,7.52,0,0,1-7.511-7.512v-9.529a7.52,7.52,0,0,1,7.511-7.512h9.529a7.521,7.521,0,0,1,7.512,7.512v9.529A7.521,7.521,0,0,1,3499.167,970.834Zm-9.529-20.25a3.212,3.212,0,0,0-3.208,3.209v9.529a3.212,3.212,0,0,0,3.208,3.209h9.529a3.213,3.213,0,0,0,3.209-3.209v-9.529a3.213,3.213,0,0,0-3.209-3.209Z" transform="translate(-3482.127 -946.281)"/></g><g transform="translate(4.178)"><path class="j" d="M3504.415,827.383l-.089,0a1.846,1.846,0,0,1-1.375-.72l-6.849-8.934a1.844,1.844,0,1,1,2.927-2.244l5.523,7.2,15.19-16.275a1.844,1.844,0,0,1,2.7,2.517L3505.764,826.8A1.846,1.846,0,0,1,3504.415,827.383Z" transform="translate(-3495.721 -805.827)"/></g><g transform="translate(4.178 40.5)"><path class="j" d="M3504.415,959.148l-.089,0a1.844,1.844,0,0,1-1.375-.72l-6.849-8.934a1.844,1.844,0,1,1,2.927-2.244l5.523,7.2,15.19-16.275a1.844,1.844,0,0,1,2.7,2.516l-16.676,17.867A1.846,1.846,0,0,1,3504.415,959.148Z" transform="translate(-3495.721 -937.592)"/></g><g transform="translate(0.307 91.495)"><path class="i" d="M3499.86,1127.444h-9.529a7.212,7.212,0,0,1-7.2-7.2v-9.53a7.212,7.212,0,0,1,7.2-7.2h9.529a7.212,7.212,0,0,1,7.2,7.2v9.53A7.212,7.212,0,0,1,3499.86,1127.444Zm-9.529-20.25a3.52,3.52,0,0,0-3.516,3.516v9.53a3.52,3.52,0,0,0,3.516,3.516h9.529a3.52,3.52,0,0,0,3.516-3.516v-9.53a3.52,3.52,0,0,0-3.516-3.516Z" transform="translate(-3483.127 -1103.506)"/></g><g class="h" transform="translate(0 131.687)"><path class="i" d="M3499.167,1258.824h-9.529a7.52,7.52,0,0,1-7.511-7.512v-9.529a7.52,7.52,0,0,1,7.511-7.512h9.529a7.521,7.521,0,0,1,7.512,7.512v9.529A7.521,7.521,0,0,1,3499.167,1258.824Zm-9.529-20.25a3.212,3.212,0,0,0-3.208,3.209v9.529a3.212,3.212,0,0,0,3.208,3.208h9.529a3.213,3.213,0,0,0,3.209-3.208v-9.529a3.213,3.213,0,0,0-3.209-3.209Z" transform="translate(-3482.127 -1234.271)"/></g><g transform="translate(4.178 88.517)"><path class="j" d="M3504.415,1115.373l-.089,0a1.845,1.845,0,0,1-1.375-.72l-6.849-8.934a1.844,1.844,0,1,1,2.927-2.244l5.523,7.2,15.19-16.275a1.844,1.844,0,0,1,2.7,2.517l-16.676,17.868A1.847,1.847,0,0,1,3504.415,1115.373Z" transform="translate(-3495.721 -1093.818)"/></g><g transform="translate(4.178 129.017)"><path class="j" d="M3504.415,1247.138l-.089,0a1.846,1.846,0,0,1-1.375-.72l-6.849-8.934a1.844,1.844,0,1,1,2.927-2.244l5.523,7.2,15.19-16.275a1.844,1.844,0,0,1,2.7,2.516l-16.676,17.867A1.846,1.846,0,0,1,3504.415,1247.138Z" transform="translate(-3495.721 -1225.582)"/></g></g><path class="d" d="M3134.3,422.2h-71.223a29.278,29.278,0,0,1-29.278-29.278,6.243,6.243,0,0,1,6.242-6.243h117.294a6.243,6.243,0,0,1,6.242,6.243A29.278,29.278,0,0,1,3134.3,422.2Z" transform="translate(-2961.721 -386.682)"/><path class="k" d="M4.258,0H116.251a4.258,4.258,0,0,1,4.258,4.258v0a19.967,19.967,0,0,1-19.967,19.967H19.967A19.967,19.967,0,0,1,0,4.258v0A4.258,4.258,0,0,1,4.258,0Z" transform="translate(78.509 2.22)"/><rect class="g" width="227.148" height="40.701" transform="translate(23.394 41.435)"/><g transform="translate(60.949 51.936)"><path class="f" d="M3002.113,556.712v19.93h-4.524v-19.93Z" transform="translate(-2997.589 -556.387)"/><path class="f" d="M3025,576.642v-19.93h5.264l4.14,7.3a57.867,57.867,0,0,1,3.253,6.831h.088a74.04,74.04,0,0,1-.384-8.309v-5.825h4.14v19.93h-4.732l-4.258-7.688a74.122,74.122,0,0,1-3.459-7.038l-.089.029c.118,2.632.178,5.441.178,8.694v6Z" transform="translate(-3016.578 -556.387)"/><path class="f" d="M3089.8,571.267a11.5,11.5,0,0,0,5,1.242c2.07,0,3.164-.857,3.164-2.159,0-1.242-.946-1.951-3.342-2.809-3.312-1.153-5.47-2.987-5.47-5.884,0-3.4,2.838-6,7.541-6a12.207,12.207,0,0,1,5.086,1.005l-1.005,3.637a9.473,9.473,0,0,0-4.169-.946c-1.952,0-2.9.887-2.9,1.922,0,1.272,1.123,1.833,3.7,2.809,3.519,1.3,5.175,3.134,5.175,5.943,0,3.341-2.572,6.18-8.043,6.18a13.044,13.044,0,0,1-5.648-1.212Z" transform="translate(-3060.822 -555.654)"/><path class="f" d="M3147.759,556.712v11.473c0,3.43,1.3,5.175,3.608,5.175,2.366,0,3.667-1.656,3.667-5.175V556.712h4.495v11.178c0,6.151-3.1,9.078-8.309,9.078-5.027,0-7.984-2.779-7.984-9.137V556.712Z" transform="translate(-3098.469 -556.387)"/><path class="f" d="M3208.94,556.645a39.585,39.585,0,0,1,6-.414c2.957,0,5.027.443,6.446,1.567a5.058,5.058,0,0,1,1.833,4.169,5.288,5.288,0,0,1-3.519,4.909v.089c1.389.562,2.158,1.892,2.661,3.726.621,2.247,1.242,4.85,1.626,5.618h-4.613a24.942,24.942,0,0,1-1.39-4.642c-.532-2.484-1.39-3.164-3.223-3.193h-1.36v7.836h-4.465Zm4.465,8.575h1.774c2.248,0,3.578-1.124,3.578-2.868,0-1.833-1.242-2.75-3.312-2.78a11.249,11.249,0,0,0-2.04.148Z" transform="translate(-3143.979 -556.054)"/><path class="f" d="M3268.227,571.527l-1.419,5.115h-4.672l6.091-19.93h5.914l6.18,19.93h-4.85l-1.538-5.115Zm5.057-3.371-1.242-4.228c-.355-1.183-.709-2.661-1.005-3.845h-.059c-.3,1.183-.591,2.691-.917,3.845l-1.183,4.228Z" transform="translate(-3180.824 -556.387)"/><path class="f" d="M3329.957,576.642v-19.93h5.264l4.139,7.3a57.833,57.833,0,0,1,3.253,6.831h.088a73.922,73.922,0,0,1-.384-8.309v-5.825h4.14v19.93h-4.731l-4.258-7.688a73.888,73.888,0,0,1-3.459-7.038l-.089.029c.118,2.632.177,5.441.177,8.694v6Z" transform="translate(-3227.8 -556.387)"/><path class="f" d="M3408.907,575.347a12.845,12.845,0,0,1-5.116.858c-6.89,0-10.438-4.287-10.438-9.965,0-6.8,4.85-10.586,10.882-10.586a11.75,11.75,0,0,1,4.908.887l-.917,3.578a9.732,9.732,0,0,0-3.785-.739c-3.579,0-6.358,2.159-6.358,6.594,0,3.992,2.366,6.505,6.387,6.505a11.267,11.267,0,0,0,3.755-.65Z" transform="translate(-3271.71 -555.654)"/><path class="f" d="M3465.43,568.215H3458.1v4.731h8.191v3.7h-12.715v-19.93h12.3v3.7H3458.1v4.14h7.333Z" transform="translate(-3313.421 -556.387)"/></g><rect class="l" width="60.992" height="6.66" rx="3.33" transform="translate(133.67 5.55)"/></g><path class="m" d="M3130.1,1664.039c-84.1-17.3-153.933-9.484-178.107-10.957s-164.293-2.97-193.9,7.152,20.774,23.937,79.213,17.523,94.383-5.113,187.419,1.637S3141.593,1666.4,3130.1,1664.039Z" transform="translate(-202.269 -922.183)"/><g transform="translate(2597.889 439.671)"><g transform="translate(0 3.613)"><path class="n" d="M3048.657,873.465c12.624,9.117,39.741,13.091,48.391,13.559s-4.8,24.313-4.8,24.313-23.251,2.805-34.239,0S3048.657,873.465,3048.657,873.465Z" transform="translate(-3007.409 -826.207)"/><path class="o" d="M2951.182,1635.644c.156,6.234,3.709,9.944,9.507,14.26,6.078,4.526,6.39,5.022-2.026,6.134s-10.753-2.706-16.364-4.342-2.026-5.611-2.338-9.351-.843-9.818-.843-9.818Z" transform="translate(-2931.597 -1351.962)"/><path class="o" d="M3112.688,1632.527a94.159,94.159,0,0,0,8.728,8.633c4.987,4.3,17.611,5.769,11.533,7.374s-12.887.738-19.145,1.639-11.713.029-12.18-1.639,0-13.513,0-13.513Z" transform="translate(-3044.011 -1351.962)"/><path class="p" d="M3155.282,739.018c7.823-7.428,22.2,2.041,23.56,8.337,3.488,16.195,5.031,32.94.787,39.519s-42.044,10.717-41.583,8.383.567-16.872,6.828-23.981,3.416-13.976,4.563-20.542C3150.816,742.838,3154.029,740.207,3155.282,739.018Z" transform="translate(-3069.38 -731.2)"/><path class="q" d="M3085.318,899.156c-2.664,18.871-5.236,54.4-12.951,63.054s-12.009,29.278-12.009,29.278,24.932-13.615,35.136-47.089c3.2-10.5-4.61-35.021-6.5-37.359S3085.318,899.156,3085.318,899.156Z" transform="translate(-3015.574 -844.002)"/><g transform="translate(65.403 9.815)"><path class="r" d="M3265.078,1067.8c-1.54,1.871-5.668,10.936-7.762,10.936-7.13,0-7.656,2.8-11.524,4.843-4.967,2.63-3.916,6.663-3.565,6.9s10.921-1.618,14.47-3.93c2.946-1.92,5.04-2.967,6.477-5.07s9.569-8.182,9.569-8.182Z" transform="translate(-3206.712 -970.623)"/><path class="s" d="M3279.654,885.655c7.213,4.357,8.538,8.41,15.629,20.722s8.338,16.754,11.143,21.2,3.74,9.584-2.182,15.2c-5.657,5.359-8.3,7.547-11.4,6.709-2.091-.564-3.743-6.657-6.651-5.553s2.235-7.468,4.884-9.883c1.443-1.316,2.026-1.215,1.559-1.815s-9.351-7.224-16.754-16.809S3279.654,885.655,3279.654,885.655Z" transform="translate(-3228.5 -844.466)"/><g transform="translate(44.846 41.189)"><path class="q" d="M3338.333,1032.761c-3.51-1.576-7.9-1.351-11.117-.74.829.7,1.351,1.13,1.455,1.263.467.6-.116.5-1.559,1.815a15.755,15.755,0,0,0-1.737,1.973,24.991,24.991,0,0,1,7.348-2.792c5.61-.818,5.961.7,8.884,2.572S3344.061,1035.332,3338.333,1032.761Z" transform="translate(-3309.383 -986.714)"/><path class="q" d="M3286.907,892.178a23.085,23.085,0,0,0-7.253-6.523s-11.177,20.176-3.774,29.761a87.849,87.849,0,0,0,7.181,8.133C3283.211,917.092,3283.89,902.656,3286.907,892.178Z" transform="translate(-3273.346 -885.655)"/></g><path class="s" d="M3160.469,863.52c-9.663,2.182-17.46,5.032-19.455,10.637-.968,2.72,4.636,47.612,10.247,52.6,10.829,9.625,28.676.623,28.676.623s8.1-20.182,11.32-54.062c.837-3.057-18.489-9.057-21.606-9.68S3160.469,863.52,3160.469,863.52Z" transform="translate(-3136.766 -829)"/><path class="r" d="M3197.492,1629.138s-13.24,18.326-5.292,17.677,13.138-8.83,13.138-8.83,2.759,9.279,10.707,8.847,3.465-5.293,0-10.968a24.9,24.9,0,0,1-3.447-10.983Z" transform="translate(-3170.535 -1356.482)"/><path class="r" d="M3205.407,815.566a5.979,5.979,0,0,1-5.961-5.961V787.4a5.961,5.961,0,1,1,11.922,0V809.6A5.979,5.979,0,0,1,3205.407,815.566Z" transform="translate(-3177.314 -772.279)"/><path class="t" d="M3205.407,781.435a5.979,5.979,0,0,0-5.961,5.961V797.45a37.076,37.076,0,0,0,11.922,11V787.4A5.979,5.979,0,0,0,3205.407,781.435Z" transform="translate(-3177.314 -772.279)"/><path class="r" d="M3219.873,763.786c1.863,7.944-1.31,15.482-7.087,16.837s-11.971-3.985-13.835-11.93,1.309-15.482,7.087-16.838S3218.009,755.842,3219.873,763.786Z" transform="translate(-3176.601 -751.646)"/><path class="r" d="M3147.86,1044.494s-18.584,14.026-12.623,59.96,12.272,44.531,12.623,66.622,9.818,52.6,15.428,58.557,19.388-25.994,19.388-54.359c0-16.573.008-24.536,3.865-50.484s3.045-63.817-12.383-80.3S3147.86,1044.494,3147.86,1044.494Z" transform="translate(-3132.024 -949.41)"/><path class="t" d="M3168.22,1246.694c-.016-10.87-3.614-33.974-2.8-65.909l-23.7,31.592c5.587,37.4,11.119,37.532,11.447,58.173.266,16.739,5.766,38.306,10.856,50.369,3.308,1.188,5.53,2.581,6.118,4.332a18.757,18.757,0,0,0,1.62,4.018q.167-.109.338-.236c.272-1.957-1.147-11.94-2.7-26.465C3166.772,1278.014,3168.235,1257.564,3168.22,1246.694Z" transform="translate(-3137.331 -1048.884)"/><path class="s" d="M3134.926,1007.619c3.091,18.16,1.235,20.615-3.1,35.693s-4.39,55.051-4.39,55.051,11.747,4.909,34.48,2.805,25.889-4.558,25.889-4.558-2.585-38.922-5.851-50.493-8.374-19.485-8.625-26.924S3134.926,1007.619,3134.926,1007.619Z" transform="translate(-3127.44 -928.943)"/><path class="u" d="M3192.2,1663.631c7.948-.648,13.138-8.83,13.138-8.83s2.759,9.279,10.707,8.847c6.826-.37,4.483-4.009,1.491-8.623-.273,1.037-1.118,2.007-3.361,1.92-4.7-.181-9.105-5.885-9.105-5.885s-8.194,6.312-11.233,5.862,1.479-7.758,1.482-7.763C3191.935,1654.382,3186.372,1664.107,3192.2,1663.631Z" transform="translate(-3170.535 -1373.298)"/></g><g transform="translate(81.854 116.287)"><path class="r" d="M3323.766,1343.838c-.935,10.52.041,18.468-1.85,27.118s-5.867,11.454-5.867,11.454l-3.5-40.443Z" transform="translate(-3272.102 -1266.997)"/><path class="v" d="M3248.949,1130.475c-7.558-16.014-8.3-21.274-3.974-25.014s5.026-8.884,12.156-7.013,9.468,5.961,12.974,7.481,2.806,10.987-1.636,13.559S3248.949,1130.475,3248.949,1130.475Z" transform="translate(-3223.468 -1098.051)"/><path class="w" d="M3225.332,1656.174s-.312,4.856,1.032,7.043,2.338,3.181-2.732,3.281-6.461-1.193-6.859-4.275-.345-4.007.374-5.88S3225.332,1656.174,3225.332,1656.174Z" transform="translate(-3205.595 -1484.136)"/><path class="w" d="M3312.322,1657.941s5.728,5.143,9.117,6.312-1.365,3.74-7.351,2.455-5.506.467-8.545-.935-.254-8.866-.254-8.866Z" transform="translate(-3266.269 -1485.136)"/><path class="u" d="M3280.927,1386.661s0,39.04.467,54.236.781,25.481.478,27.17c-.128.71-6.565-.234-9.371,0s-8.746-34.884-11.211-53.82-3.507-32.729-3.507-32.729Z" transform="translate(-3234.172 -1294.391)"/><path class="x" d="M3261.942,1418.559c1.16,8.914,3.091,21.413,5.1,32.122,2.765-12.207,8.22-33.9,14.56-46.436-.025-7.725-.025-13.272-.025-13.272l-14.532-3.229-8.323,1.55C3259.184,1394.533,3260.213,1405.281,3261.942,1418.559Z" transform="translate(-3234.823 -1298.704)"/><path class="u" d="M3218.229,1370.871c-1.169,19.169-2.982,63.369-2.366,73.171.669,10.637-.674,14.728-.674,14.728a32.134,32.134,0,0,0,6.78,1.4l2.668.3s10.657-28.116,12.761-47.519a161.141,161.141,0,0,1,7.714-34.6Z" transform="translate(-3204.67 -1287.016)"/><path class="y" d="M3324.018,1238.547c9.048,12.151,9.983,36,9.983,36s-3.69,2.805-7.222,1.4S3324.018,1238.547,3324.018,1238.547Z" transform="translate(-3279.999 -1195.364)"/><g transform="translate(10.754 35.463)"><path class="z" d="M3239.562,1214.709c10.753,2.461,15.195,14.85,15.429,24.669s-1.636,36.235-1.636,37.17-21.04,2.805-28.754,1.169l-7.715-1.636s-2.1-39.04,0-48.625,15.9-14.026,15.9-14.026Z" transform="translate(-3215.95 -1213.429)"/></g><g transform="translate(24.632 56.582)"><path class="y" d="M3278.786,1295.115c-.584-3.565,4.185-4.149,6.3-3.857s2.619,2.63,3.507,2.922,2.116-1.073,3.226-.274-.175,3.079-1.578,3.2-2.221-1.267-3.214-.633-.584,1.042-.76,1.042-3.682.409-3.682.409a5.182,5.182,0,0,0-2.572-.877c-1.052.117-.654,1.227-.654,1.227s-1.742-.117-1.333-1.344A10.025,10.025,0,0,1,3278.786,1295.115Z" transform="translate(-3272.781 -1288.411)"/><path class="y" d="M3306.418,1310.565c1.067-1.184,2.163-.059,2.63.35s-.826,1.216-1.87,1.227S3306.418,1310.565,3306.418,1310.565Z" transform="translate(-3292.466 -1301.464)"/><path class="y" d="M3284.047,1312.885c-.117-.876,1.637-.7,2.163,0s-1.169,1.4-1.695,1.227S3284.047,1312.885,3284.047,1312.885Z" transform="translate(-3276.991 -1303.025)"/><path class="y" d="M3265.238,1301.547c-.117-.35-4.617-2.221-4.091-3.916s3.507,1.958,3.507,1.958-2.046-4.471-.994-4.822,1.461,2.805,1.578,3.741A24.893,24.893,0,0,1,3265.238,1301.547Z" transform="translate(-3261.104 -1290.868)"/><path class="y" d="M3315.375,1285.281s.311-3.8,1.6-3.039-.8,3.039-.8,3.039,2.668-2.1,3.312-.935-4.11,1.668-4.11,1.668Z" transform="translate(-3298.694 -1282.141)"/></g><path class="y" d="M3226.014,1279.218c.946-11.923,3.5-28.521-3.751-40.443l-1.939-.228a13.841,13.841,0,0,0-3.437,6.306c-2.1,9.585,0,48.625,0,48.625l7.715,1.636c.35.074.728.141,1.13.2A125.851,125.851,0,0,1,3226.014,1279.218Z" transform="translate(-3205.197 -1195.364)"/><path class="r" d="M3269.6,1189.77a5.744,5.744,0,0,1-5.728-5.728v-10.52a5.727,5.727,0,1,1,11.455,0v10.52C3276.152,1189.541,3273.289,1190.242,3269.6,1189.77Z" transform="translate(-3238.386 -1146.358)"/><path class="t" d="M3275.322,1184.5v-13.9a2.813,2.813,0,0,0-2.805-2.805h-5.844a2.814,2.814,0,0,0-2.805,2.805v8.919C3268.409,1183.627,3272.553,1184.518,3275.322,1184.5Z" transform="translate(-3238.386 -1146.358)"/><path class="aa" d="M3283.521,1135.469c1.043,7.526-2.777,14.273-8.532,15.071s-11.266-4.658-12.308-12.183,2.777-14.273,8.532-15.07S3282.478,1127.944,3283.521,1135.469Z" transform="translate(-3237.445 -1115.476)"/><path class="aa" d="M3202.609,1239.29c-10.481,4.676-11.416,38.573-11.883,43.715s2.1,22.676,3.507,27.351,5.369,8.382,5.579,2.562-1.372-8.874-1.372-8.874,2.1,4.442,2.806,2.1-3.04-5.844-3.04-7.948,3.04-14.494,3.04-18.468,5.844-16.832,5.844-27.352S3202.609,1239.29,3202.609,1239.29Z" transform="translate(-3187.687 -1195.878)"/><path class="z" d="M3199.424,1228.882c-9.577,3.9-12.494,15.122-15.478,25.875l-2.983,10.753s15.663,5.544,16.6,4.876,4.441-20.071,4.208-28.019A45.211,45.211,0,0,0,3199.424,1228.882Z" transform="translate(-3180.964 -1188.669)"/><path class="aa" d="M3258.993,1167.239c.706,1.858.259,3.75-1,4.227s-2.846-.643-3.551-2.5-.259-3.75,1-4.227S3258.289,1165.381,3258.993,1167.239Z" transform="translate(-3231.628 -1144.165)"/><path class="v" d="M3254.806,1130.306s2.911,9.024,3.5,5.739-.345-4.8,1.876-5.739-.7-7.247,2.455-6.662,5.728,4.4,10.52,3.483,6.779-1.964,4.792-4.652-18.352-5.26-18.352-5.26l-6.957,7.969Z" transform="translate(-3230.611 -1111.324)"/><path class="x" d="M3305.543,1680.2c3.039,1.4,2.56-.351,8.546.935s11.468-1.87,8.079-3.04c-.08-.027-.163-.059-.246-.089a16.816,16.816,0,0,0-2.665,1.726c-.779.623-2.805.156-5.592-.312s-2.3.338-2.979-.389a10.306,10.306,0,0,0-6.54-2.644C3304.034,1678.055,3304.306,1679.63,3305.543,1680.2Z" transform="translate(-3266.269 -1498.629)"/><path class="x" d="M3215.592,1663.98c2.494,5.08,1.3,5.986,3.408,6.339s2.817-1.289,5.065-.5,1.941.779,2.451,1.4.276,1.384-.659,1.628a35.491,35.491,0,0,1-7.636,0c-1.87-.3-3.117-3.8-3.039-5.051S3215.592,1663.98,3215.592,1663.98Z" transform="translate(-3204.662 -1490.035)"/></g><path class="p" d="M3005.961,752.021c-3.692-5.187-7.4-19.3-4.1-20.744s2.473-3.709,5.77-7.933,16.587-5.872,20.5,1.236,5.593,7.83,5.733,11.642-9.236,13.29-9.236,13.29Z" transform="translate(-2974.169 -719.712)"/><path class="r" d="M3260.182,1094.231c-1.076,1.613-2.1,2.811-2.866,2.811-7.13,0-7.656,2.8-11.524,4.843-4.967,2.63-3.916,6.663-3.565,6.9s10.921-1.618,14.47-3.93c2.946-1.919,5.04-2.967,6.477-5.07a11.2,11.2,0,0,1,1.455-1.572A32.781,32.781,0,0,1,3260.182,1094.231Z" transform="translate(-3141.309 -979.118)"/><path class="r" d="M2978.314,765.463s-2.338,28.78-7.481,31.923-14.961,14.832-13.559,40.079,3.272,36.138,5.143,45.888,36.936,3.809,40.677,0,7.948-38.64,0-56.29-16.832-27.625-17.767-31.989,5.143-21.9,5.143-21.9Z" transform="translate(-2944.08 -751.401)"/><path class="t" d="M3029.4,794.13c-.118-5.5,5.238-20.953,5.238-20.953l-12.156-7.715s-.51,6.274-1.577,13.283C3022.48,788.49,3025.637,792.23,3029.4,794.13Z" transform="translate(-2988.246 -751.401)"/><path class="r" d="M3048.11,760.538c1.171,8.454-1.741,15.073-7.828,15.916s-13.044-4.408-14.215-12.862,2.814-15.991,8.9-16.835S3046.939,752.084,3048.11,760.538Z" transform="translate(-2991.681 -738.391)"/><path class="r" d="M3309.292,896.4c3.58,2.224,6.308,7.792,4.741,12.312s-3.738-1.28-6.123-4.6S3306.614,894.741,3309.292,896.4Z" transform="translate(-3186.125 -841.9)"/><path class="u" d="M3039.7,1087.142c-2.454,29.522,5.846,96.145,5.9,111.222s6.079,56.307,6.079,56.307-9.818,2.821-13.675,3.148-15-37.365-16.646-57.351-12.074-55.456-12.074-55.456l3.571-60.853Z" transform="translate(-2980.2 -972.142)"/><path class="x" d="M3039.7,1087.142l-26.841-2.983-3.571,60.853s10.425,35.469,12.074,55.456c.021.26.045.525.07.793.2-30.8,9.157-44.177,18.621-76.794C3039.237,1110.141,3038.9,1096.7,3039.7,1087.142Z" transform="translate(-2980.2 -972.142)"/><path class="u" d="M2973.1,1111.265c-12.623,42.779-24.194,83.1-31.909,109.752s-5.4,54.043-5.4,54.043l-12.974,1.035s-14.591-43.926-4.772-67.7,5.148-38.1,7.012-60.311c2.1-25.058,5.642-43.368,5.642-43.368Z" transform="translate(-2914.652 -986.38)"/><path class="j" d="M2997.923,897.546a167.258,167.258,0,0,0-12.238-22.114,47.433,47.433,0,0,0-5.611-.446c-3.618-.072-9.917-4.714-13.674-7.763a3.292,3.292,0,0,1-.738.646c-5.143,3.143-14.961,14.832-13.558,40.079s-3.9,33.869-2.026,43.619,44.1,6.078,47.846,2.269S3005.871,915.2,2997.923,897.546Z" transform="translate(-2938.908 -821.884)"/><path class="j" d="M2991.11,846.435l-3.8,10.014,24.057,9.779,2.778-2.385s-3.713-5.408-2.778-8.68,2.026-4.208,0-4.988-9.231-2.026-13.732-3.74S2991.892,844.372,2991.11,846.435Z" transform="translate(-2964.98 -806.502)"/><path class="n" d="M3014.287,944.785c-.478-7.516-1.775-14.841-4.3-20.438-.929-2.063-1.871-4.014-2.811-5.87l-3.034-1.317s-16.832-13.438-27.819-10.931-11.455,43.437-5.143,47.923,25.248-6.9,31.092-7.893C3006.072,945.616,3011.174,945.081,3014.287,944.785Z" transform="translate(-2950.977 -848.685)"/><path class="j" d="M3063.675,931.79c-6.867-.012-13.9-.585-19.723-2.372-17.533-5.377-50.352-18.816-56.807-17.937-5.06.69-10.987,6.248-10.286,23.548s9.585,13.793,20.68,10.954,26.068-1.1,46.413,0a78.3,78.3,0,0,0,21.416-2.371C3064.99,939.649,3064.413,935.722,3063.675,931.79Z" transform="translate(-2957.7 -852.51)"/><path class="r" d="M3294.321,980.964c-1.188-.645-11.3-.117-20.976-.364.6,3.377,2.167,8.967,2.529,12.378a84.91,84.91,0,0,1,18.643-3.319S3296.475,982.133,3294.321,980.964Z" transform="translate(-3163.097 -900.414)"/><path class="j" d="M3124.252,968.735c6.2.1,16.479-.674,17.893.264s3.916,11.952-1.038,13.359c-18.112,5.143-38.451,1.446-62.763-.212s27.535-16.268,27.535-16.268S3119.093,968.653,3124.252,968.735Z" transform="translate(-3023.537 -890.216)"/><path class="p" d="M3012.088,762.3c4.129-2.04,2.077-6.006,2.438-8.636s-.788-4.735.2-4.558.765,10.094,2.009,10.029.782-7.482,2.095-7.688,1.828-2.053.8-5.3-.206-6.134,2.576-3.558,8.963,8.551,12.569,7.727a3.987,3.987,0,0,0,3.091-4.945c-.309-.412-9.581-10.818-9.581-10.818l-18.339,10.509-.515,9.581Z" transform="translate(-2980.296 -729.988)"/><path class="r" d="M3018.142,782.8c.248,2.491.331,6.269.548,6.811-1.634.666-3.725-.672-4.671-2.991s-.858-5.36.8-5.974C3015.845,780.264,3017.854,779.9,3018.142,782.8Z" transform="translate(-2983.058 -761.74)"/><path class="p" d="M3181.29,753.815c-2.6,8.416-17.094,8.533-17.8,10.87s-.217,9.646-2.338,15.429c-3.39,9.24-5.567,14.066-10.286,15.468s-6.7-6.415-6.7-6.415,8.458-11.157,8.926-11.391,4.919-28.754,4.919-28.754,11.328-2.078,11.913-2.383,8.766,3.319,8.766,3.319Z" transform="translate(-3073.622 -738.35)"/></g><path class="r" d="M3306.593,971.187c1.8,0,11.038-5.17,12.791-5.332s8.65,1.716,8.65,1.716-13.3,10.313-13.548,10.179S3306.593,971.187,3306.593,971.187Z" transform="translate(-3186.125 -886.581)"/><path class="t" d="M3366.779,990.291l-10.05-.979s-5.381,4.766-10.286,5.874-8.883-4.145-8.883-4.145l7.615-8.926L3358.6,980.6l10.169,1.04Z" transform="translate(-3207.573 -896.801)"/><path class="r" d="M3323.847,987.562s6.2,5,11.461,5.711,8.183-1.846,10.053-3.574-3.974-3.5-6.079-5.565-.584-5.471-.584-5.471h-9.188Z" transform="translate(-3198.076 -895.458)"/><path class="t" d="M3371.081,970.363l-10.167-1.116s-4.208-3.715-6.312-3.409-7.489,4.525-7.489,4.525-4.61,4.313-3,4.781,6.283-.893,6.868-1.966-1.169.372,4.091,0,5.845-1.3,5.845-1.3l10.167.812Z" transform="translate(-3211.876 -886.563)"/><path class="t" d="M3333.209,1010.86c1.329-2.045,3.183-3.26,6.464-1.448s4.237,4.364,3.632,5.117-6.788-1.251-9.1-1.95C3332.4,1012.037,3333.209,1010.86,3333.209,1010.86Z" transform="translate(-3204.436 -916.144)"/><g transform="translate(149.854)"><path class="p" d="M3675.332,740.937c1.765-6.65,6.6-22.695-1.093-26.211s-11.539-8.682-19.231-6.044-6.154,8.682-8.9,11.979,1.868,14.066,6.264,17.913S3675.332,740.937,3675.332,740.937Z" transform="translate(-3570.566 -707.958)"/><path class="ab" d="M3411.456,977.251l-6.476-.281-2.781,12.559,10.885,2.051Z" transform="translate(-3402.199 -894.286)"/><path class="p" d="M3523.606,898.367c10.168,14.289,3.974,25.213-8.708,34.478S3472.363,945,3459.74,945.559s-44.184-9.13-44.184-9.13l1.948-13.9s29.885,2.854,41.456.869,52.6-25.028,52.6-25.028Z" transform="translate(-3411.451 -839.843)"/><path class="ac" d="M3574.7,919.086c-3.624,1.938-7.806,4.138-12.121,6.334-4.191,10.9-5.368,22.085-25.7,29.5a89.691,89.691,0,0,1-13.328,3.739,48.788,48.788,0,0,0,10.99,1.248c9.15-.4,29.717.767,43.872-3.629C3577.987,945.4,3575.056,928.194,3574.7,919.086Z" transform="translate(-3486.252 -854.193)"/><path class="r" d="M3710.225,771l7.714,25.058-15.9,19.559,4.675-16.8-4.675-17.183Z" transform="translate(-3609.882 -751.622)"/><path class="t" d="M3710.225,771l-8.182,10.636,4.649,17.085a58.671,58.671,0,0,0,6.638-17.635Z" transform="translate(-3609.882 -751.622)"/><path class="r" d="M3677.036,761.132c-2.658,8.273-9.8,13.376-15.959,11.4s-8.992-10.288-6.334-18.561,9.8-13.376,15.959-11.4S3679.693,752.86,3677.036,761.132Z" transform="translate(-3576.429 -731.638)"/><path class="j" d="M3671.479,885.593s-4.7,2.805-4.688,4.987,0,3.429,0,3.429a86.425,86.425,0,0,0-7.156,14.158c-3.118,7.973-2.955,12.025-2.955,12.025l19.762-30.073Z" transform="translate(-3578.462 -830.995)"/><path class="ac" d="M3753.063,1650.014c-.156,6.234-7.032,10.636-10.293,12.292-10.229,5.193-12,8.438-.779,8.273,8.488-.125,14.338-3.442,23.533-4.065,5.832-.4,1.63-6.874,1.942-10.614s-2.338-9-2.338-9Z" transform="translate(-3632.23 -1358.303)"/><path class="ac" d="M3583.864,1646.9a48.566,48.566,0,0,1-7.053,7.146c-4.987,4.3-22.566,4.446-13.208,8.86,5.685,2.682,16.152.739,22.411,1.639s11.713.029,12.18-1.639-1.282-13.065-1.282-13.065Z" transform="translate(-3512.124 -1358.303)"/><path class="p" d="M3632.83,1101.513c2.455,29.521-5.846,96.144-5.9,111.221s-8.578,58.93-8.578,58.93,16.448,6.676,20.306,7,12.03-38.249,13.679-58.235,10.909-61.049,10.909-61.049l-3.57-60.852Z" transform="translate(-3551.912 -978.483)"/><path class="ac" d="M3676.57,1327.952c1.02-6.245,1.808-12.219,2.21-17.088,1.649-19.986,10.909-61.049,10.909-61.049l-1.191-20.3-29.564-.421c-.615,10.864-1.51,22.241-2.4,32.82C3667.887,1286.67,3673.815,1312.754,3676.57,1327.952Z" transform="translate(-3578.359 -1068.915)"/><path class="p" d="M3668.886,1115.682c11.435,61.956,19.854,86.592,27.569,113.241s5.957,54.028,5.957,54.028l21.389,2.73s8.362-48.5.137-72.871c-5.046-14.952-1.707-35.208-3.572-57.421-2.1-25.058-3.928-50.675-3.928-50.675Z" transform="translate(-3586.917 -982.767)"/><path class="ac" d="M3730.152,1210.766l-36.964,15.965c.166.764-.165,4.532,0,5.28,18.105,1.509,29.561-.206,44.391,3.381-.34-4.347-1.031-14.59-1.32-18.994Z" transform="translate(-3603.716 -1056.222)"/><path class="p" d="M3686.339,859.956c15.429,14.595,21.041,30.022,20.521,38.5-1.052,17.161,2.214,83.152,2.214,83.152s-9.064,2.064-24.251,4.84-29.84-1.284-29.84-1.284-2.569-47.146-2.45-76.753C3652.6,890.36,3686.339,859.956,3686.339,859.956Z" transform="translate(-3575.587 -813.238)"/><path class="ac" d="M3754.318,1022.156c.4-7.8,3.192-62.734,2.758-63.6-.467-.935-18.234-42.393-18.234-42.393-9.507,12.938-10.107,39.9-9.963,54.394.13,13.058,4.063,48.509,4.84,55.4,1.314-.146,2.643-.336,3.976-.579C3744.388,1024.154,3750.063,1023.03,3754.318,1022.156Z" transform="translate(-3628.459 -852.167)"/><path class="ab" d="M3717.488,834.062l-2.961-5.767-14.416,11.689L3699.254,856Z" transform="translate(-3607.95 -791.308)"/><path class="ac" d="M3682.636,867.976s5.88-2.7,11.3-.822a79.994,79.994,0,0,0-7.587-8.571s-33.734,30.4-33.807,48.454c-.018,4.412.09,8.882.286,13.3.111-9.043-1.2-15.578,7.682-27.382,7.868-10.463,24.625-19.054,24.625-19.054Z" transform="translate(-3575.592 -812.287)"/><path class="p" d="M3683.929,842.386l4.24,8.1L3677.683,858l2.817,4.675s-12.641,8.04-17.936,12.156c-8.871,6.9-11.988,23.222-11.988,23.222s1.247-16.324,11.988-29.861C3672.387,855.816,3683.929,842.386,3683.929,842.386Z" transform="translate(-3574.235 -801.068)"/><path class="e" d="M3709.962,1258.473l44.97,5.454-3.046,29.767-42.77-4.383Z" transform="translate(-3614.781 -1089.266)"/><path class="r" d="M3769.963,1193.463l-4.52,16.575-6.858,4.629,5.553.9s-1.005,9.855-2.89,14.335.142,5.973,7.779.747,9.754-7.765,9.241-13.887-1.916-6.867-1.137-11.945-7.325-12.394-7.325-12.394Z" transform="translate(-3649.046 -1043.513)"/><path class="ab" d="M3776.392,1223.007l-1.559,8.512,14.781,2.389,2.448-10.9Z" transform="translate(-3660.3 -1064.701)"/><path class="p" d="M3761.885,896.988c5.572,2.29,12.663,22.6,23.032,58.788,2.506,8.745-11.433,48.314-11.433,48.314s-17.807-1.135-18.028-3.992c-.127-1.638,7.831-33.042,6.779-36.066s-7.192-12.248-12.456-32.842S3751.733,892.818,3761.885,896.988Z" transform="translate(-3641.722 -838.464)"/><path class="p" d="M3655.219,730.824c-5.521,13.847,6.469,12.418,11.513,8.132s5.7-.582,5.594,4.506c-.1,4.775,1.812,1.284,1.373,6.669s-.787,5.639.981,3.771S3677,745.22,3677,745.22s-.413,8.82,2.107,9.423,2.125-.684,2.125-.684l.568-14.782-11.112-12.418s-14.255.11-14.27.55A36.108,36.108,0,0,1,3655.219,730.824Z" transform="translate(-3576.466 -720.98)"/><path class="r" d="M3727.79,782.237c1.711-3.736,5.48-1.977,4.475,2.418a6.112,6.112,0,0,1-5.139,4.792Z" transform="translate(-3627.255 -757.996)"/></g></g><g transform="translate(2484.954 320.618)"><path class="d" d="M2609.637,332.043c22.636,0,52.377-8.516,61.564-11.323a2.124,2.124,0,0,1,2.825,1.868v62.964c0,48.653-63.4,88.094-63.4,88.094s-63.4-39.441-63.4-88.094V325.508a2.112,2.112,0,0,1,2.689-1.9C2558.65,325.7,2587.007,332.043,2609.637,332.043Z" transform="translate(-2547.218 -320.618)"/><path class="g" d="M2628.552,368.148c16.983,0,38.1-5.57,48.7-9.964,3.165-1.311,6.746.809,6.746,3.993V412.7c0,42.547-55.447,77.039-55.447,77.039S2573.1,455.251,2573.1,412.7V364.374c0-3.057,3.325-5.171,6.449-4.105C2590.059,363.852,2611.41,368.148,2628.552,368.148Z" transform="translate(-2565.148 -346.365)"/><path class="k" d="M2656.033,416.911v94.445s-44.1-28.1-44.1-61.489V411.594a3.449,3.449,0,0,1,4.708-2.979C2624.879,411.476,2642.329,416.911,2656.033,416.911Z" transform="translate(-2592.043 -381.422)"/><path class="k" d="M2755.408,416.708v94.445s45.672-28.1,45.672-61.489V411.3a3.444,3.444,0,0,0-4.652-3C2787.882,411.135,2769.286,416.708,2755.408,416.708Z" transform="translate(-2691.418 -381.22)"/></g></g></svg>