<svg xmlns="http://www.w3.org/2000/svg" width="47.865" height="47.865" viewBox="0 0 47.865 47.865"><defs><style>.a{fill:#323131;}</style></defs><g transform="translate(0 0)"><g transform="translate(0 0)"><path class="a" d="M41.8,23.372a.935.935,0,0,0,1.22-.09l4.57-4.58a.935.935,0,0,0-.1-1.411l-4.672-3.475V4.488a.935.935,0,0,0-.935-.935H35.9a.935.935,0,0,0-.935.935V7.976L24.49.186a.935.935,0,0,0-1.116,0L15.188,6.275a.935.935,0,0,0,1.116,1.5L23.932,2.1,45.5,18.148,42.269,21.39,24.49,8.165a.935.935,0,0,0-1.116,0L5.6,21.39,2.36,18.148l8.383-6.236a.935.935,0,0,0-1.116-1.5L.376,17.293a.935.935,0,0,0-.1,1.411l4.57,4.58a.935.935,0,0,0,1.22.09l.668-.5v7.415H1.869A1.872,1.872,0,0,0,0,32.16V46a1.872,1.872,0,0,0,1.87,1.87H8.226a1.871,1.871,0,0,0,1.846-1.585l4.348,1.532a.934.934,0,0,0,.311.053H28.08A6.545,6.545,0,0,0,32.3,46.319l10.112-8.558a3.791,3.791,0,0,0-1.282-6.5V22.875Zm-.855-10.945-4.113-3.06V5.423h4.113ZM8.226,46H1.869V32.16H4.113v6.918a.935.935,0,0,0,1.87,0V32.16H8.226v.747h0V44.927c0,.022,0,.043,0,.065v1ZM41.368,33.551a1.922,1.922,0,0,1-.161,2.782L31.095,44.892A4.673,4.673,0,0,1,28.08,46H14.89L10.1,44.307V33.843h6.858a4.652,4.652,0,0,1,2.589.784L25.8,38.8a1.219,1.219,0,0,1-1.2,2.115l-5.351-2.556a.935.935,0,1,0-.806,1.687L23.789,42.6a3.089,3.089,0,0,0,3.045-5.358L20.58,33.071a6.517,6.517,0,0,0-3.626-1.1H10.087A1.874,1.874,0,0,0,8.6,30.328V21.485l15.332-11.4,15.332,11.4V31.14h0a3.776,3.776,0,0,0-1.739.823l-7.442,6.255a.935.935,0,1,0,1.2,1.431l7.442-6.255A1.923,1.923,0,0,1,41.368,33.551Z" transform="translate(0 -0.001)"/></g><g transform="translate(12.114 8.096)"><g transform="translate(0)"><path class="a" d="M131.176,86.875a.934.934,0,1,0,.274.661A.942.942,0,0,0,131.176,86.875Z" transform="translate(-129.58 -86.601)"/></g></g><g transform="translate(19.892 17.945)"><g transform="translate(0)"><path class="a" d="M220.392,192.072a.935.935,0,0,0-1.274.355l-6.221,11.02a.935.935,0,1,0,1.628.919l6.221-11.02A.935.935,0,0,0,220.392,192.072Z" transform="translate(-212.776 -191.951)"/></g></g><g transform="translate(24.872 25.139)"><g transform="translate(0)"><path class="a" d="M269.226,268.907a3.179,3.179,0,1,0,3.179,3.179A3.182,3.182,0,0,0,269.226,268.907Zm0,4.487a1.309,1.309,0,1,1,1.309-1.309A1.31,1.31,0,0,1,269.226,273.394Z" transform="translate(-266.048 -268.907)"/></g></g><g transform="translate(16.646 16.081)"><g transform="translate(0)"><path class="a" d="M181.232,172.012a3.179,3.179,0,1,0,3.179,3.179A3.182,3.182,0,0,0,181.232,172.012Zm0,4.487a1.309,1.309,0,1,1,1.309-1.309A1.31,1.31,0,0,1,181.232,176.5Z" transform="translate(-178.053 -172.012)"/></g></g><g transform="translate(4.16 41.835)"><path class="a" d="M46.1,447.775a.934.934,0,1,0,.274.661A.942.942,0,0,0,46.1,447.775Z" transform="translate(-44.5 -447.501)"/></g></g></svg>