<svg xmlns="http://www.w3.org/2000/svg" width="39.113" height="39.111" viewBox="0 0 39.113 39.111"><g transform="translate(-0.001)"><path d="M15.778,5a9.778,9.778,0,1,0,9.778,9.778A9.788,9.788,0,0,0,15.778,5Zm-.2,8.556h.407A3.048,3.048,0,0,1,17,19.479v.595a1.222,1.222,0,0,1-2.444,0v-.407h-.815a1.222,1.222,0,1,1,0-2.444h2.241a.611.611,0,1,0,0-1.222h-.407a3.048,3.048,0,0,1-1.019-5.924V9.481a1.222,1.222,0,1,1,2.444,0v.407h.815a1.222,1.222,0,1,1,0,2.444H15.574a.611.611,0,1,0,0,1.222Z" transform="translate(3.777 3.148)"/><path d="M29.519,10.272A1.223,1.223,0,0,0,28.3,11.494a15.534,15.534,0,0,1-11.9,15.074V25.044a1.222,1.222,0,0,0-2.086-.864l-3.189,3.188a1.223,1.223,0,0,0,0,1.729l3.189,3.188a1.222,1.222,0,0,0,2.086-.864V29.089A17.991,17.991,0,0,0,30.742,11.494a1.223,1.223,0,0,0-1.222-1.222Z" transform="translate(6.775 6.467)"/><path d="M14.379,30.047A15.472,15.472,0,0,1,5,10.068l1.465.844A1.224,1.224,0,0,0,8.262,9.536L7.023,4.918a1.224,1.224,0,0,0-1.5-.864L.9,5.291A1.223,1.223,0,0,0,.611,7.53l2.247,1.3A17.934,17.934,0,0,0,13.573,32.354a1.222,1.222,0,1,0,.807-2.308Z" transform="translate(0 2.528)"/><path d="M34.481,8.013l-2.629.7A18.091,18.091,0,0,0,16.463,0a17.537,17.537,0,0,0-11.1,3.888A1.223,1.223,0,0,0,6.9,5.795a15.107,15.107,0,0,1,9.564-3.35A15.618,15.618,0,0,1,29.372,9.38l-1.424.381A1.223,1.223,0,0,0,27.652,12l4.141,2.392a1.22,1.22,0,0,0,1.669-.448L35.856,9.8a1.223,1.223,0,0,0-1.375-1.791Z" transform="translate(3.092)"/></g></svg>