<svg xmlns="http://www.w3.org/2000/svg" width="54.386" height="47.8" viewBox="0 0 54.386 47.8"><defs><style>.a{fill:#fff;}</style></defs><g transform="translate(0 -31)"><g transform="translate(0 31)"><path class="a" d="M50.4,38.967H38.346V34.983A3.988,3.988,0,0,0,34.363,31H20.023a3.988,3.988,0,0,0-3.983,3.983v4.78a.8.8,0,0,0,.8.8H50.4a2.393,2.393,0,0,1,2.39,2.39V62.07a2.393,2.393,0,0,1-2.39,2.39H34.225a2.385,2.385,0,0,0-1.455-3.05V54.1a.8.8,0,0,0-.8-.8h-9.56a.8.8,0,0,0-.8.8V61.41a2.385,2.385,0,0,0-1.455,3.05H3.983a2.393,2.393,0,0,1-2.39-2.39V42.95a2.393,2.393,0,0,1,2.39-2.39H13.65a.8.8,0,0,0,0-1.593H3.983A3.988,3.988,0,0,0,0,42.95V62.07a3.98,3.98,0,0,0,1.593,3.185v9.562A3.988,3.988,0,0,0,5.577,78.8H48.809a3.988,3.988,0,0,0,3.983-3.983V65.255a3.979,3.979,0,0,0,1.593-3.185V42.95A3.988,3.988,0,0,0,50.4,38.967Zm-16.836,0H20.82V37.373H33.566Zm3.187,0H35.16v-2.39a.8.8,0,0,0-.8-.8H20.023a.8.8,0,0,0-.8.8v2.39H17.633V34.983a2.393,2.393,0,0,1,2.39-2.39h14.34a2.393,2.393,0,0,1,2.39,2.39ZM31.176,54.9v6.373H23.21V54.9Zm-9.56,8.763a.8.8,0,0,1,.8-.8h9.56a.8.8,0,1,1,0,1.593h-9.56A.8.8,0,0,1,21.616,63.663Zm1.593,2.39h7.967v3.983a3.983,3.983,0,1,1-7.967,0ZM3.187,74.817V65.973a3.986,3.986,0,0,0,.8.08H7.967v8.763a3.962,3.962,0,0,0,.8,2.39H5.577a2.393,2.393,0,0,1-2.39-2.39Zm8.763,2.39a2.393,2.393,0,0,1-2.39-2.39V66.053H21.616v3.983a5.577,5.577,0,1,0,11.153,0V66.053H44.826v8.763a2.393,2.393,0,0,1-2.39,2.39ZM51.2,74.817a2.393,2.393,0,0,1-2.39,2.39H45.62a3.962,3.962,0,0,0,.8-2.39V66.053H50.4a3.986,3.986,0,0,0,.8-.08Z" transform="translate(0 -31)"/><path class="a" d="M236.5,382a3,3,0,1,0-3-3A3,3,0,0,0,236.5,382Zm0-4a1,1,0,1,1-1,1A1,1,0,0,1,236.5,378Z" transform="translate(-209.307 -346.2)"/></g></g></svg>