<svg xmlns="http://www.w3.org/2000/svg" width="34.109" height="47.2" viewBox="0 0 34.109 47.2"><defs><style>.a{fill:#fff;}</style></defs><g transform="translate(-71)"><path class="a" d="M101.468,0H74.641q-.089,0-.177,0h0A3.614,3.614,0,0,0,71,3.6V35.633a.691.691,0,0,0,1.383,0V3.6A2.241,2.241,0,0,1,74.529,1.37h0l.112,0h26.827A2.249,2.249,0,0,1,103.727,3.6V7.718a.691.691,0,0,0,1.383,0V3.6A3.626,3.626,0,0,0,101.468,0Z" transform="translate(0)"/><path class="a" d="M104.418,112.144a.688.688,0,0,0-.691.684v32.181a2.234,2.234,0,0,1-2.036,2.224h0c-.073.007-.148.011-.222.011H74.641a2.249,2.249,0,0,1-2.259-2.234v-4.26a.691.691,0,0,0-1.383,0v4.26a3.626,3.626,0,0,0,3.641,3.6h26.827c.119,0,.239-.006.356-.017h0a3.6,3.6,0,0,0,3.285-3.585V112.828A.688.688,0,0,0,104.418,112.144Z" transform="translate(0 -101.411)"/><path class="a" d="M142.244,46.151a2.292,2.292,0,0,0-2.23-2.345H119.155a2.292,2.292,0,0,0-2.23,2.345V54.58a2.292,2.292,0,0,0,2.23,2.345h20.859a2.292,2.292,0,0,0,2.23-2.345Zm-1.365,8.429a.889.889,0,0,1-.865.909H119.155a.889.889,0,0,1-.865-.909V46.151a.889.889,0,0,1,.865-.909h20.859a.889.889,0,0,1,.865.909Z" transform="translate(-41.53 -39.614)"/><path class="a" d="M340.3,208.792a1.293,1.293,0,0,0-1.292-1.292h-3.213a1.293,1.293,0,0,0-1.292,1.292v2.019a1.293,1.293,0,0,0,1.292,1.292h3.213a1.293,1.293,0,0,0,1.292-1.292Zm-1.436,1.875h-2.926v-1.732h2.926Z" transform="translate(-239.583 -188.447)"/><path class="a" d="M116.925,416.086a1.293,1.293,0,0,0,1.292,1.292h2.974a1.293,1.293,0,0,0,1.292-1.292v-2.794A1.293,1.293,0,0,0,121.191,412h-2.974a1.293,1.293,0,0,0-1.292,1.292Zm1.436-2.65h2.687v2.507h-2.687Z" transform="translate(-41.53 -374.37)"/><path class="a" d="M192.057,412h-2.974a1.293,1.293,0,0,0-1.292,1.292v2.794a1.293,1.293,0,0,0,1.292,1.292h2.974a1.293,1.293,0,0,0,1.292-1.292v-2.794A1.293,1.293,0,0,0,192.057,412Zm-.144,3.942h-2.687v-2.507h2.687Z" transform="translate(-106.101 -374.37)"/><path class="a" d="M262.923,412h-2.974a1.293,1.293,0,0,0-1.292,1.292v2.794a1.293,1.293,0,0,0,1.292,1.292h2.974a1.293,1.293,0,0,0,1.292-1.292v-2.794A1.293,1.293,0,0,0,262.923,412Zm-.144,3.942h-2.687v-2.507h2.687Z" transform="translate(-170.48 -374.37)"/><path class="a" d="M116.925,345.22a1.293,1.293,0,0,0,1.292,1.292h2.974a1.293,1.293,0,0,0,1.292-1.292v-2.794a1.293,1.293,0,0,0-1.292-1.292h-2.974a1.293,1.293,0,0,0-1.292,1.292Zm1.436-2.65h2.687v2.507h-2.687Z" transform="translate(-41.53 -309.834)"/><path class="a" d="M193.349,342.426a1.293,1.293,0,0,0-1.292-1.292h-2.974a1.293,1.293,0,0,0-1.292,1.292v2.794a1.293,1.293,0,0,0,1.292,1.292h2.974a1.293,1.293,0,0,0,1.292-1.292Zm-1.436,2.65h-2.687V342.57h2.687Z" transform="translate(-106.101 -309.834)"/><path class="a" d="M264.215,342.426a1.293,1.293,0,0,0-1.292-1.292h-2.974a1.293,1.293,0,0,0-1.292,1.292v2.794a1.293,1.293,0,0,0,1.292,1.292h2.974a1.293,1.293,0,0,0,1.292-1.292Zm-1.436,2.65h-2.687V342.57h2.687Z" transform="translate(-170.48 -309.834)"/><path class="a" d="M116.925,274.354a1.293,1.293,0,0,0,1.292,1.292h2.974a1.293,1.293,0,0,0,1.292-1.292V271.56a1.293,1.293,0,0,0-1.292-1.292h-2.974a1.293,1.293,0,0,0-1.292,1.292Zm1.436-2.65h2.687v2.507h-2.687Z" transform="translate(-41.53 -245.47)"/><path class="a" d="M193.349,271.56a1.293,1.293,0,0,0-1.292-1.292h-2.974a1.293,1.293,0,0,0-1.292,1.292v2.794a1.293,1.293,0,0,0,1.292,1.292h2.974a1.293,1.293,0,0,0,1.292-1.292Zm-1.436,2.65h-2.687V271.7h2.687Z" transform="translate(-106.101 -245.47)"/><path class="a" d="M264.215,271.56a1.293,1.293,0,0,0-1.292-1.292h-2.974a1.293,1.293,0,0,0-1.292,1.292v2.794a1.293,1.293,0,0,0,1.292,1.292h2.974a1.293,1.293,0,0,0,1.292-1.292Zm-1.436,2.65h-2.687V271.7h2.687Z" transform="translate(-170.48 -245.47)"/><path class="a" d="M116.925,210.811a1.293,1.293,0,0,0,1.292,1.292h9.756a1.293,1.293,0,0,0,1.292-1.292v-2.019a1.293,1.293,0,0,0-1.292-1.292h-9.756a1.293,1.293,0,0,0-1.292,1.292Zm1.436-1.875h9.469v1.732h-9.469Z" transform="translate(-41.53 -188.447)"/><path class="a" d="M264.215,208.792a1.293,1.293,0,0,0-1.292-1.292h-2.974a1.293,1.293,0,0,0-1.292,1.292v2.019a1.293,1.293,0,0,0,1.292,1.292h2.974a1.293,1.293,0,0,0,1.292-1.292Zm-1.436,1.875h-2.687v-1.732h2.687Z" transform="translate(-170.48 -188.447)"/><path class="a" d="M339.005,270.268h-3.213a1.293,1.293,0,0,0-1.292,1.292v16.358a1.293,1.293,0,0,0,1.292,1.292h3.213a1.293,1.293,0,0,0,1.292-1.292V271.56A1.293,1.293,0,0,0,339.005,270.268Zm-.144,17.507h-2.926V271.7h2.926Z" transform="translate(-239.583 -246.203)"/><path class="a" d="M222.456,72.838h-.869a2.252,2.252,0,0,0-2.249,2.249v3.206a2.252,2.252,0,0,0,2.249,2.249h.869a2.252,2.252,0,0,0,2.249-2.249V75.087A2.252,2.252,0,0,0,222.456,72.838Zm.813,5.455a.814.814,0,0,1-.813.813h-.869a.814.814,0,0,1-.813-.813V75.087a.814.814,0,0,1,.813-.813h.869a.814.814,0,0,1,.813.813Z" transform="translate(-134.756 -65.867)"/><path class="a" d="M286.256,127.338a.718.718,0,0,0-.718.718v1.053a.718.718,0,1,0,1.436,0v-1.053A.718.718,0,0,0,286.256,127.338Z" transform="translate(-194.792 -115.623)"/><path class="a" d="M313.779,72.838h-.868a2.252,2.252,0,0,0-2.249,2.249v3.206a2.252,2.252,0,0,0,2.249,2.249h.868a2.252,2.252,0,0,0,2.249-2.249V75.087A2.252,2.252,0,0,0,313.779,72.838Zm.813,5.455a.814.814,0,0,1-.813.813h-.868a.814.814,0,0,1-.813-.813V75.087a.814.814,0,0,1,.813-.813h.868a.814.814,0,0,1,.813.813Z" transform="translate(-217.718 -65.867)"/></g></svg>