<svg xmlns="http://www.w3.org/2000/svg" width="32.31" height="28.002" viewBox="0 0 32.31 28.002"><g transform="translate(0 0.001)"><g transform="translate(0 -0.001)"><path d="M31.233,12H9.155a.539.539,0,1,0,0,1.077H12.41a8.356,8.356,0,0,0,0,14H1.077v-14H6.462a.539.539,0,1,0,0-1.077H1.077A1.077,1.077,0,0,0,0,13.077v14a1.077,1.077,0,0,0,1.077,1.077H31.233a1.077,1.077,0,0,0,1.077-1.077v-14A1.077,1.077,0,0,0,31.233,12ZM9.693,20.078a6.755,6.755,0,0,1,6.462-7,6.755,6.755,0,0,1,6.462,7,6.755,6.755,0,0,1-6.462,7A6.755,6.755,0,0,1,9.693,20.078Zm21.54,7H19.9a8.356,8.356,0,0,0,0-14H31.233Z" transform="translate(0 -6.076)"/><path d="M41.776,1.112a1.077,1.077,0,0,0-.821-.059l-11.6,3.887A.539.539,0,1,0,29.7,5.964l11.6-3.887,1.19,3.548a.539.539,0,0,0,1.023-.342L42.317,1.737a1.061,1.061,0,0,0-.541-.624Z" transform="translate(-13.378 -0.999)"/><path d="M17.833,43.756l-11.6,3.887L5.047,44.1a.539.539,0,1,0-1.023.342l1.188,3.545a1.061,1.061,0,0,0,.539.624,1.081,1.081,0,0,0,.48.113,1.1,1.1,0,0,0,.341-.054l11.6-3.887a.539.539,0,0,0-.342-1.023Z" transform="translate(-1.844 -20.717)"/><path d="M29.308,20.962a.539.539,0,0,0,1.077,0,2.507,2.507,0,0,0-2.154-2.374v-.049a.538.538,0,1,0-1.077,0v.049A2.507,2.507,0,0,0,25,20.962a2.507,2.507,0,0,0,2.154,2.374v2.659a1.387,1.387,0,0,1-1.077-1.263.539.539,0,1,0-1.077,0,2.507,2.507,0,0,0,2.154,2.374v.049a.538.538,0,0,0,1.077,0v-.049a2.386,2.386,0,0,0,0-4.749V19.7A1.387,1.387,0,0,1,29.308,20.962Zm-3.231,0A1.387,1.387,0,0,1,27.154,19.7v2.527a1.387,1.387,0,0,1-1.077-1.263Zm3.231,3.77a1.387,1.387,0,0,1-1.077,1.263V23.468a1.387,1.387,0,0,1,1.077,1.263Z" transform="translate(-11.537 -8.845)"/><path d="M50.539,35.231h2.154a.539.539,0,0,0,.539-.539V32.539a.538.538,0,1,0-1.077,0v1.616H50.539a.539.539,0,1,0,0,1.077Z" transform="translate(-23.075 -15.306)"/><path d="M4.539,32A.539.539,0,0,0,4,32.539v2.154a.539.539,0,0,0,.539.539H6.693a.539.539,0,0,0,0-1.077H5.077V32.539A.539.539,0,0,0,4.539,32Z" transform="translate(-1.846 -15.306)"/><path d="M6.693,16H4.539A.539.539,0,0,0,4,16.539v2.154a.539.539,0,0,0,1.077,0V17.077H6.693a.539.539,0,0,0,0-1.077Z" transform="translate(-1.846 -7.922)"/><path d="M50.539,17.077h1.616v1.616a.538.538,0,0,0,1.077,0V16.539A.539.539,0,0,0,52.693,16H50.539a.539.539,0,0,0,0,1.077Z" transform="translate(-23.075 -7.922)"/></g></g></svg>