<svg xmlns="http://www.w3.org/2000/svg" width="55.652" height="48.318" viewBox="0 0 55.652 48.318"><defs><style>.a{fill:#323131;}</style></defs><g transform="translate(-17.424 -42.924)"><g transform="translate(46.001 84.414)"><g transform="translate(0 0)"><path class="a" d="M281.262,361.686h-1.407a.376.376,0,0,0,0,.752h1.407a.376.376,0,0,0,0-.752Z" transform="translate(-279.479 -361.686)"/></g></g><g transform="translate(41.973 42.925)"><g transform="translate(0 0)"><path class="a" d="M248.442,58.964l-4.361-1.7-2.224-2.246a.794.794,0,0,0-.515-.235V53a8.375,8.375,0,0,0,2.1-4.169,2.268,2.268,0,0,0,.562-.045,2.39,2.39,0,0,0,1.839-2.375v-.59a2.437,2.437,0,0,0-.705-1.721c.707-3.886.125-7.053-1.692-9.172-1.757-2.05-4.589-3.03-8.187-2.833a10.667,10.667,0,0,0-6.151,2.292,4.19,4.19,0,0,0-1.648.566,4.318,4.318,0,0,0-1.95,4.006,20.4,20.4,0,0,0,.555,4.7,2.4,2.4,0,0,0-1.3,2.172v.581a2.39,2.39,0,0,0,1.839,2.375,2.264,2.264,0,0,0,.562.045,8.376,8.376,0,0,0,2.1,4.169v1.787a.793.793,0,0,0-.515.235l-2.224,2.246-4.361,1.7a5.283,5.283,0,0,0-1.071.566.814.814,0,0,0-.212,1.124.8.8,0,0,0,1.112.215,3.693,3.693,0,0,1,.747-.4l4.047-1.577,3.095,4.69a2.287,2.287,0,0,0,1.687,1.023c.077.008.153.011.229.011a2.268,2.268,0,0,0,1.127-.3l-.664,15.218a.806.806,0,0,0,.765.844h.036a.8.8,0,0,0,.8-.773l.616-14.126h1.663l.616,14.126a.8.8,0,0,0,.8.773h.036a.806.806,0,0,0,.765-.844l-.664-15.218a2.268,2.268,0,0,0,1.127.3c.076,0,.153,0,.229-.011a2.288,2.288,0,0,0,1.687-1.023l3.095-4.69,4.047,1.577a3.686,3.686,0,0,1,1.441,1.014l-2.769,2.8a5.344,5.344,0,0,0-1.551,3.784v11.5a.8.8,0,1,0,1.6,0v-11.5a3.728,3.728,0,0,1,1.082-2.639l2.43-2.455a3.764,3.764,0,0,1,.128,1.131l-.62,15.435a.806.806,0,0,0,.768.841h.033a.8.8,0,0,0,.8-.776l.621-15.436A5.351,5.351,0,0,0,248.442,58.964Zm-19.719-10.47a1.562,1.562,0,0,0-1.622-1.284.68.68,0,0,1-.186-.013.784.784,0,0,1-.559-.789v-.581a.766.766,0,0,1,.565-.77.693.693,0,0,1,.685.265,1.11,1.11,0,0,0,1.535.243,5.842,5.842,0,0,0,1.313-1.3.815.815,0,0,0-.165-1.132.8.8,0,0,0-1.121.166,4.278,4.278,0,0,1-.624.681,2.284,2.284,0,0,0-.868-.469,18.787,18.787,0,0,1-.572-4.56,2.846,2.846,0,0,1,1.124-2.588,2.58,2.58,0,0,1,1.2-.388.8.8,0,0,0,.553-.224,8.977,8.977,0,0,1,5.36-2.049c3.086-.168,5.469.619,6.89,2.277s1.909,4.237,1.392,7.448a3.437,3.437,0,0,0-.683.048l-.752-1.826a.8.8,0,0,0-.942-.472c-.074.02-7.47,1.914-10.572-1.987a.8.8,0,0,0-1.126-.124.815.815,0,0,0-.123,1.137c3.167,3.983,9.451,3.117,11.542,2.694l.582,1.412a1.313,1.313,0,0,0,1.521.788,1.711,1.711,0,0,1,.6-.044.762.762,0,0,1,.568.759v.59a.784.784,0,0,1-.559.789.672.672,0,0,1-.186.013,1.563,1.563,0,0,0-1.622,1.284,6.671,6.671,0,0,1-13.146,0Zm3.553,14.3a.693.693,0,0,1-1.074-.107l-3.118-4.724,1.254-1.267,4.786,4.231Zm2.259,1.069.048-1.112.712-.719.712.719.048,1.112Zm.761-4.051-4.444-3.928V54.336a8.218,8.218,0,0,0,8.888,0v1.549Zm4.094,2.875a.693.693,0,0,1-1.074.107l-1.849-1.868,4.786-4.231,1.254,1.267Z" transform="translate(-220.729 -32.066)"/></g></g><g transform="translate(17.424 42.924)"><g transform="translate(0 0)"><path class="a" d="M25.4,63.2l-3.911-1.724-2.138-2.16a.793.793,0,0,0-.515-.235V57.81a8.361,8.361,0,0,0,3.594-5.441,2.279,2.279,0,0,0,.632-.061,2.4,2.4,0,0,0,1.769-2.359v-.59A2.42,2.42,0,0,0,23.8,47.37a9.238,9.238,0,0,0,.277-2.242,9.454,9.454,0,0,0-4.5-8,5.217,5.217,0,0,0-5.3-5.065,5.217,5.217,0,0,0-5.3,5.065,9.454,9.454,0,0,0-4.5,8,9.238,9.238,0,0,0,.275,2.235,2.425,2.425,0,0,0-1.025,2v.581a2.4,2.4,0,0,0,1.769,2.359,2.274,2.274,0,0,0,.632.061A8.361,8.361,0,0,0,9.741,57.81v1.273a.793.793,0,0,0-.515.235l-2.138,2.16L3.178,63.2A5.39,5.39,0,0,0,0,68.333L.478,79.606a.8.8,0,0,0,.8.775h.034a.806.806,0,0,0,.766-.843L1.605,68.264a3.756,3.756,0,0,1,.508-2.038l2.1,2.548a4.526,4.526,0,0,1,1.03,2.874v7.922a.8.8,0,1,0,1.6,0V71.649a6.158,6.158,0,0,0-1.4-3.91L3.211,65.029a3.621,3.621,0,0,1,.608-.345l3.408-1.5,2.408,3.949a1.54,1.54,0,0,0,2.326.37l1.526-1.316V79.571a.8.8,0,1,0,1.6,0V66.186L16.616,67.5a1.541,1.541,0,0,0,2.326-.37l2.408-3.95,3.408,1.5a3.626,3.626,0,0,1,.608.345l-2.235,2.709a6.158,6.158,0,0,0-1.4,3.91v7.922a.8.8,0,1,0,1.6,0V71.649a4.527,4.527,0,0,1,1.03-2.874l2.1-2.548a3.756,3.756,0,0,1,.508,2.038L26.5,79.537a.806.806,0,0,0,.766.843H27.3a.8.8,0,0,0,.8-.775l.473-11.273A5.39,5.39,0,0,0,25.4,63.2ZM14.289,33.681a3.673,3.673,0,0,1,3.567,2.586,10.06,10.06,0,0,0-7.133,0A3.673,3.673,0,0,1,14.289,33.681ZM7.715,52.036a1.563,1.563,0,0,0-1.622-1.284.685.685,0,0,1-.209-.018.79.79,0,0,1-.536-.784v-.581a.766.766,0,0,1,.565-.77.693.693,0,0,1,.685.265,1.11,1.11,0,0,0,1.535.244,5.837,5.837,0,0,0,1.3-1.274.815.815,0,0,0-.16-1.133.8.8,0,0,0-1.121.161,4.273,4.273,0,0,1-.611.664,2.284,2.284,0,0,0-1.209-.538,7.609,7.609,0,0,1-.232-1.86,8.057,8.057,0,0,1,8.191-7.9,8.057,8.057,0,0,1,8.191,7.9,7.606,7.606,0,0,1-.231,1.856,3.639,3.639,0,0,0-.623.1l-.6-.5a1.527,1.527,0,0,0-1.069-.354c-1.177.07-7.206.231-10.3-3.509a.8.8,0,0,0-1.128-.1.815.815,0,0,0-.1,1.14,11.417,11.417,0,0,0,6.65,3.707,19.408,19.408,0,0,0,4.946.381l.939.78a.793.793,0,0,0,.911.075,1.751,1.751,0,0,1,.789-.106.762.762,0,0,1,.568.759v.59a.79.79,0,0,1-.536.784.678.678,0,0,1-.209.018,1.565,1.565,0,0,0-1.622,1.284,6.672,6.672,0,0,1-13.147,0Zm3.252,14.195-2.409-3.95,1.234-1.247,3.317,3.351Zm3.321-2.944-2.946-2.976V58.637a8.2,8.2,0,0,0,5.891,0v1.674Zm3.321,2.944-2.142-1.846,3.317-3.351,1.234,1.247Z" transform="translate(0 -32.063)"/></g></g><g transform="translate(23.114 89.765)"><g transform="translate(0 0)"><path class="a" d="M78.382,394.766H77.5a.315.315,0,1,0,0,.629h.883a.315.315,0,0,0,0-.629Z" transform="translate(-77.184 -394.766)"/></g></g></g></svg>