<svg xmlns="http://www.w3.org/2000/svg" width="33.981" height="34.045" viewBox="0 0 33.981 34.045"><g transform="translate(0 0.045)"><g transform="translate(2.832 20.549)"><path d="M2,14.5H15.1V27.951H4.478A2.49,2.49,0,0,1,2,25.473Z" transform="translate(-2 -14.5)"/></g><g transform="translate(18.052 20.549)"><path d="M25.847,14.5V25.473a2.49,2.49,0,0,1-2.478,2.478H12.75V14.5Z" transform="translate(-12.75 -14.5)"/></g><g transform="translate(0 9.93)"><path d="M0,9.478v3.54A2.49,2.49,0,0,0,2.478,15.5H15.929V7H2.478A2.49,2.49,0,0,0,0,9.478Z" transform="translate(0 -7)"/></g><g transform="translate(18.052 9.93)"><path d="M26.2,7H12.75v8.5H26.2a2.49,2.49,0,0,0,2.478-2.478V9.478A2.49,2.49,0,0,0,26.2,7Z" transform="translate(-12.75 -7)"/></g><g transform="translate(15.929 -0.045)"><path d="M12.312,11.408a1.064,1.064,0,0,1-1.051-1.218C11.785,6.651,14.55-.045,21.273-.045c3.837,0,5.2,2.074,5.2,3.85,0,3.156-4.393,7.6-14.159,7.6ZM21.273,2.08c-5.072,0-7,4.821-7.636,7.173a17.017,17.017,0,0,0,7.977-2.062C23.629,6,24.347,4.657,24.347,3.8c0-1.271-1.587-1.723-3.074-1.723Z" transform="translate(-11.25 0.045)"/></g><g transform="translate(2.833 -0.044)"><path d="M16.16,11.408C6.394,11.408,2,6.96,2,3.8,2,2.029,3.363-.044,7.2-.044c6.721,0,9.486,6.7,10.01,10.235a1.062,1.062,0,0,1-1.051,1.216ZM7.2,2.08c-1.487,0-3.075.453-3.075,1.725,0,1.808,3.162,5.1,10.708,5.45C14.2,6.9,12.27,2.08,7.2,2.08Z" transform="translate(-2.001 0.044)"/></g></g></svg>