<svg xmlns="http://www.w3.org/2000/svg" width="37.832" height="47.8" viewBox="0 0 37.832 47.8"><defs><style>.a{fill:#323131;}</style></defs><g transform="translate(-53.387 0)"><path class="a" d="M86.1,31.228,83.3,30.4l-6.1-3.987V25.5A8.124,8.124,0,0,0,80.4,19.8a1.865,1.865,0,0,0,1.565-1.839V15.449c0-.01,0-.019,0-.029V12.238a1.38,1.38,0,0,0,.577-1.127V8.2l4.212-.717a1.493,1.493,0,0,0,.2-2.895L72.754.07a1.486,1.486,0,0,0-.905,0l-14.2,4.517a1.5,1.5,0,0,0-.465,2.607V11h-.035a1.452,1.452,0,0,0-1.45,1.45v1.89l-.936,5.494a1.559,1.559,0,0,0,1.536,1.82h3.169a1.559,1.559,0,0,0,1.536-1.82l-.936-5.494v-1.89A1.452,1.452,0,0,0,58.619,11h-.035V7.607l3.482.593v2.912a1.382,1.382,0,0,0,.574,1.124v5.725A1.865,1.865,0,0,0,64.207,19.8a8.124,8.124,0,0,0,3.2,5.7v.918l-6.1,3.986-2.8.823a7.12,7.12,0,0,0-5.117,6.835v2.087a.7.7,0,1,0,1.4,0V38.064A5.754,5.754,0,0,1,58.9,32.572l2.612-.767,10.434,6.2a.708.708,0,0,0,.715,0l10.435-6.2,2.612.767a5.755,5.755,0,0,1,4.111,5.492v6.763A1.575,1.575,0,0,1,88.245,46.4H85.159V43.381a.7.7,0,0,0-1.4,0V46.4H60.844V43.381a.7.7,0,0,0-1.4,0V46.4H56.361a1.575,1.575,0,0,1-1.573-1.573v-1.4a.7.7,0,0,0-1.4,0v1.4A2.977,2.977,0,0,0,56.36,47.8H88.245a2.977,2.977,0,0,0,2.973-2.973V38.064A7.12,7.12,0,0,0,86.1,31.228ZM59.469,20.256H56.3a.158.158,0,0,1-.156-.185l.847-4.97h1.788l.847,4.97a.158.158,0,0,1-.156.185Zm-.8-7.8V13.7H57.1V12.452a.05.05,0,0,1,.05-.05h1.47A.05.05,0,0,1,58.669,12.452ZM69.8,34.839l.279.428L62.929,31.02l4.537-2.964A14.708,14.708,0,0,0,69.8,34.839Zm0-3.023a18,18,0,0,0,5.018,0,13.374,13.374,0,0,1-1.179,2.259L72.3,36.12l-1.33-2.045a13.373,13.373,0,0,1-1.179-2.259Zm5.013,3.023a14.707,14.707,0,0,0,2.332-6.783l4.537,2.964-7.148,4.248ZM78.9,12.5h1.66v2.25h-.824a.837.837,0,0,1-.836-.836V12.5ZM58.073,5.921,72.273,1.4a.092.092,0,0,1,.056,0l14.2,4.517a.078.078,0,0,1,.064.095c-.005.073-.047.08-.077.085l-4.695.8-1.763-.218a.7.7,0,0,0-.172,1.39l1.252.155V11.1H63.466V8.228l7.245-.9a12.97,12.97,0,0,1,3.18,0l2.742.339a.7.7,0,0,0,.172-1.39l-2.742-.339a14.364,14.364,0,0,0-3.524,0l-7.758.96-4.7-.8c-.03-.005-.072-.012-.077-.085A.078.078,0,0,1,58.073,5.921Zm5.968,8.827V12.5H65.7v1.414a.837.837,0,0,1-.836.836h-.825Zm1.541,4.691A1.085,1.085,0,0,0,64.5,18.422a.463.463,0,0,1-.462-.462V16.149h.825A2.239,2.239,0,0,0,67.1,13.913V12.5H77.5v1.414a2.239,2.239,0,0,0,2.236,2.236h.825V17.96a.463.463,0,0,1-.462.462,1.085,1.085,0,0,0-1.079,1.017,6.734,6.734,0,0,1-13.44,0Zm6.72,7.705a8.082,8.082,0,0,0,3.49-.791V26.8a13.344,13.344,0,0,1-.472,3.517,16.533,16.533,0,0,1-6.034,0,13.343,13.343,0,0,1-.473-3.517c0-.015,0-.029,0-.044s0-.006,0-.009v-.392A8.083,8.083,0,0,0,72.3,27.144Z" transform="translate(0 0)"/></g></svg>