<svg xmlns="http://www.w3.org/2000/svg" width="88.024" height="88.039" viewBox="0 0 88.024 88.039"><g transform="translate(-0.043)"><g transform="translate(0.043)"><path d="M87.564,37.028a1.721,1.721,0,0,0-1.555-.47L71.19,39.541a1.719,1.719,0,0,0-.877,2.9l2,2L64.45,52.315l-6.091-6.091a1.719,1.719,0,0,0-2.432,0L48.453,53.7l2.8-10.074a8.073,8.073,0,0,0-4.938-9.716l2.241-6.4c.618.054,1.235.082,1.845.082a21.378,21.378,0,0,0,13.631-4.927l.41-.34a4.79,4.79,0,0,0,.785-6.629,4.77,4.77,0,0,0-6.825-.756l-.465.387a11.839,11.839,0,0,1-2.229,1.462,7.13,7.13,0,0,1-8.162-1.436,7.858,7.858,0,1,0-8.665-2.888,8.957,8.957,0,0,0-4.623,2.607,1.718,1.718,0,0,0-.2.208A23.325,23.325,0,0,1,22.373,23a4.755,4.755,0,0,0-2.831,2.241l-3.524-3.524a3.959,3.959,0,0,0-5.593,0L5.813,26.328h0L1.2,30.94a3.955,3.955,0,0,0,0,5.593L13.908,49.239a3.955,3.955,0,0,0,5.593,0l4.775-4.775L22.012,50.4a1.719,1.719,0,1,0,3.213,1.225L30.864,36.84H43.49A4.623,4.623,0,0,1,47.944,42.7L44.037,56.741a1.47,1.47,0,0,1-1.412,1.073,1.466,1.466,0,0,1-1.448-1.7l2.079-13.069a1.719,1.719,0,0,0-1.7-1.989H37.482A1.719,1.719,0,0,0,35.947,42c-.1.2-10.076,19.923-13.438,26.588a1.766,1.766,0,0,1-1.818.946l-.081-.011a1.681,1.681,0,0,1-1.346-2.266l1.059-2.778a1.719,1.719,0,0,0-3.213-1.225l-1.059,2.778a5.121,5.121,0,0,0,4.1,6.9l.081.011a5.215,5.215,0,0,0,5.351-2.8C28.516,64.317,36.5,48.525,38.539,44.5h1l-1.762,11.08a4.9,4.9,0,0,0,3.352,5.442L21.98,80.172a1.719,1.719,0,0,0,0,2.432l4.932,4.932a1.719,1.719,0,0,0,2.432,0l9.481-9.481a1.719,1.719,0,0,0-2.432-2.432l-8.265,8.265-2.5-2.5L57.144,49.871l6.091,6.091a1.719,1.719,0,0,0,2.432,0l10.3-10.3a1.72,1.72,0,0,0,0-2.432l-.952-.952,9.138-1.839-1.839,9.138L80.9,48.163a1.72,1.72,0,0,0-2.432,0L64.45,62.179l-6.091-6.091a1.72,1.72,0,0,0-2.432,0L46.118,65.9a1.719,1.719,0,0,0,2.432,2.432l8.593-8.593,6.091,6.091a1.72,1.72,0,0,0,2.432,0L79.682,51.81l2.468,2.468a1.72,1.72,0,0,0,2.9-.877l2.982-14.818A1.72,1.72,0,0,0,87.564,37.028ZM45.231,3.439A4.411,4.411,0,1,1,40.82,7.85,4.416,4.416,0,0,1,45.231,3.439ZM28.217,33.915l-2.092-2.092q1.491-.486,2.926-1.11Zm-5.8-5.964a1.333,1.333,0,0,1,.911-1.648,26.82,26.82,0,0,0,7.838-3.713l-.971,3.733a29.653,29.653,0,0,1-6.131,2.539c-.04.011-.081.021-.122.029a1.32,1.32,0,0,1-.9-.155l-.5-.5A1.308,1.308,0,0,1,22.414,27.951Zm-9.558-3.8a.517.517,0,0,1,.73,0l6.267,6.267a4.726,4.726,0,0,0,1.028,1.028l5.412,5.412a.516.516,0,0,1,0,.729l-3.4,3.4L19.12,37.2l.719-.719a1.72,1.72,0,0,0,0-2.432l-3.87-3.87a1.72,1.72,0,0,0-2.432,0l-.719.719L9.46,27.543Zm2.353,12.1a.645.645,0,0,1-.913,0h0l-.526-.526a.645.645,0,0,1,0-.913l.982-.982,1.439,1.439Zm1.859,10.558a.516.516,0,0,1-.729,0L3.633,34.1a.516.516,0,0,1,0-.729l3.4-3.4,3.519,3.518a4.089,4.089,0,0,0,.792,4.662l.526.526h0a4.089,4.089,0,0,0,4.662.792l3.938,3.938ZM41.629,33.4H31.9l3.532-13.578A5.512,5.512,0,0,1,40.769,15.7a5.45,5.45,0,0,1,4.036,1.759,10.6,10.6,0,0,0,12.455,2.4,15.266,15.266,0,0,0,2.878-1.887l.465-.387a1.331,1.331,0,0,1,1.906.212,1.381,1.381,0,0,1-.261,1.882l-.41.34a17.836,17.836,0,0,1-14.181,3.918,1.718,1.718,0,0,0-1.887,1.131L42.853,33.4Z" transform="translate(-0.043)"/><path d="M238.715,408.8a1.72,1.72,0,1,0,1.215.5A1.732,1.732,0,0,0,238.715,408.8Z" transform="translate(-196.255 -338.512)"/><path d="M114.605,327.579a1.717,1.717,0,1,0-1.217-.5A1.732,1.732,0,0,0,114.605,327.579Z" transform="translate(-93.484 -268.408)"/></g></g></svg>