<svg xmlns="http://www.w3.org/2000/svg" width="52.9" height="47.473" viewBox="0 0 52.9 47.473"><defs><style>.a{fill:#fff;}</style></defs><g transform="translate(0 -26.264)"><g transform="translate(0 26.264)"><path class="a" d="M51.081,40.876h-.5L45.842,28.13a2.874,2.874,0,0,0-2.683-1.866H9.741A2.874,2.874,0,0,0,7.058,28.13L2.324,40.876h-.5A1.821,1.821,0,0,0,0,42.694v1.461a1.821,1.821,0,0,0,1.819,1.819h.269V62.959a.775.775,0,1,0,1.55,0V45.974H15.8a2.533,2.533,0,0,0,1.8-.747l8.843-8.843,8.843,8.843a2.532,2.532,0,0,0,1.8.747H49.263v2.054a.775.775,0,0,0,1.55,0V45.974h.269A1.821,1.821,0,0,0,52.9,44.156V42.694a1.821,1.821,0,0,0-1.819-1.819ZM8.51,28.669a1.318,1.318,0,0,1,1.23-.855H43.159a1.318,1.318,0,0,1,1.23.855l4.534,12.207H38.152l-9.9-9.9a2.549,2.549,0,0,0-3.605,0l-9.9,9.9H3.977ZM51.35,44.156a.269.269,0,0,1-.269.269H37.1a.993.993,0,0,1-.707-.293L27,34.741a.775.775,0,0,0-1.1,0l-9.391,9.391a.993.993,0,0,1-.707.293H1.819a.269.269,0,0,1-.269-.269V42.694a.269.269,0,0,1,.269-.269H15.069a.775.775,0,0,0,.548-.227L25.743,32.073a1,1,0,0,1,1.413,0L37.283,42.2a.775.775,0,0,0,.548.227H51.081a.269.269,0,0,1,.269.269v1.461Z" transform="translate(0 -26.264)"/><path class="a" d="M353.657,292.112a.775.775,0,0,0,.775-.775V277.56a.775.775,0,0,0-.775-.775H343.22a.775.775,0,0,0-.775.775v13.777a.775.775,0,0,0,.775.775Zm-.775-4.89h-3.669v-3.669h3.669Zm-5.219,0h-3.669v-3.669h3.669Zm5.219,3.34h-8.887v-1.79h8.887Zm0-8.558h-3.669v-3.669h3.669Zm-5.219-3.669V282h-3.669v-3.669Z" transform="translate(-307.064 -250.901)"/><path class="a" d="M64.75,292.112a.775.775,0,0,0,.775-.775V277.56a.775.775,0,0,0-.775-.775H54.313a.775.775,0,0,0-.775.775v13.777a.775.775,0,0,0,.775.775Zm-.775-4.89H60.306v-3.669h3.669Zm-5.218,0H55.088v-3.669h3.669Zm5.218,3.34H55.088v-1.79h8.887Zm0-8.558H60.306v-3.669h3.669Zm-5.218-3.669V282H55.088v-3.669Z" transform="translate(-48.006 -250.901)"/><path class="a" d="M230.041,309.11h-5.01a.775.775,0,0,0-.775.775v3.34a.775.775,0,0,0,.775.775h5.01a.775.775,0,0,0,.775-.775v-3.34A.775.775,0,0,0,230.041,309.11Zm-.775,3.34h-3.46v-1.79h3.46Z" transform="translate(-201.086 -279.886)"/><path class="a" d="M224.4,178.873a4.115,4.115,0,1,0-4.115,4.115A4.119,4.119,0,0,0,224.4,178.873Zm-6.68,0a2.565,2.565,0,1,1,2.565,2.565A2.568,2.568,0,0,1,217.725,178.873Z" transform="translate(-193.84 -159.416)"/><path class="a" d="M52.125,282.26H50.812V265.275a.775.775,0,0,0-1.55,0V282.26H33.07V266.544a.775.775,0,0,0-.775-.775H20.605a.775.775,0,0,0-.775.775V282.26H3.637v-2.054a.775.775,0,1,0-1.55,0v2.054H.775a.775.775,0,0,0-.775.775v3.549a.775.775,0,0,0,.775.775h51.35a.775.775,0,0,0,.775-.775v-3.549A.775.775,0,0,0,52.125,282.26ZM21.38,276.608h1.1a.775.775,0,1,0,0-1.55h-1.1v-7.739H31.52V282.26H21.38Zm29.97,9.2H1.55v-2h49.8Z" transform="translate(0 -239.885)"/></g></g></svg>