<svg xmlns="http://www.w3.org/2000/svg" width="53.623" height="47.8" viewBox="0 0 53.623 47.8"><defs><style>.a{fill:#323131;}</style></defs><g transform="translate(0.001 -27.798)"><g transform="translate(-0.001 27.798)"><g transform="translate(0 0)"><path class="a" d="M53.052,47.514,27.634,28.079a1.345,1.345,0,0,0-1.646,0L.57,47.514a1.5,1.5,0,0,0-.3,2.034,1.355,1.355,0,0,0,1.947.314L26.811,31.056,51.406,49.862a1.347,1.347,0,0,0,.822.281,1.373,1.373,0,0,0,1.125-.6A1.5,1.5,0,0,0,53.052,47.514Z" transform="translate(0.001 -27.797)"/></g></g><g transform="translate(6.174 48.072)"><path class="a" d="M96.35,232.543A1.417,1.417,0,0,0,94.974,234v23.16H83.968V244.516a6.89,6.89,0,1,0-13.759,0v12.642H59.2V234a1.378,1.378,0,1,0-2.752,0v24.616a1.417,1.417,0,0,0,1.376,1.455H71.585a1.409,1.409,0,0,0,1.37-1.342c0-.034.005-.071.005-.113v-14.1a4.134,4.134,0,1,1,8.256,0v14.1c0,.042,0,.078.005.112a1.409,1.409,0,0,0,1.37,1.343H96.35a1.417,1.417,0,0,0,1.376-1.455V234A1.417,1.417,0,0,0,96.35,232.543Z" transform="translate(-56.452 -232.543)"/></g></g></svg>