<svg xmlns="http://www.w3.org/2000/svg" width="25.201" height="25.201" viewBox="0 0 25.201 25.201"><defs><style>.a{fill:#fff;}</style></defs><path class="a" d="M211.824,209.412A2.412,2.412,0,1,1,209.412,207,2.412,2.412,0,0,1,211.824,209.412Zm0,0" transform="translate(-196.811 -196.811)"/><path class="a" d="M147.057,137.153a2.4,2.4,0,0,0-1.373-1.373,4,4,0,0,0-1.343-.249c-.763-.035-.992-.042-2.924-.042s-2.161.007-2.924.042a4.006,4.006,0,0,0-1.343.249,2.4,2.4,0,0,0-1.373,1.373,4,4,0,0,0-.249,1.344c-.035.763-.042.992-.042,2.924s.007,2.161.042,2.924a4,4,0,0,0,.249,1.343,2.4,2.4,0,0,0,1.373,1.373,4,4,0,0,0,1.344.249c.763.035.992.042,2.924.042s2.161-.007,2.924-.042a4,4,0,0,0,1.344-.249,2.4,2.4,0,0,0,1.373-1.373,4.006,4.006,0,0,0,.249-1.343c.035-.763.042-.992.042-2.924s-.007-2.161-.042-2.924A4,4,0,0,0,147.057,137.153Zm-5.64,7.983a3.715,3.715,0,1,1,3.715-3.715A3.715,3.715,0,0,1,141.417,145.136Zm3.862-6.709a.868.868,0,1,1,.868-.868A.868.868,0,0,1,145.279,138.426Zm0,0" transform="translate(-128.816 -128.82)"/><path class="a" d="M12.6,0A12.6,12.6,0,1,0,25.2,12.6,12.6,12.6,0,0,0,12.6,0Zm7.192,15.584a5.309,5.309,0,0,1-.336,1.756,3.7,3.7,0,0,1-2.116,2.116,5.312,5.312,0,0,1-1.756.336c-.772.035-1.018.044-2.983.044s-2.211-.008-2.983-.044a5.312,5.312,0,0,1-1.756-.336A3.7,3.7,0,0,1,5.745,17.34a5.307,5.307,0,0,1-.336-1.756c-.036-.772-.044-1.018-.044-2.983s.008-2.211.044-2.983a5.309,5.309,0,0,1,.336-1.756A3.7,3.7,0,0,1,7.861,5.745a5.313,5.313,0,0,1,1.756-.336c.772-.035,1.018-.044,2.983-.044s2.211.008,2.983.044a5.315,5.315,0,0,1,1.756.336,3.7,3.7,0,0,1,2.116,2.116,5.308,5.308,0,0,1,.336,1.756c.035.772.043,1.018.043,2.983S19.828,14.812,19.792,15.584Zm0,0"/></svg>