<svg xmlns="http://www.w3.org/2000/svg" width="32.412" height="30.327" viewBox="0 0 32.412 30.327"><path d="M215.686,96.034a.479.479,0,0,0,.723-.082l3.16-4.769a.475.475,0,1,0-.792-.525l-2.848,4.3-1.582-1.5a.475.475,0,0,0-.654.689l1.993,1.892Zm0,0" transform="translate(-200.027 -84.751)"/><path d="M122.2,19.024a.7.7,0,0,0,.291.064h0a.7.7,0,0,0,.294-.067c7.22-3.433,8.443-10.842,8.646-13.03a1.135,1.135,0,0,0-.7-1.158,4.149,4.149,0,0,1-2.55-3.482.938.938,0,0,0-.931-.85h-.006L117.52.557a.93.93,0,0,0-.926.867,4.15,4.15,0,0,1-2.512,3.507A1.131,1.131,0,0,0,113.4,6.1c.228,2.186,1.539,9.58,8.8,12.928ZM114.454,5.8a5.1,5.1,0,0,0,3.085-4.3l9.7-.057a5.1,5.1,0,0,0,3.13,4.259.191.191,0,0,1,.119.194c-.19,2.051-1.33,8.967-8,12.208C115.777,14.948,114.557,8.045,114.343,6a.187.187,0,0,1,.112-.193Zm0,0" transform="translate(-106.214 -0.5)"/><path d="M143.607,34.942a.5.5,0,0,0,.583.334.475.475,0,0,0,.334-.583c-.121-.446-.223-.9-.3-1.345a6.677,6.677,0,0,0,2.717-3.56l6.857-.04a6.677,6.677,0,0,0,2.758,3.528c-.074.449-.171.9-.287,1.349a.475.475,0,1,0,.919.238c.136-.525.247-1.058.329-1.585a.726.726,0,0,0-.342-.736,5.73,5.73,0,0,1-2.52-3.23.734.734,0,0,0-.7-.515h0l-7.179.042a.734.734,0,0,0-.7.523,5.73,5.73,0,0,1-2.482,3.259.726.726,0,0,0-.334.74c.089.525.205,1.056.347,1.58Zm0,0" transform="translate(-134.181 -27.005)"/><path d="M171.642,147.57a.474.474,0,0,0-.62.258,11.959,11.959,0,0,1-5.164,6.012,11.963,11.963,0,0,1-5.238-5.96.475.475,0,0,0-.874.372,12.88,12.88,0,0,0,5.765,6.481.727.727,0,0,0,.7,0,12.876,12.876,0,0,0,5.684-6.538.474.474,0,0,0-.258-.62Zm0,0" transform="translate(-149.598 -138.226)"/><path d="M23.266,384.273a1.68,1.68,0,1,0,1.68,1.68A1.682,1.682,0,0,0,23.266,384.273Zm0,2.41a.73.73,0,1,1,.73-.73A.731.731,0,0,1,23.266,386.683Zm0,0" transform="translate(-20.219 -359.979)"/><path d="M32.071,241.573a1.978,1.978,0,0,0-2.731-.528L23.133,245.2l-1.325-.074-.034-.339a2.881,2.881,0,0,0-2.47-2.574l-.025,0-6.688-.586a10.99,10.99,0,0,1-2.941-1.385,7.385,7.385,0,0,0-3.384-.974v-1.242a1.131,1.131,0,0,0-1.13-1.13H1.131A1.132,1.132,0,0,0,0,238.021v12.233a1.132,1.132,0,0,0,1.13,1.13H5.137a1.132,1.132,0,0,0,1.13-1.13v-.337l5.846,2.214a3.269,3.269,0,0,0,1.361.1l9.714-1.4H23.2a4.776,4.776,0,0,0,2.264-1.014l.017-.015,6.274-5.643a1.978,1.978,0,0,0,.321-2.586Zm-.954,1.878-6.267,5.637a3.826,3.826,0,0,1-1.8.8l-9.707,1.4h-.013a2.132,2.132,0,0,1-.9-.057L6.268,248.9V243.48a.475.475,0,0,0-.95,0v6.775a.181.181,0,0,1-.181.181H1.131a.181.181,0,0,1-.181-.181V238.021a.181.181,0,0,1,.181-.181H5.137a.181.181,0,0,1,.181.181v3.314a.475.475,0,0,0,.95,0v-1.121a6.431,6.431,0,0,1,2.911.847c2.4,1.377,3.071,1.472,3.291,1.5l.025,0,6.689.586a1.935,1.935,0,0,1,1.646,1.726l.025.253-8.955.553h-.018a1.082,1.082,0,0,1-.739-.387.475.475,0,0,0-.729.608,2.056,2.056,0,0,0,1.383.724c.293.031,9.579-.578,9.579-.578l1.862.1a.473.473,0,0,0,.291-.08l6.34-4.243a1.024,1.024,0,0,1,1.248,1.617Zm0,0" transform="translate(0 -221.926)"/></svg>