<svg xmlns="http://www.w3.org/2000/svg" width="62.968" height="58.517" viewBox="0 0 62.968 58.517"><defs><style>.a{fill:#fff;}</style></defs><g transform="translate(611.068 -116.419)"><g transform="translate(-579.611 150.061)"><g transform="translate(0 0)"><path class="a" d="M-481.934,243.292l-1.586-.719-.454-.733a6.1,6.1,0,0,0,2.841-5.156v-3.011a.468.468,0,0,0-.252-.4l-4.074-2.168a.447.447,0,0,0-.436,0l-3.946,2.163a.443.443,0,0,0-.229.4v3.07a6.115,6.115,0,0,0,.532,2.534h-3.3a2.306,2.306,0,0,0-1.82.9l-1.8,2.36-3.025.825a1.834,1.834,0,0,0-1.352,1.764v1.155A1.857,1.857,0,0,0-499,248.122h.22a2.3,2.3,0,0,0,2.841,1.6,2.3,2.3,0,0,0,1.6-1.6h6.737a2.3,2.3,0,0,0,2.841,1.6,2.3,2.3,0,0,0,1.6-1.6h.449a1.851,1.851,0,0,0,1.842-1.842v-1.325A1.841,1.841,0,0,0-481.934,243.292Zm-7.218-9.349,3.5-1.92,3.607,1.925v2.736a5.2,5.2,0,0,1-3.189,4.789h-.009l-.44.188-.357-.16a5.2,5.2,0,0,1-3.107-4.761v-2.8Zm-7.4,14.935a1.388,1.388,0,0,1-1.389-1.389,1.388,1.388,0,0,1,1.389-1.389,1.388,1.388,0,0,1,1.389,1.389A1.393,1.393,0,0,1-496.553,248.878Zm11.182,0a1.388,1.388,0,0,1-1.389-1.389,1.391,1.391,0,0,1,1.389-1.389,1.387,1.387,0,0,1,1.389,1.389A1.387,1.387,0,0,1-485.371,248.878Zm3.6-2.6h0a.935.935,0,0,1-.926.926h-.385a2.3,2.3,0,0,0-2.585-1.989,2.3,2.3,0,0,0-1.989,1.989h-6.608a2.3,2.3,0,0,0-2.585-1.989,2.3,2.3,0,0,0-1.989,1.989H-499a.935.935,0,0,1-.926-.926V245.12a.922.922,0,0,1,.678-.88l3.171-.866a.477.477,0,0,0,.248-.165l1.9-2.484a1.376,1.376,0,0,1,1.091-.536h3.822a6.208,6.208,0,0,0,2.6,2.154l.55.238a.463.463,0,0,0,.367,0l.619-.266c.032-.014.064-.028.092-.041l.564.9a.427.427,0,0,0,.2.174l1.714.774a.924.924,0,0,1,.541.83v1.32Z" transform="translate(500.838 -231.047)"/></g><g transform="translate(13.328 3.646)"><path class="a" d="M-440.639,246.488a.464.464,0,0,0-.646-.073l0,0-2.145,1.746-.779-.912a.458.458,0,0,0-.646-.055.458.458,0,0,0-.055.646l0,0,1.068,1.251a.063.063,0,0,0,.014.018.067.067,0,0,0,.018.018l.018.018s.014.009.018.014a.1.1,0,0,0,.023.014.058.058,0,0,1,.018.014l.023.014a.036.036,0,0,0,.018.009.066.066,0,0,0,.027.009s.014,0,.018.009.018,0,.027.009.014,0,.018,0,.018,0,.027,0,.014,0,.018,0h.1c.009,0,.023,0,.032,0a.017.017,0,0,0,.014,0c.009,0,.018,0,.027,0s.009,0,.014,0,.014,0,.023-.009.009,0,.018,0,.014,0,.018-.009.014,0,.018-.009.014,0,.018-.009a.035.035,0,0,1,.018-.009s.009-.009.018-.009a.064.064,0,0,1,.018-.014s.009,0,.014-.009l2.488-2.026A.464.464,0,0,0-440.639,246.488Z" transform="translate(445.023 -246.316)"/></g></g><g transform="matrix(0.966, 0.259, -0.259, 0.966, -593.307, 116.419)"><g transform="translate(0)"><path class="a" d="M-557.521,149.309a23.172,23.172,0,0,0-22.5-21.535V125.5a.848.848,0,0,0-.848-.848.848.848,0,0,0-.848.848v2.266a23.174,23.174,0,0,0-22.606,21.538.849.849,0,0,0,.6.859.849.849,0,0,0,.977-.371,6.709,6.709,0,0,1,5.761-3.216,6.69,6.69,0,0,1,6.112,3.874.85.85,0,0,0,.773.5.847.847,0,0,0,.771-.5,9.183,9.183,0,0,1,7.618-5.306v21.616a4.221,4.221,0,0,1-1.242,3,4.221,4.221,0,0,1-3,1.242,4.221,4.221,0,0,1-3-1.242,4.222,4.222,0,0,1-1.242-3,.848.848,0,0,0-.848-.848.848.848,0,0,0-.848.848,5.935,5.935,0,0,0,5.935,5.934,5.936,5.936,0,0,0,5.935-5.934v-21.6a9.182,9.182,0,0,1,7.509,5.294.847.847,0,0,0,.771.5.848.848,0,0,0,.771-.5,6.69,6.69,0,0,1,6.111-3.874,6.71,6.71,0,0,1,5.761,3.216.849.849,0,0,0,.977.371A.851.851,0,0,0-557.521,149.309Zm-32.024-10.7a44.4,44.4,0,0,0-1.34,8.867,8.43,8.43,0,0,0-6.1-2.59,8.44,8.44,0,0,0-5.307,1.864,21.474,21.474,0,0,1,17.038-16.878,11.437,11.437,0,0,0-.972,1.167A23.1,23.1,0,0,0-589.545,138.609Zm8.624,4.807a10.961,10.961,0,0,0-8.245,3.7,36.458,36.458,0,0,1,2.695-12.221A13.091,13.091,0,0,1-583.8,130.8a5.41,5.41,0,0,1,1.444-1.024,3.36,3.36,0,0,1,1.432-.332,3.357,3.357,0,0,1,1.432.332,6.829,6.829,0,0,1,2.5,2.255,21.462,21.462,0,0,1,3.049,7.007,42.328,42.328,0,0,1,1.256,8.071A10.962,10.962,0,0,0-580.922,143.416Zm16.066,1.469a8.432,8.432,0,0,0-6.1,2.591,38.476,38.476,0,0,0-2.863-13.272,15.26,15.26,0,0,0-2.767-4.334,21.472,21.472,0,0,1,17.041,16.878A8.443,8.443,0,0,0-564.856,144.885Z" transform="translate(604.322 -124.657)"/></g></g><g transform="translate(-611.068 145.062)"><g transform="translate(0 0)"><path class="a" d="M-580.556,239.127l-10.878-7.964a.6.6,0,0,0-.7,0l-10.878,7.964a.6.6,0,0,0-.129.833.6.6,0,0,0,.833.129l10.525-7.707,10.525,7.707a.6.6,0,0,0,.352.115.6.6,0,0,0,.482-.244A.6.6,0,0,0-580.556,239.127Z" transform="translate(603.26 -231.047)"/></g><g transform="translate(2.53 9.177)"><path class="a" d="M-578.112,259.542a.6.6,0,0,0-.6.6v9.491h-4.77v-5.18a2.985,2.985,0,0,0-2.981-2.982,2.985,2.985,0,0,0-2.982,2.982v5.18h-4.77v-9.49a.6.6,0,0,0-.6-.6.6.6,0,0,0-.6.6v10.087a.6.6,0,0,0,.6.6h5.962a.6.6,0,0,0,.594-.55c0-.014,0-.029,0-.046v-5.777a1.791,1.791,0,0,1,1.789-1.789,1.791,1.791,0,0,1,1.789,1.789v5.777a.384.384,0,0,0,0,.046.6.6,0,0,0,.594.55h5.962a.6.6,0,0,0,.6-.6V260.138A.6.6,0,0,0-578.112,259.542Z" transform="translate(595.403 -259.542)"/></g></g></g></svg>