<svg xmlns="http://www.w3.org/2000/svg" width="27.886" height="33.743" viewBox="0 0 27.886 33.743"><g transform="translate(0)"><path d="M69.129,115.625H56.559a3.8,3.8,0,1,0-5.738,0h-3a3.292,3.292,0,0,0-3.288,3.288v3.88a.658.658,0,0,0,1.315,0v-3.88a1.975,1.975,0,0,1,1.973-1.973H66.235a1.975,1.975,0,0,1,1.973,1.973v3.551h-6.84a3.288,3.288,0,0,0,0,6.577h6.84v3.551a1.975,1.975,0,0,1-1.973,1.973H47.82a1.975,1.975,0,0,1-1.973-1.973v-3.885a.658.658,0,1,0-1.315,0v3.885a3.292,3.292,0,0,0,3.288,3.288H69.129a3.292,3.292,0,0,0,3.288-3.288v-13.68A3.292,3.292,0,0,0,69.129,115.625ZM53.69,110.644a2.488,2.488,0,1,1-2.488,2.488A2.491,2.491,0,0,1,53.69,110.644Zm15.174,6.3h.265a1.975,1.975,0,0,1,1.973,1.973v3.551H69.524v-3.551A3.271,3.271,0,0,0,68.864,116.941ZM59.4,125.753a1.975,1.975,0,0,1,1.973-1.973H71.1v3.946H61.369A1.975,1.975,0,0,1,59.4,125.753Zm9.734,8.813h-.265a3.271,3.271,0,0,0,.659-1.973v-3.551H71.1v3.551A1.975,1.975,0,0,1,69.129,134.566Z" transform="translate(-44.532 -102.139)"/><path d="M288.63,349.062a.658.658,0,1,0,.465.193A.663.663,0,0,0,288.63,349.062Z" transform="translate(-271.961 -326.105)"/><path d="M275.254,29.6a3.8,3.8,0,1,0-3.8-3.8A3.808,3.808,0,0,0,275.254,29.6Zm0-6.292a2.488,2.488,0,1,1-2.488,2.488A2.491,2.491,0,0,1,275.254,23.311Z" transform="translate(-256.527 -20.549)"/><path d="M222.271,6.483a.658.658,0,0,0,.658-.658V.658a.658.658,0,1,0-1.315,0V5.826A.658.658,0,0,0,222.271,6.483Z" transform="translate(-209.967)"/><path d="M174.271,4.209a.658.658,0,0,0,.658-.658V.658a.658.658,0,1,0-1.315,0V3.551A.658.658,0,0,0,174.271,4.209Z" transform="translate(-165.124)"/><path d="M45.19,350.377a.658.658,0,1,0-.465-.193A.663.663,0,0,0,45.19,350.377Z" transform="translate(-44.532 -326.105)"/></g></svg>