<svg xmlns="http://www.w3.org/2000/svg" width="47.238" height="47.2" viewBox="0 0 47.238 47.2"><defs><style>.a{fill:#323131;}</style></defs><g transform="translate(1267.533 -293.307)"><g transform="translate(4 -20)"><path class="a" d="M-1267,351.684a2.387,2.387,0,0,0-2.385,2.385,2.388,2.388,0,0,0,2.385,2.385,2.388,2.388,0,0,0,2.385-2.385A2.388,2.388,0,0,0-1267,351.684Zm0,3.816a1.433,1.433,0,0,1-1.431-1.431,1.433,1.433,0,0,1,1.431-1.431,1.433,1.433,0,0,1,1.431,1.431A1.433,1.433,0,0,1-1267,355.5Z"/><path class="a" d="M-1267,356.692a2.627,2.627,0,0,1-2.624-2.623,2.626,2.626,0,0,1,2.624-2.623,2.626,2.626,0,0,1,2.623,2.623A2.626,2.626,0,0,1-1267,356.692Zm0-4.769a2.148,2.148,0,0,0-2.147,2.146,2.149,2.149,0,0,0,2.147,2.146,2.149,2.149,0,0,0,2.146-2.146A2.148,2.148,0,0,0-1267,351.923Zm0,3.815a1.671,1.671,0,0,1-1.67-1.669A1.671,1.671,0,0,1-1267,352.4a1.671,1.671,0,0,1,1.669,1.669A1.671,1.671,0,0,1-1267,355.738Zm0-2.861a1.193,1.193,0,0,0-1.193,1.192,1.194,1.194,0,0,0,1.193,1.192,1.194,1.194,0,0,0,1.192-1.192A1.193,1.193,0,0,0-1267,352.877Z"/><path class="a" d="M-1224.67,346.3a2.927,2.927,0,0,0-4.4-1.553l-7.549,5.024-9.414.009a2.387,2.387,0,0,1-2.385-2.384,2.389,2.389,0,0,1,2.385-2.385h2.7a3.446,3.446,0,0,0,3.491-3.094,3.339,3.339,0,0,0-3.328-3.584h-9.778a7.558,7.558,0,0,0-6.308,3.385l-.232.339a4.445,4.445,0,0,1-3.238,1.97v-2.355a1.433,1.433,0,0,0-1.431-1.431h-5.7a1.433,1.433,0,0,0-1.431,1.431v17.171a1.433,1.433,0,0,0,1.431,1.43h5.7a1.432,1.432,0,0,0,1.431-1.43v-2.385l26.568-.01a5.09,5.09,0,0,0,3.139-1.1l7.391-5.894a2.91,2.91,0,0,0,.962-3.159Zm-45.671-4.628a.478.478,0,0,1,.477-.477h5.7a.478.478,0,0,1,.477.477v9.73a4.255,4.255,0,0,0-3.328-1.622,4.256,4.256,0,0,0-3.329,1.622Zm6.658,17.171a.478.478,0,0,1-.477.477h-5.7a.478.478,0,0,1-.477-.477v-4.78a3.333,3.333,0,0,1,3.329-3.329,3.331,3.331,0,0,1,3.328,3.329c0,1.658,0,3.118,0,4.78Zm37.462-10.135,0,0-7.391,5.894a4.132,4.132,0,0,1-2.547.889l-26.567.011V344.985a5.4,5.4,0,0,0,4.03-2.4l.231-.34a6.61,6.61,0,0,1,5.517-2.963h9.778a2.385,2.385,0,0,1,2.378,2.543,2.5,2.5,0,0,1-2.541,2.227h-2.7a3.344,3.344,0,0,0-3.339,3.339,3.342,3.342,0,0,0,3.34,3.338l9.559-.009a.48.48,0,0,0,.263-.079l7.67-5.1a1.97,1.97,0,0,1,2.962,1.045,1.952,1.952,0,0,1-.641,2.121Z"/><path class="a" d="M-1264.161,360.507h-5.7a1.671,1.671,0,0,1-1.669-1.669V341.667a1.671,1.671,0,0,1,1.669-1.669h5.7a1.672,1.672,0,0,1,1.67,1.669v2.081a4.208,4.208,0,0,0,2.8-1.827l.234-.343a7.792,7.792,0,0,1,6.505-3.488h9.778a3.6,3.6,0,0,1,2.625,1.148,3.535,3.535,0,0,1,.941,2.692,3.687,3.687,0,0,1-3.728,3.314h-2.7a2.148,2.148,0,0,0-2.146,2.147,2.148,2.148,0,0,0,2.146,2.146l9.342-.01,7.489-4.983a3.118,3.118,0,0,1,2.8-.346,3.167,3.167,0,0,1,1.965,2.025,3.148,3.148,0,0,1-1.042,3.419l-7.389,5.893a5.332,5.332,0,0,1-3.288,1.147l-26.329.009v2.147A1.671,1.671,0,0,1-1264.161,360.507Zm-5.7-20.032a1.193,1.193,0,0,0-1.192,1.192v17.171a1.193,1.193,0,0,0,1.192,1.192h5.7a1.194,1.194,0,0,0,1.193-1.192v-2.624l26.806-.009a4.855,4.855,0,0,0,2.992-1.044l7.39-5.894a2.67,2.67,0,0,0,.883-2.9v0a2.687,2.687,0,0,0-1.67-1.719,2.643,2.643,0,0,0-2.371.294l-7.61,5.063-9.486.01a2.626,2.626,0,0,1-2.623-2.623,2.626,2.626,0,0,1,2.623-2.624h2.7a3.214,3.214,0,0,0,3.253-2.88,3.054,3.054,0,0,0-.816-2.324,3.117,3.117,0,0,0-2.275-1h-9.778a7.317,7.317,0,0,0-6.11,3.278l-.233.342a4.68,4.68,0,0,1-3.409,2.072l-.264.029v-2.621a1.194,1.194,0,0,0-1.193-1.192Zm5.7,19.078h-5.7a.715.715,0,0,1-.715-.715v-4.78a3.571,3.571,0,0,1,3.567-3.567,3.571,3.571,0,0,1,3.567,3.567c0,1.658,0,3.118,0,4.78A.716.716,0,0,1-1264.16,359.553Zm-2.852-8.585a3.094,3.094,0,0,0-3.091,3.09v4.78a.239.239,0,0,0,.239.238h5.7a.239.239,0,0,0,.239-.238c0-1.662,0-3.121,0-4.779A3.093,3.093,0,0,0-1267.012,350.968Zm4.045,4.769V344.766l.217-.019a5.135,5.135,0,0,0,3.852-2.294l.233-.342a6.844,6.844,0,0,1,5.714-3.067h9.778a2.634,2.634,0,0,1,1.923.841,2.574,2.574,0,0,1,.693,1.958,2.74,2.74,0,0,1-2.778,2.447h-2.7a3.1,3.1,0,0,0-3.1,3.1,3.1,3.1,0,0,0,3.1,3.1l9.559-.01a.238.238,0,0,0,.132-.04l7.669-5.1a2.176,2.176,0,0,1,1.955-.24,2.174,2.174,0,0,1,1.367,1.412,2.191,2.191,0,0,1-.7,2.366l-.016.018-.02.01-7.373,5.881a4.38,4.38,0,0,1-2.7.941Zm.477-10.538V355.26l26.328-.01a3.9,3.9,0,0,0,2.4-.838l7.38-5.885.031-.024a1.713,1.713,0,0,0,.545-1.849,1.7,1.7,0,0,0-1.071-1.1,1.708,1.708,0,0,0-1.532.186l-7.67,5.1a.713.713,0,0,1-.4.119l-9.559.01a3.582,3.582,0,0,1-3.578-3.577,3.581,3.581,0,0,1,3.577-3.578h2.7a2.267,2.267,0,0,0,2.3-2.014,2.1,2.1,0,0,0-.567-1.59,2.16,2.16,0,0,0-1.574-.688h-9.778a6.368,6.368,0,0,0-5.318,2.856l-.233.342A5.609,5.609,0,0,1-1262.49,345.2Zm-.955,6.878-.425-.531a4.016,4.016,0,0,0-3.142-1.532,4.018,4.018,0,0,0-3.143,1.532l-.424.531v-10.41a.715.715,0,0,1,.715-.715h5.7a.716.716,0,0,1,.716.715Zm-6.419-10.648a.239.239,0,0,0-.239.238v9.117a4.468,4.468,0,0,1,3.091-1.247,4.465,4.465,0,0,1,3.09,1.247v-9.117a.239.239,0,0,0-.239-.238Z"/><path class="a" d="M-1232.7,325.98l-1.354-1.344a1.46,1.46,0,0,0-2.019,0l-6.2,6.189-2.248-2.239a1.46,1.46,0,0,0-2.018,0l-1.356,1.346a1.45,1.45,0,0,0,0,2.03l4.607,4.6a1.437,1.437,0,0,0,2.029,0l8.557-8.557A1.427,1.427,0,0,0-1232.7,325.98Zm-.674,1.346-8.557,8.557a.5.5,0,0,1-.68,0l-4.6-4.593a.483.483,0,0,1-.006-.684l1.355-1.346a.475.475,0,0,1,.672,0l2.585,2.576a.478.478,0,0,0,.674,0l6.534-6.525a.484.484,0,0,1,.672,0l1.353,1.344a.47.47,0,0,1,0,.67Z"/><path class="a" d="M-1242.267,337.216a1.657,1.657,0,0,1-1.183-.49l-4.606-4.6a1.693,1.693,0,0,1,0-2.368l1.356-1.346a1.667,1.667,0,0,1,1.177-.474h0a1.675,1.675,0,0,1,1.178.475l2.079,2.071,6.028-6.021a1.675,1.675,0,0,1,1.181-.475,1.671,1.671,0,0,1,1.176.475l1.353,1.344a1.656,1.656,0,0,1,.491,1.181,1.655,1.655,0,0,1-.489,1.178l-8.557,8.556A1.655,1.655,0,0,1-1242.267,337.216Zm-3.257-8.8a1.19,1.19,0,0,0-.84.334l-1.357,1.347a1.213,1.213,0,0,0,0,1.7l4.6,4.594a1.184,1.184,0,0,0,.846.35,1.182,1.182,0,0,0,.846-.35l8.557-8.556a1.183,1.183,0,0,0,.349-.841,1.183,1.183,0,0,0-.351-.843l-1.353-1.344a1.187,1.187,0,0,0-.84-.336h0a1.193,1.193,0,0,0-.842.335l-6.365,6.358-2.416-2.407a1.19,1.19,0,0,0-.841-.336Zm3.257,7.839a.721.721,0,0,1-.508-.2l-4.6-4.594a.721.721,0,0,1-.006-1.021l1.356-1.347a.717.717,0,0,1,1.008,0l2.585,2.576a.238.238,0,0,0,.337,0l6.534-6.525a.71.71,0,0,1,.5-.2h0a.711.711,0,0,1,.5.206l1.353,1.344a.7.7,0,0,1,.211.5.709.709,0,0,1-.21.5l-8.557,8.557A.72.72,0,0,1-1242.267,336.258Zm-3.258-6.9a.235.235,0,0,0-.167.07l-1.356,1.347a.243.243,0,0,0,.009.348l4.6,4.591a.257.257,0,0,0,.343,0l8.557-8.558a.23.23,0,0,0,.07-.165.23.23,0,0,0-.07-.165l-1.354-1.345a.239.239,0,0,0-.168-.067h0a.233.233,0,0,0-.166.066l-6.535,6.525a.717.717,0,0,1-1.011,0l-2.584-2.575A.243.243,0,0,0-1245.525,329.359Z"/><path class="a" d="M-1253.46,336.768a19.7,19.7,0,0,1-1.617-8.169l.009-7.822a1.462,1.462,0,0,1,1.357-1.422,5.2,5.2,0,0,0,4.677-4.453.457.457,0,0,1,.452-.4H-1232a.463.463,0,0,1,.455.407,5.2,5.2,0,0,0,4.679,4.457,1.435,1.435,0,0,1,1.363,1.423V328.6c0,8.9-4.664,15.125-14.251,19.035a1.527,1.527,0,0,1-1.111,0c-1.217-.516-2.347-1.052-3.358-1.593l-.451.841c1.036.556,2.192,1.1,3.441,1.633a2.488,2.488,0,0,0,1.83.01c9.994-4.077,14.853-10.593,14.853-19.922v-7.812a2.39,2.39,0,0,0-2.259-2.375,4.235,4.235,0,0,1-3.793-3.646,1.407,1.407,0,0,0-1.4-1.22h-16.579a1.406,1.406,0,0,0-1.4,1.215,4.233,4.233,0,0,1-3.8,3.641,2.4,2.4,0,0,0-2.247,2.374l-.009,7.822a20.661,20.661,0,0,0,1.7,8.563Z"/><path class="a" d="M-1240.314,348.927a2.67,2.67,0,0,1-1.012-.2c-1.26-.534-2.424-1.087-3.463-1.643l-.211-.113.677-1.262.21.113c1,.537,2.126,1.069,3.338,1.583a1.276,1.276,0,0,0,.932,0c9.486-3.869,14.1-10.023,14.1-18.812v-7.812a1.2,1.2,0,0,0-1.138-1.184,5.443,5.443,0,0,1-4.9-4.66.225.225,0,0,0-.219-.2h-16.579a.218.218,0,0,0-.216.2,5.437,5.437,0,0,1-4.9,4.658,1.218,1.218,0,0,0-1.133,1.184l-.01,7.822a19.463,19.463,0,0,0,1.6,8.07l.1.218-1.3.588-.1-.217a20.882,20.882,0,0,1-1.724-8.661l.01-7.822a2.638,2.638,0,0,1,2.469-2.612,4,4,0,0,0,3.577-3.44,1.64,1.64,0,0,1,1.632-1.416H-1232a1.643,1.643,0,0,1,1.634,1.425,3.992,3.992,0,0,0,3.573,3.441,2.626,2.626,0,0,1,2.482,2.613V328.6c0,9.436-4.907,16.025-15,20.143A2.767,2.767,0,0,1-1240.314,348.927Zm-4.039-2.148c.972.512,2.051,1.02,3.21,1.512a2.249,2.249,0,0,0,1.65.007c9.892-4.035,14.7-10.48,14.7-19.7v-7.812a2.15,2.15,0,0,0-2.034-2.137,4.473,4.473,0,0,1-4.016-3.847,1.17,1.17,0,0,0-1.162-1.018h-16.579a1.168,1.168,0,0,0-1.161,1.01,4.472,4.472,0,0,1-4.017,3.845,2.16,2.16,0,0,0-2.023,2.136l-.01,7.823a20.545,20.545,0,0,0,1.585,8.246l.434-.2a20.082,20.082,0,0,1-1.542-8.049l.01-7.822a1.7,1.7,0,0,1,1.579-1.66,4.957,4.957,0,0,0,4.457-4.252.693.693,0,0,1,.688-.6H-1232a.7.7,0,0,1,.691.61,4.96,4.96,0,0,0,4.459,4.254,1.674,1.674,0,0,1,1.586,1.661V328.6c0,9.005-4.711,15.3-14.4,19.256a1.765,1.765,0,0,1-1.291,0c-1.144-.485-2.208-.986-3.17-1.492Z"/><path class="a" d="M-1239.672,345.52c8.364-3.635,12.258-9.012,12.258-16.922v-6.229a1.407,1.407,0,0,0-.992-1.354,7.175,7.175,0,0,1-4.386-3.762,1.437,1.437,0,0,0-1.3-.846h-12.392a1.443,1.443,0,0,0-1.307.842,7.129,7.129,0,0,1-4.38,3.756,1.416,1.416,0,0,0-.991,1.363l-.009,6.23a17.111,17.111,0,0,0,2.025,8.551l.833-.464a16.185,16.185,0,0,1-1.905-8.086l.01-6.23a.462.462,0,0,1,.305-.448,8.1,8.1,0,0,0,4.972-4.26.5.5,0,0,1,.447-.3h12.391a.491.491,0,0,1,.44.3,8.124,8.124,0,0,0,4.977,4.265.454.454,0,0,1,.307.439V328.6c0,7.483-3.714,12.582-11.685,16.047Z"/><path class="a" d="M-1239.8,345.834l-.571-1.312.219-.1c7.874-3.424,11.541-8.453,11.541-15.829v-6.229a.219.219,0,0,0-.134-.21,8.364,8.364,0,0,1-5.126-4.389.26.26,0,0,0-.225-.17h-12.391a.262.262,0,0,0-.231.163,8.34,8.34,0,0,1-5.121,4.387.23.23,0,0,0-.134.219l-.009,6.231a15.953,15.953,0,0,0,1.874,7.968l.116.209-1.249.7-.116-.209a17.328,17.328,0,0,1-2.056-8.667l.01-6.23a1.654,1.654,0,0,1,1.162-1.592,6.889,6.889,0,0,0,4.232-3.632,1.675,1.675,0,0,1,1.522-.975h12.392a1.672,1.672,0,0,1,1.515.983,6.928,6.928,0,0,0,4.237,3.634,1.647,1.647,0,0,1,1.164,1.583V328.6c0,8.016-3.941,13.463-12.4,17.141Zm.056-1.066.191.437c8.115-3.591,11.9-8.873,11.9-16.607v-6.229a1.172,1.172,0,0,0-.821-1.126,7.4,7.4,0,0,1-4.533-3.885,1.2,1.2,0,0,0-1.085-.712h-12.392a1.205,1.205,0,0,0-1.092.7,7.37,7.37,0,0,1-4.528,3.884,1.174,1.174,0,0,0-.819,1.134l-.01,6.231a16.989,16.989,0,0,0,1.88,8.225l.417-.232a16.539,16.539,0,0,1-1.82-7.993l.01-6.23a.7.7,0,0,1,.476-.677,7.859,7.859,0,0,0,4.825-4.135.734.734,0,0,1,.661-.434h12.391a.724.724,0,0,1,.655.44,7.891,7.891,0,0,0,4.829,4.139.686.686,0,0,1,.478.667V328.6C-1228.13,336.118-1231.821,341.262-1239.74,344.768Z"/></g></g></svg>