<svg xmlns="http://www.w3.org/2000/svg" width="26.801" height="26.801" viewBox="0 0 26.801 26.801"><defs><style>.a{fill:#fff;}</style></defs><path class="a" d="M13.4,0A13.4,13.4,0,1,0,26.8,13.4,13.4,13.4,0,0,0,13.4,0ZM9.506,20.258H6.243V10.439H9.506ZM7.875,9.1H7.853A1.7,1.7,0,1,1,7.9,5.706,1.7,1.7,0,1,1,7.875,9.1Zm13.4,11.159H18.011V15c0-1.32-.473-2.22-1.653-2.22a1.787,1.787,0,0,0-1.674,1.194,2.235,2.235,0,0,0-.107.8v5.483H11.312s.043-8.9,0-9.819h3.263v1.39a3.24,3.24,0,0,1,2.941-1.621c2.147,0,3.757,1.4,3.757,4.419Zm0,0"/></svg>