<svg xmlns="http://www.w3.org/2000/svg" width="47.074" height="47.069" viewBox="0 0 47.074 47.069"><defs><style>.a{fill:#fff;}</style></defs><g transform="translate(-0.001 -0.022)"><g transform="translate(21.184 13.358)"><path class="a" d="M220.625,141.745a2.231,2.231,0,0,0-1.137-1.335l-1.529-.765a.67.67,0,0,1,.3-1.269h.229a.671.671,0,0,1,.67.67v.115h1.569v-.115a2.235,2.235,0,0,0-1.569-2.125v-.9h-1.569v.9a2.231,2.231,0,0,0-.331,4.128l1.529.765a.67.67,0,0,1-.3,1.269h-.229a.671.671,0,0,1-.67-.67V142.3h-1.569v.115a2.235,2.235,0,0,0,1.569,2.125v.9h1.569v-.9A2.231,2.231,0,0,0,220.625,141.745Z" transform="translate(-216.019 -136.022)"/></g><g transform="translate(13.341 3.16)"><path class="a" d="M154.873,41.5V35.16H153.3v6.572a.784.784,0,0,0,.131.434,8.629,8.629,0,1,1-12.944-1.658.784.784,0,0,0,.261-.584v-7.9h-1.569v7.561a10.2,10.2,0,1,0,15.69,1.917Z" transform="translate(-136.048 -32.022)"/></g><g transform="translate(21.184 2.375)"><path class="a" d="M222.3,24.022V30.3a10.227,10.227,0,0,0-3.922-.784c-.256,0-.516.012-.784.035V25.591h-1.569v4.848a.785.785,0,0,0,.278.6.8.8,0,0,0,.637.175,8.482,8.482,0,0,1,5.753,1.02.785.785,0,0,0,1.177-.679V24.022Z" transform="translate(-216.021 -24.022)"/></g><g transform="translate(24.322 0.806)"><rect class="a" width="1.569" height="3.138"/></g><g transform="translate(19.397 28.623)"><path class="a" d="M210.094,291.686a13.208,13.208,0,0,1-8.149,2.779,13.376,13.376,0,0,1-3.705-.521l-.435,1.508a14.947,14.947,0,0,0,4.14.582,14.762,14.762,0,0,0,9.109-3.107Z" transform="translate(-197.805 -291.686)"/></g><g transform="translate(12.427 6.267)"><path class="a" d="M128.725,63.7a15.029,15.029,0,0,0-2,1.862l1.17,1.047a13.539,13.539,0,0,1,1.79-1.667Z" transform="translate(-126.725 -63.702)"/></g><g transform="translate(16.477 0.022)"><g transform="translate(0 0)"><rect class="a" width="1.569" height="1.569"/></g></g><g transform="translate(30.598 3.16)"><rect class="a" width="1.569" height="1.569"/></g><g transform="translate(27.46 17.281)"><rect class="a" width="1.569" height="1.569"/></g><g transform="translate(18.046 17.281)"><rect class="a" width="1.569" height="1.569"/></g><g transform="translate(16.085 29.618)"><path class="a" d="M164.814,301.838l-.784,1.357a14.827,14.827,0,0,0,1.655.826l.61-1.447A13.125,13.125,0,0,1,164.814,301.838Z" transform="translate(-164.029 -301.838)"/></g><g transform="translate(32.167 6.296)"><path class="a" d="M342.032,77.978l-4.621-12.119a2.855,2.855,0,0,0-1.527-1.6,2.907,2.907,0,0,0-2.252-.046,2.86,2.86,0,0,0-1.6,1.562,2.809,2.809,0,0,0,0,2.2l2.16,5.087a2.717,2.717,0,0,0-.289-.027,2.746,2.746,0,0,0-2.746,2.746v6.085a3.99,3.99,0,0,1-.419,1.774,18.418,18.418,0,0,0-1.935,8.2v1.989a.785.785,0,0,0-.784.784v6.276a.785.785,0,0,0,.784.784V104.8h1.569v-3.138h7.845V104.8h1.569v-3.138a.785.785,0,0,0,.785-.784V94.6a.785.785,0,0,0-.785-.784h-.3l2.432-5.857A13.576,13.576,0,0,0,342.032,77.978ZM339,100.095H329.59V95.388H339Zm1.467-12.73-2.681,6.454h-7.416V91.83a16.843,16.843,0,0,1,1.769-7.494,5.552,5.552,0,0,0,.584-2.475V75.775a1.177,1.177,0,0,1,2.323-.259c.009.1.031.2.031.308v9.365h1.569V75.775c0-.016,0-.031,0-.047a4.832,4.832,0,0,0-.384-1.811l-2.784-6.559a1.249,1.249,0,0,1,0-.978,1.3,1.3,0,0,1,.73-.706,1.343,1.343,0,0,1,1.043.021,1.3,1.3,0,0,1,.7.726l4.621,12.119A12.01,12.01,0,0,1,340.471,87.365Z" transform="translate(-328.021 -64.007)"/></g><g transform="translate(40.011 39.246)"><rect class="a" width="1.569" height="1.569"/></g><g transform="translate(0.001 6.297)"><g transform="translate(0)"><path class="a" d="M14.123,93.822V91.833a18.418,18.418,0,0,0-1.935-8.2,3.99,3.99,0,0,1-.419-1.774V75.778a2.746,2.746,0,0,0-2.746-2.746,2.714,2.714,0,0,0-.289.029l2.16-5.087a2.812,2.812,0,0,0,0-2.2,2.86,2.86,0,0,0-1.6-1.562,2.911,2.911,0,0,0-2.251.046,2.858,2.858,0,0,0-1.528,1.6L.9,77.981A13.579,13.579,0,0,0,1.01,87.97l2.43,5.852h-.3a.785.785,0,0,0-.784.784v6.276a.785.785,0,0,0,.784.784V104.8H4.709v-3.138h7.845V104.8h1.569v-3.138a.785.785,0,0,0,.784-.784V94.606A.785.785,0,0,0,14.123,93.822ZM2.46,87.373a12.012,12.012,0,0,1-.1-8.833L6.984,66.422a1.3,1.3,0,0,1,.7-.726,1.34,1.34,0,0,1,1.043-.021,1.3,1.3,0,0,1,.73.706,1.25,1.25,0,0,1,0,.981l-2.78,6.559a4.833,4.833,0,0,0-.384,1.811c0,.016,0,.031,0,.047v9.414H7.851V75.827c0-.1.021-.2.031-.308a1.177,1.177,0,0,1,2.319.259v6.085a5.552,5.552,0,0,0,.584,2.475,16.842,16.842,0,0,1,1.769,7.494v1.989H5.138ZM13.339,100.1H3.925V95.391h9.414Z" transform="translate(-0.001 -64.01)"/></g></g><g transform="translate(5.494 39.246)"><rect class="a" width="1.569" height="1.569"/></g></g></svg>