<svg xmlns="http://www.w3.org/2000/svg" width="47" height="47" viewBox="0 0 47 47"><defs><style>.a{fill:#323131;}</style></defs><g transform="translate(-2 -2)"><path class="a" d="M48.293,6.8,49.4,7.9l.725-.725a2.077,2.077,0,0,1,1.48-.613h1.159V5H51.6A3.634,3.634,0,0,0,49.02,6.072Z" transform="translate(-10.03 -0.65)"/><g transform="translate(2 2)"><g transform="translate(0 25.066)"><path class="a" d="M45.686,35.657a.783.783,0,0,0-.266.1c-.732.29-3.553,1.488-15.219,6.568V41.05a.783.783,0,0,0-.414-.692l-11.75-6.267a.783.783,0,0,0-.687-.024l-6.225,2.767a2.334,2.334,0,0,0-4.279.3H2.783A.783.783,0,0,0,2,37.917V53.583a.783.783,0,0,0,.483.724.773.773,0,0,0,.3.06.783.783,0,0,0,.554-.229l3.845-3.844a2.328,2.328,0,0,0,3.95-.342L25.2,55.873a.772.772,0,0,0,.3.06.783.783,0,0,0,.444-.139L47.782,40.737a2.807,2.807,0,0,0-2.1-5.075ZM3.567,38.7H6.7v9.859L3.567,51.692ZM9.833,48.883a.783.783,0,0,1-1.567,0V37.917a.783.783,0,0,1,1.567,0ZM46.9,39.441,25.408,54.262,11.4,48.363V38.426l6.235-2.771,11,5.866v1.1a.783.783,0,0,1-.783.783H17.667v1.567H27.85a2.327,2.327,0,0,0,1.5-.56c6.434-2.8,16.07-6.987,16.7-7.221a1.238,1.238,0,0,1,.94.287,1.209,1.209,0,0,1,.438.953,1.249,1.249,0,0,1-.538,1.015Z" transform="translate(-2 -34)"/></g><g transform="translate(15.667)"><path class="a" d="M52.55,2H45.5a5.145,5.145,0,0,0-4.394,2.439.673.673,0,0,0-.058.107L38.723,9.833H23.543A1.546,1.546,0,0,0,22,11.376v9.447a1.546,1.546,0,0,0,1.543,1.543H43.957A1.546,1.546,0,0,0,45.5,20.823V16.665a2.051,2.051,0,0,0,.317-.25L49.05,13.75h.367a3.921,3.921,0,0,0,3.917-3.917V2.783A.783.783,0,0,0,52.55,2ZM23.567,20.823,23.543,11.4l20.39-.024v.513l-1.3,1.289a2.216,2.216,0,0,0,0,3.2,2.314,2.314,0,0,0,1.3.62l.02,3.805Zm28.2-10.99a2.35,2.35,0,0,1-2.35,2.35h-.648a.783.783,0,0,0-.5.179l-3.5,2.885a.772.772,0,0,1-1.05,0,.645.645,0,0,1-.2-.47.661.661,0,0,1,.21-.479l4.833-4.8L47.458,8.389l-2.193,2.179a1.537,1.537,0,0,0-1.308-.735H40.432l2.023-4.6A3.556,3.556,0,0,1,45.5,3.567h6.267Z" transform="translate(-22 -2)"/><path class="a" d="M37.05,17H35.483a1.567,1.567,0,0,0-1.567,1.567v1.567H32.35V17H30.783v1.567H30v1.567h.783A1.567,1.567,0,0,0,32.35,21.7h1.567a1.567,1.567,0,0,0,1.567-1.567V18.567H37.05V21.7h1.567V20.133H39.4V18.567h-.783A1.567,1.567,0,0,0,37.05,17Z" transform="translate(-23.733 -5.25)"/></g></g><path class="a" d="M36,34h1.567v4.7H36Z" transform="translate(-7.367 -6.933)"/><path class="a" d="M36,30h1.567v1.567H36Z" transform="translate(-7.367 -6.067)"/><path class="a" d="M42,34h1.567v3.133H42Z" transform="translate(-8.667 -6.933)"/><path class="a" d="M42,30h1.567v1.567H42Z" transform="translate(-8.667 -6.067)"/><path class="a" d="M30,34h1.567v1.567H30Z" transform="translate(-6.067 -6.933)"/><path class="a" d="M30,30h1.567v1.567H30Z" transform="translate(-6.067 -6.067)"/></g></svg>