<svg xmlns="http://www.w3.org/2000/svg" width="32" height="32" viewBox="0 0 32 32"><path d="M16,32A16,16,0,1,1,32,16,16.018,16.018,0,0,1,16,32ZM16,2.667A13.333,13.333,0,1,0,29.333,16,13.348,13.348,0,0,0,16,2.667Z"/><path d="M9.667,12.333a2.667,2.667,0,1,1,2.667-2.667A2.669,2.669,0,0,1,9.667,12.333Z" transform="translate(2.333 2.333)"/><path d="M15.667,18.333a2.667,2.667,0,1,1,2.667-2.667A2.669,2.669,0,0,1,15.667,18.333Z" transform="translate(4.333 4.333)"/><path d="M9.332,20.333A1.333,1.333,0,0,1,8.267,18.2l8-10.667a1.333,1.333,0,1,1,2.133,1.6L10.4,19.8a1.331,1.331,0,0,1-1.068.533Z" transform="translate(2.667 2.333)"/></svg>