<svg xmlns="http://www.w3.org/2000/svg" width="67.88" height="84" viewBox="0 0 67.88 84"><g transform="translate(-49.128)"><path d="M84.758,132.563v7.56a6.519,6.519,0,0,0-3.774,3.418l-3.242,6.952a11.474,11.474,0,0,0,2.513,13.193l9.425,8.924v15.079a1.641,1.641,0,0,0,1.641,1.641H98.7a1.641,1.641,0,0,0,0-3.281H92.961V171.9a1.64,1.64,0,0,0-.513-1.191L82.511,161.3a8.2,8.2,0,0,1-1.8-9.424l3.241-6.95a3.278,3.278,0,0,1,4.362-1.589l16.207,7.557a8.219,8.219,0,0,1-10.059,2.552l-4.461-2.08a1.641,1.641,0,0,0-1.387,2.974l4.461,2.08a11.4,11.4,0,0,0,6.005,1.014,20.044,20.044,0,0,1,5.36,13.7,1.641,1.641,0,0,0,3.281,0A23.293,23.293,0,0,0,102.6,156.5a11.438,11.438,0,0,0,5.737-5.632l0,0a6.545,6.545,0,0,0,6.576-.73,6.558,6.558,0,0,0,8.756,3.118,73.771,73.771,0,0,1-1.945,8.41c-1.238,4.529-2.519,9.212-2.519,15.2v9.188h-5.742a1.641,1.641,0,1,0,0,3.281h7.383a1.641,1.641,0,0,0,1.641-1.641V176.86c0-5.546,1.167-9.814,2.4-14.333s2.519-9.212,2.519-15.2v-9.844a6.559,6.559,0,0,0-10.475-5.265,6.556,6.556,0,0,0-9.844-2.461,6.556,6.556,0,0,0-10.854-1.529,6.558,6.558,0,0,0-11.484,4.334Zm32.813,4.922a3.281,3.281,0,0,1,6.563,0v9.844a3.281,3.281,0,1,1-6.563,0Zm-9.844-2.461a3.281,3.281,0,0,1,6.563,0v9.844a3.281,3.281,0,0,1-6.563,0Zm-9.844-2.461a3.281,3.281,0,1,1,6.562,0v12.3A6.522,6.522,0,0,0,105,147.5l-7.114-3.317Zm-9.844,0a3.281,3.281,0,0,1,6.563,0V142.65l-4.9-2.282a6.563,6.563,0,0,0-1.667-.521Z" transform="translate(-23.018 -105.328)"/><path d="M249.281,7.547V1.641a1.641,1.641,0,1,0-3.281,0V7.547a1.641,1.641,0,1,0,3.281,0Z" transform="translate(-164.572)"/><path d="M145.92,41.453a1.641,1.641,0,0,0,.6-2.241l-2.461-4.264a1.641,1.641,0,1,0-2.842,1.64l2.461,4.264A1.641,1.641,0,0,0,145.92,41.453Z" transform="translate(-76.798 -28.528)"/><path d="M55.853,113.679l-4.264-2.461a1.641,1.641,0,0,0-1.64,2.842l4.264,2.461a1.641,1.641,0,0,0,1.64-2.842Z" transform="translate(0 -92.787)"/><path d="M339.06,40.853l2.461-4.264a1.641,1.641,0,1,0-2.842-1.64l-2.461,4.264a1.641,1.641,0,1,0,2.842,1.64Z" transform="translate(-239.805 -28.529)"/><path d="M419.339,116.52l4.264-2.461a1.641,1.641,0,0,0-1.64-2.842l-4.264,2.461a1.641,1.641,0,0,0,1.64,2.842Z" transform="translate(-307.416 -92.787)"/><circle cx="1.641" cy="1.641" r="1.641" transform="translate(81.428 80.719)"/></g></svg>