<svg xmlns="http://www.w3.org/2000/svg" width="47.2" height="47.2" viewBox="0 0 47.2 47.2"><defs><style>.a{fill:#323131;}</style></defs><g transform="translate(-16 -16)"><path class="a" d="M64,448h1.333v1.333H64Z" transform="translate(-44 -388.8)"/><path class="a" d="M112,424h1.333v1.333H112Z" transform="translate(-86.51 -366.8)"/><path class="a" d="M96,328h1.333v1.333H96Z" transform="translate(-73.333 -281.159)"/><path class="a" d="M48,352h1.333v1.333H48Z" transform="translate(-29.333 -302.786)"/><path class="a" d="M160,440h1.333v1.333H160Z" transform="translate(-129.765 -381.467)"/><path class="a" d="M224,408h1.333v1.333H224Z" transform="translate(-187.439 -352.133)"/><path class="a" d="M440,440h1.333v1.333H440Z" transform="translate(-381.466 -381.467)"/><path class="a" d="M272,432h1.333v1.333H272Z" transform="translate(-230.694 -374.133)"/><path class="a" d="M416,392h1.333v1.333H416Z" transform="translate(-359.466 -338.832)"/><path class="a" d="M80,240h1.333v1.333H80Z" transform="translate(-58.667 -201.858)"/><path class="a" d="M112,240h1.333v1.333H112Z" transform="translate(-86.51 -201.858)"/><path class="a" d="M176,232h1.333v2H176Z" transform="translate(-144.184 -194.59)"/><path class="a" d="M208,232h1.333v2H208Z" transform="translate(-173.021 -194.59)"/><path class="a" d="M62.188,24.948,53.4,16.834A3.139,3.139,0,0,0,51.264,16h-15.6a3.15,3.15,0,0,0-3.147,3.147v11.8H19.933a.787.787,0,0,0-.787.787v13.3L16.364,46.8a.786.786,0,0,0-.364.664V62.413a.787.787,0,0,0,.787.787H62.413a.787.787,0,0,0,.787-.787V27.26a3.155,3.155,0,0,0-1.012-2.312Zm-28.094-5.8a1.575,1.575,0,0,1,1.573-1.573h15.6c.046,0,.091,0,.136.006v6.287a3.15,3.15,0,0,0,3.147,3.147H58.48V25.44H54.547a1.575,1.575,0,0,1-1.573-1.573V18.583L61.121,26.1a1.577,1.577,0,0,1,.506,1.156V51.54l-2.8-1.781a19.7,19.7,0,0,0-13.213-2.9l-4.093-2.6A19.758,19.758,0,0,0,39.6,43.176V35.667a.787.787,0,0,0-.283-.6L34.6,31.129a.785.785,0,0,0-.5-.182Zm3.933,16.888v6.454a19.669,19.669,0,0,0-7.08-1.316q-.394,0-.787.016V36.035l3.933-3.278Zm-9.44,5.138H20.72v-4.72h7.867Zm-5.355,1.573a19.722,19.722,0,0,0-2.512,1.29v-1.29Zm7.715,0q.79,0,1.573.068v9.372H29.373V42.815Q30.156,42.747,30.947,42.747Zm3.147.275a18.1,18.1,0,0,1,6.583,2.559l2.693,1.714a19.68,19.68,0,0,0-5.692,2.465l-3.585,2.281Zm14.16,5.232a18.157,18.157,0,0,1,2.357.154l0,13.219H46.68V48.321q.782-.068,1.573-.068ZM20.72,32.52h11.2l-2.832,2.36H20.72Zm.5,13.06A18.1,18.1,0,0,1,27.8,43.021v9.165H17.573V47.9Zm-3.643,8.18h16.52a.786.786,0,0,0,.422-.123l4.007-2.55a18.1,18.1,0,0,1,6.583-2.559v13.1H17.573Zm44.053,7.867h-9.44V48.685a18.1,18.1,0,0,1,5.8,2.4L61.627,53.4Z" transform="translate(0 0)"/><path class="a" d="M408,192h3.333v1.333H408Z" transform="translate(-352.133 -158.602)"/><path class="a" d="M320,192h6v1.333h-6Z" transform="translate(-273.302 -158.602)"/><path class="a" d="M272,192h2.667v1.333H272Z" transform="translate(-230.552 -158.602)"/><path class="a" d="M344,240h8.667v1.333H344Z" transform="translate(-293.466 -201.858)"/><path class="a" d="M272,240h4.667v1.333H272Z" transform="translate(-230.319 -201.858)"/><path class="a" d="M376,288h6v1.333h-6Z" transform="translate(-322.8 -245.113)"/><path class="a" d="M304,288h4.667v1.333H304Z" transform="translate(-259.109 -245.113)"/><path class="a" d="M232,64h1.333v1.333H232Z" transform="translate(-194.648 -44)"/><path class="a" d="M264,64h6.667v1.333H264Z" transform="translate(-222.869 -44)"/><path class="a" d="M232,104h5.333v1.333H232Z" transform="translate(-194.261 -79.301)"/><path class="a" d="M312,104h2.667v1.333H312Z" transform="translate(-266.576 -79.301)"/></g></svg>