<svg xmlns="http://www.w3.org/2000/svg" width="55.411" height="47.1" viewBox="0 0 55.411 47.1"><defs><style>.a{fill:#323131;}</style></defs><g transform="translate(-0.001 -38.396)"><g transform="translate(0.001 38.396)"><g transform="translate(0 0)"><path class="a" d="M27.706,38.4A22.165,22.165,0,0,0,5.542,60.561c0,.289.024.571.043.855L2.366,58.2A1.385,1.385,0,0,0,.407,60.155L5.948,65.7a1.386,1.386,0,0,0,1.959,0l5.541-5.541A1.385,1.385,0,0,0,11.489,58.2L8.365,61.321c-.013-.255-.053-.5-.053-.76a19.382,19.382,0,0,1,38.117-4.978,3.887,3.887,0,0,1,2.733-.5A22.154,22.154,0,0,0,27.706,38.4Z" transform="translate(-0.001 -38.396)"/></g></g><g transform="translate(6.251 57.79)"><g transform="translate(0 0)"><path class="a" d="M106.505,223.543,100.964,218A1.387,1.387,0,0,0,99,218l-5.541,5.541a1.385,1.385,0,1,0,1.959,1.959l3.124-3.124c.013.255.053.5.053.76a19.382,19.382,0,0,1-38.117,4.978,3.887,3.887,0,0,1-2.733.5,22.152,22.152,0,0,0,43.62-5.475c0-.289-.024-.571-.043-.855l3.219,3.219a1.385,1.385,0,0,0,1.96-1.959Z" transform="translate(-57.749 -217.596)"/></g></g></g></svg>