<svg xmlns="http://www.w3.org/2000/svg" width="81.387" height="81.672" viewBox="0 0 81.387 81.672"><g transform="translate(-0.894)"><path d="M246.642,10.378a1.606,1.606,0,0,0,1.606-1.606V1.606a1.606,1.606,0,0,0-3.213,0V8.772a1.607,1.607,0,0,0,1.606,1.606Z" transform="translate(-205.198)"/><path d="M80.713,124.239l-2.838-2.83a5.38,5.38,0,0,0-6.365-.908l-5.348-5.342.26-.26a5.576,5.576,0,0,0,0-7.873,5.515,5.515,0,0,0-2.8-1.512,5.61,5.61,0,0,0,.222-1.563A5.563,5.563,0,0,0,59.422,98.5a5.609,5.609,0,0,0,.222-1.563,5.558,5.558,0,0,0-4.425-5.446,5.559,5.559,0,0,0-5.942-7.1l-10.6-2.006c-1.616-.307-3.635-.509-4.909.653a2.9,2.9,0,0,0-.243.252,5.587,5.587,0,0,0-5.861,1.289,5.527,5.527,0,0,0-1.628,3.938,5.617,5.617,0,0,0,.221,1.563,5.564,5.564,0,0,0-4.424,5.443,5.6,5.6,0,0,0,.222,1.567,5.57,5.57,0,0,0-3.453,8.6,5.567,5.567,0,0,0-2.138,9.209l.26.258L11.377,120.5A5.371,5.371,0,0,0,5.3,121.552l-2.84,2.832a5.367,5.367,0,0,0,0,7.578L6,135.5a1.606,1.606,0,1,0,2.271-2.273l-3.544-3.54a2.154,2.154,0,0,1,0-3.031l2.84-2.832a2.151,2.151,0,0,1,2.62-.321,1.619,1.619,0,0,0,.2.247,1.6,1.6,0,0,0,.462.321l16.285,16.261a1.582,1.582,0,0,0,.774.783,2.15,2.15,0,0,1-.089,2.933l-2.837,2.834a2.158,2.158,0,0,1-3.037,0l-3.544-3.544a1.606,1.606,0,0,0-2.272,2.272l3.547,3.547a5.379,5.379,0,0,0,7.576,0l2.839-2.835a5.372,5.372,0,0,0,.752-6.634l6.019-6.012.019-.02c.689-.713,2.609-.579,4.465-.45a23.1,23.1,0,0,0,4.226.028l6.592,6.584a5.369,5.369,0,0,0,.911,6.36l2.839,2.835a5.372,5.372,0,0,0,7.577,0l17.218-17.2a5.366,5.366,0,0,0,0-7.579ZM38.081,85.548l6.969,1.319-4.171,4.17a10.127,10.127,0,0,1-2.5-1.817,7.391,7.391,0,0,1-2.364-3.652h0a1.4,1.4,0,0,1-.007-.158,5.443,5.443,0,0,1,2.074.14Zm-8.145,1.31a2.37,2.37,0,0,1,3-.284,11.491,11.491,0,0,0,3.224,4.968,11.9,11.9,0,0,0,4.628,2.868,2.358,2.358,0,0,1-3.6,3.011h0l-7.245-7.232a2.366,2.366,0,0,1,0-3.33Zm-4.2,7.01a2.369,2.369,0,0,1,3.338,0l5.834,5.822a2.361,2.361,0,0,1-3.342,3.336h0L27.143,98.6l-.021-.02L25.737,97.2a2.357,2.357,0,0,1,0-3.331Zm-4.206,7.009a2.377,2.377,0,0,1,3.327-.011L29.3,105.3a2.358,2.358,0,0,1-3.341,3.328l-1.609-1.607h0l-2.815-2.812a2.363,2.363,0,0,1,0-3.334Zm-2.8,8.42a2.375,2.375,0,0,1,3.343,0l1.612,1.61a2.358,2.358,0,0,1-3.342,3.327l-.2-.2-.007-.008-.009-.008-1.392-1.387a2.359,2.359,0,0,1,0-3.332Zm32.738,18.258a1.606,1.606,0,0,0-2.272,0l-1.429,1.427c-1.358,1.358-3.819,1.187-6.2,1.022-2.584-.18-5.257-.365-6.986,1.41l-5.917,5.91-14.8-14.775,5.237-5.227a5.571,5.571,0,0,0,8.48-4.751c0-.014,0-.028,0-.041h.042a5.557,5.557,0,0,0,5.569-5.563c0-.014,0-.028,0-.041h.042a5.551,5.551,0,0,0,5.569-5.605h.043a5.573,5.573,0,0,0,4.755-8.47l4.59-4.588a2.357,2.357,0,0,1,1.206-.643c.048-.005.1-.013.142-.022a2.354,2.354,0,0,1,2,4l-1.4,1.392L50.133,93l-1.61,1.607a1.606,1.606,0,0,0,2.27,2.273l1.4-1.4h0l.212-.211a2.366,2.366,0,0,1,3.334.008,2.357,2.357,0,0,1,0,3.33l-1.406,1.409h0l-1.61,1.6a1.606,1.606,0,0,0,2.267,2.276l1.617-1.611a2.358,2.358,0,0,1,3.337,3.332l-2.8,2.8a1.606,1.606,0,1,0,2.272,2.271l1.374-1.374.024-.022a2.358,2.358,0,0,1,3.338,3.331l-1.4,1.395h0v0l-2.217,2.214a1.607,1.607,0,0,0,2.271,2.273l1.084-1.083,5.2,5.19L54.289,137.4l-5.3-5.295a6.318,6.318,0,0,0,1.055-.849l1.428-1.427a1.606,1.606,0,0,0,0-2.272Zm26.971,1.989-17.218,17.2a2.159,2.159,0,0,1-3.036,0l-2.839-2.835a2.148,2.148,0,0,1,0-3.027l17.218-17.2a2.159,2.159,0,0,1,3.037,0l2.838,2.83a2.154,2.154,0,0,1,0,3.032Z" transform="translate(0 -69.049)"/><path d="M88.049,11.331a1.606,1.606,0,0,0,2.27-2.274L84.464,3.214a1.606,1.606,0,1,0-2.27,2.274Z" transform="translate(-67.936 -2.307)"/><path d="M373.258,11.8a1.6,1.6,0,0,0,1.135-.47l5.849-5.842a1.606,1.606,0,1,0-2.271-2.273l-5.849,5.842a1.606,1.606,0,0,0,1.135,2.743Z" transform="translate(-311.616 -2.307)"/><path d="M60.391,430.674a1.606,1.606,0,0,0,.019,2.272l0,0a1.606,1.606,0,1,0-.024-2.276Z" transform="translate(-49.619 -361.571)"/><path d="M334.12,335.332a1.607,1.607,0,1,0-.722-3.042l-.009,0a1.605,1.605,0,0,0,.731,3.037Z" transform="translate(-278.718 -279.14)"/></g></svg>