<svg xmlns="http://www.w3.org/2000/svg" width="47.5" height="47.5" viewBox="0 0 47.5 47.5"><defs><style>.a{fill:#fff;}</style></defs><path class="a" d="M39.583,8.387V3.958A3.963,3.963,0,0,0,35.625,0H3.958A3.963,3.963,0,0,0,0,3.958V21.375a3.951,3.951,0,0,0,3.55,3.918l2.976,7.725a3.959,3.959,0,0,0,5.117,2.271L30.226,28.13a11.444,11.444,0,0,0,.986,10.161l.455.727v7.69a.791.791,0,0,0,.792.792h14.25a.791.791,0,0,0,.792-.792V20.576a10.36,10.36,0,0,0-3.033-7.3Zm0,4.735,2.4,6.237a2.375,2.375,0,0,1-1.363,3.069l-1.373.53a3.959,3.959,0,0,0,.334-1.583Zm-38,8.253V3.958A2.375,2.375,0,0,1,3.958,1.583H35.625A2.375,2.375,0,0,1,38,3.958V8.99h-.007L38,9.008V21.375a2.409,2.409,0,0,1-.054.41l-7.252-7.252a4.223,4.223,0,0,0-6.1,5.841L27.69,23.75H3.958A2.375,2.375,0,0,1,1.583,21.375Zm10.142,3.958L6.1,27.5l-.833-2.167Zm-.652,8.477A2.375,2.375,0,0,1,8,32.448L6.667,28.975l9.45-3.642v0H29.141L30.17,26.45ZM45.917,45.917H33.25V39.583H45.917Zm0-7.917H32.9l-.343-.549a9.872,9.872,0,0,1-.2-10.139.791.791,0,0,0-.1-.928l-6.488-7.077a2.64,2.64,0,0,1,3.812-3.652L42.19,28.268l1.119-1.119-2.929-2.929.812-.317a3.959,3.959,0,0,0,2.27-5.114l-2.68-6.958,2.565,2.57a8.767,8.767,0,0,1,2.569,6.176Zm0,0"/><path class="a" d="M67.742,69.584a1.842,1.842,0,0,0,1.842-1.842v-3.4A1.842,1.842,0,0,0,67.742,62.5h-3.4A1.842,1.842,0,0,0,62.5,64.342v3.4a1.842,1.842,0,0,0,1.842,1.842Zm-3.825-1.842V66.75h1.417V65.333H63.917v-.992a.425.425,0,0,1,.425-.425h3.4a.425.425,0,0,1,.425.425v.992H66.75V66.75h1.417v.992a.425.425,0,0,1-.425.425h-3.4A.425.425,0,0,1,63.917,67.742Zm0,0" transform="translate(-59.667 -59.667)"/><path class="a" d="M78.125,265.625h2.833v1.417H78.125Zm0,0" transform="translate(-74.583 -252.118)"/><path class="a" d="M78.125,359.375h2.833v1.417H78.125Zm0,0" transform="translate(-74.583 -341.101)"/><path class="a" d="M359.375,359.375h2.833v1.417h-2.833Zm0,0" transform="translate(-341.03 -341.101)"/><path class="a" d="M171.875,265.625h2.833v1.417h-2.833Zm0,0" transform="translate(-163.101 -252.118)"/><path class="a" d="M265.625,265.625h2.833v1.417h-2.833Zm0,0" transform="translate(-252.065 -252.118)"/><path class="a" d="M359.375,265.625h2.833v1.417h-2.833Zm0,0" transform="translate(-341.03 -252.118)"/><path class="a" d="M656.25,78.125h1.417V80.25H656.25Zm0,0" transform="translate(-622.879 -74.583)"/><path class="a" d="M593.75,78.125h1.417V80.25H593.75Zm0,0" transform="translate(-563.557 -74.583)"/><path class="a" d="M531.25,78.125h1.417V80.25H531.25Zm0,0" transform="translate(-504.236 -74.583)"/><path class="a" d="M468.75,78.125h1.417V80.25H468.75Zm0,0" transform="translate(-444.914 -74.583)"/><path class="a" d="M687.5,812.5h1.417v1.417H687.5Zm0,0" transform="translate(-652.54 -770.667)"/></svg>