<svg xmlns="http://www.w3.org/2000/svg" width="129.172" height="79.742" viewBox="0 0 129.172 79.742"><g transform="translate(0 -97.946)"><path d="M80.765,301.67H50.4a1.892,1.892,0,0,0,0,3.785H80.765a1.892,1.892,0,0,0,0-3.785Z" transform="translate(-36.267 -152.319)"/><path d="M80.765,331.336H50.4a1.892,1.892,0,0,0,0,3.785H80.765a1.892,1.892,0,0,0,0-3.785Z" transform="translate(-36.267 -174.499)"/><path d="M80.765,361H50.4a1.892,1.892,0,1,0,0,3.785H80.765a1.892,1.892,0,0,0,0-3.785Z" transform="translate(-36.267 -196.68)"/><path d="M360.85,301.67H330.483a1.892,1.892,0,1,0,0,3.785H360.85a1.892,1.892,0,0,0,0-3.785Z" transform="translate(-245.678 -152.319)"/><path d="M360.85,331.336H330.483a1.892,1.892,0,1,0,0,3.785H360.85a1.892,1.892,0,0,0,0-3.785Z" transform="translate(-245.678 -174.499)"/><path d="M360.85,361H330.483a1.892,1.892,0,1,0,0,3.785H360.85a1.892,1.892,0,0,0,0-3.785Z" transform="translate(-245.678 -196.68)"/><path d="M127.279,138.085a1.892,1.892,0,0,0,1.892-1.892V116.285a1.9,1.9,0,0,0-.554-1.338L112.171,98.5a1.917,1.917,0,0,0-1.338-.554H75.156a4.619,4.619,0,0,0-4.614,4.614v25.683l-2.461-1.56a3.525,3.525,0,0,0-5.409,2.975v3.386H58.63V116.285a1.9,1.9,0,0,0-.554-1.338L41.63,98.5a1.91,1.91,0,0,0-1.338-.554H27.211a1.892,1.892,0,1,0,0,3.785H38.4v11.833a4.619,4.619,0,0,0,4.614,4.614H54.845v14.866H48.9a3.586,3.586,0,0,0-3.582,3.582v5.431a3.586,3.586,0,0,0,3.582,3.582h5.943v27.436a.83.83,0,0,1-.829.829H4.614a.83.83,0,0,1-.829-.829V102.56a.83.83,0,0,1,.829-.829H18.379a1.892,1.892,0,0,0,0-3.785H4.614A4.619,4.619,0,0,0,0,102.56v70.515a4.619,4.619,0,0,0,4.614,4.614h49.4a4.619,4.619,0,0,0,4.614-4.614V145.639h4.041v3.386A3.526,3.526,0,0,0,68.08,152l2.462-1.561v22.636a4.619,4.619,0,0,0,4.614,4.614h49.4a4.619,4.619,0,0,0,4.614-4.614V145.023a1.892,1.892,0,0,0-3.785,0v28.051a.83.83,0,0,1-.829.829h-49.4a.83.83,0,0,1-.829-.829V148.039l9.027-5.723a3.523,3.523,0,0,0,0-5.95l-9.027-5.723V102.56a.83.83,0,0,1,.829-.829h33.785v11.833a4.619,4.619,0,0,0,4.614,4.614h11.833v18.015a1.892,1.892,0,0,0,1.892,1.892ZM43.013,114.393a.83.83,0,0,1-.829-.829v-9.156l9.985,9.985Zm23.443,34.156v-3.541a3.156,3.156,0,0,0-3.153-3.153h-14.2v-5.026H63.3a3.156,3.156,0,0,0,3.153-3.153v-3.541l14.523,9.207Zm47.1-34.156a.83.83,0,0,1-.829-.829v-9.156l9.985,9.985Z" transform="translate(0)"/></g></svg>