<svg xmlns="http://www.w3.org/2000/svg" width="25" height="25" viewBox="0 0 25 25"><defs><style>.a{fill:#fff;}</style></defs><path class="a" d="M12.5,0A12.5,12.5,0,1,0,25,12.5,12.5,12.5,0,0,0,12.5,0Zm7.559,9.166q.009.221.009.444A10.758,10.758,0,0,1,9.205,20.473a10.82,10.82,0,0,1-5.852-1.716.092.092,0,0,1-.037-.109.093.093,0,0,1,.1-.061,7.557,7.557,0,0,0,.892.052,7.454,7.454,0,0,0,4.443-1.449,3.877,3.877,0,0,1-3.366-2.68.092.092,0,0,1,.105-.119,3.721,3.721,0,0,0,1.289.018,3.89,3.89,0,0,1-2.726-3.7v-.05a.093.093,0,0,1,.047-.078.091.091,0,0,1,.091,0,3.707,3.707,0,0,0,1.353.438,3.881,3.881,0,0,1-.935-4.983.092.092,0,0,1,.073-.046.091.091,0,0,1,.079.034,10.693,10.693,0,0,0,7.614,3.914,3.924,3.924,0,0,1-.074-.763,3.88,3.88,0,0,1,6.673-2.691,7.476,7.476,0,0,0,2.325-.9.092.092,0,0,1,.135.108,3.872,3.872,0,0,1-1.363,1.915,7.455,7.455,0,0,0,1.747-.53.093.093,0,0,1,.114.136A7.729,7.729,0,0,1,20.059,9.166Z"/></svg>