<svg xmlns="http://www.w3.org/2000/svg" width="47.465" height="47.467" viewBox="0 0 47.465 47.467"><defs><style>.a{fill:#fff;}</style></defs><g transform="translate(-0.007 0)"><g transform="translate(21.108 30.955)"><path class="a" d="M230.025,333.891a2.41,2.41,0,1,0,2.41,2.41A2.413,2.413,0,0,0,230.025,333.891Zm0,2.967a.556.556,0,1,1,.556-.556A.557.557,0,0,1,230.025,336.858Z" transform="translate(-227.615 -333.891)"/></g><g transform="translate(29.377 27.611)"><path class="a" d="M318.391,298.091a.927.927,0,1,0,.272.655A.934.934,0,0,0,318.391,298.091Z" transform="translate(-316.808 -297.819)"/></g><g transform="translate(0.007 0)"><g transform="translate(0 0)"><path class="a" d="M42.837,13.349h-1L28.761.272a.927.927,0,0,0-1.311,0L24.1,3.622,10.7.032A.927.927,0,0,0,9.565.688L6.173,13.349H3.9A3.9,3.9,0,0,0,.007,17.243c0,.051,0,.1,0,.154,0,.025,0,.051,0,.077V42.832a4.641,4.641,0,0,0,4.635,4.635H42.837a4.64,4.64,0,0,0,4.635-4.635V17.984A4.64,4.64,0,0,0,42.837,13.349ZM42.009,15.2h.828a2.784,2.784,0,0,1,2.781,2.781v7.43a2.2,2.2,0,0,1-2.2,2.2h-.955V23.917a4.64,4.64,0,0,0-4.539-4.633ZM25.032,5.312h0l3.073-3.073L40.228,14.362l-4.89,4.89h-1.7l2.218-2.218a.927.927,0,0,0,0-1.311,1.927,1.927,0,0,1,0-2.722.927.927,0,0,0,0-1.311L30.777,6.607a.927.927,0,0,0-1.311,0,1.927,1.927,0,0,1-2.722,0,.927.927,0,0,0-1.311,0L12.788,19.252h-1.7ZM22.3,15.769a4.431,4.431,0,0,0-4.322,3.483H15.41L26.17,8.492a3.792,3.792,0,0,0,3.87,0l3.935,3.935a3.793,3.793,0,0,0,0,3.87L31.02,19.252H26.626A4.431,4.431,0,0,0,22.3,15.769Zm2.391,3.483H19.914a2.568,2.568,0,0,1,4.781,0ZM10.112,17.61l2.455-9.163A3.79,3.79,0,0,0,15.92,6.511l4.172,1.118-6.055,6.055Zm1-15.547L22.585,5.136l-.979.979L15.615,4.51a.927.927,0,0,0-1.135.656,1.925,1.925,0,0,1-2.357,1.361.927.927,0,0,0-1.135.656l-3.242,12.1H6.5ZM3.9,15.2H5.676L4.583,19.282H3.9a2.04,2.04,0,1,1,0-4.079ZM45.618,42.83a2.784,2.784,0,0,1-2.781,2.781h-1.3a4.61,4.61,0,0,0,.929-2.78V39.107h.556a4.424,4.424,0,0,0,2.6-.839Zm0-8.173a2.6,2.6,0,0,1-2.6,2.6H23.554a3.894,3.894,0,0,1,0-7.787h2.81a.927.927,0,1,0,0-1.854h-2.81a5.748,5.748,0,1,0,0,11.5H40.612v3.725a2.785,2.785,0,0,1-2.738,2.781H6.311V35.173a.927.927,0,1,0-1.854,0V45.606a2.784,2.784,0,0,1-2.6-2.774V20.558a3.869,3.869,0,0,0,2.039.579h33.93a2.784,2.784,0,0,1,2.781,2.781v3.694h-6.7a.927.927,0,1,0,0,1.854h9.512a4.026,4.026,0,0,0,2.2-.65v5.842Z" transform="translate(-0.007 0)"/></g></g><g transform="translate(4.457 30.63)"><path class="a" d="M49.589,330.66a.927.927,0,1,0,.272.655A.935.935,0,0,0,49.589,330.66Z" transform="translate(-48.006 -330.388)"/></g></g></svg>