<svg xmlns="http://www.w3.org/2000/svg" width="25.801" height="25.801" viewBox="0 0 25.801 25.801"><defs><style>.a{fill:#fff;}</style></defs><path class="a" d="M224.113,212.873l4.2-2.417-4.2-2.417Zm0,0" transform="translate(-212.819 -197.556)"/><path class="a" d="M12.9,0A12.9,12.9,0,1,0,25.8,12.9,12.9,12.9,0,0,0,12.9,0Zm8.061,12.914a21.292,21.292,0,0,1-.332,3.878,2.02,2.02,0,0,1-1.421,1.421,49.032,49.032,0,0,1-6.308.332A47.277,47.277,0,0,1,6.592,18.2a2.02,2.02,0,0,1-1.421-1.421A21.2,21.2,0,0,1,4.839,12.9a21.278,21.278,0,0,1,.332-3.878A2.061,2.061,0,0,1,6.592,7.589,49.032,49.032,0,0,1,12.9,7.256a47.177,47.177,0,0,1,6.308.345,2.02,2.02,0,0,1,1.421,1.421,20.2,20.2,0,0,1,.332,3.891Zm0,0"/></svg>